<svg id="Layer_1" data-name="Layer 1" xmlns="http://www.w3.org/2000/svg" xmlns:xlink="http://www.w3.org/1999/xlink" viewBox="0 0 1200 1200"><defs><style>.cls-1{fill:none;}.cls-2{clip-path:url(#clip-path);}.cls-3{fill:#f2eddd;}</style><clipPath id="clip-path"><circle class="cls-1" cx="590.66" cy="600.67" r="577.83"/></clipPath></defs><g class="cls-2"><path class="cls-3" d="M1177.71-7.3a8,8,0,1,0,8,8A8,8,0,0,0,1177.71-7.3Zm-39.86,0a8,8,0,1,0,8,8A8,8,0,0,0,1137.85-7.3Zm19.93,19.93a8,8,0,1,0,8,8A8,8,0,0,0,1157.78,12.63Zm19.93,19.93a8,8,0,1,0,8,8A8,8,0,0,0,1177.71,32.56ZM1098-7.3a8,8,0,1,0,8,8A8,8,0,0,0,1098-7.3Zm19.93,19.93a8,8,0,1,0,8,8A8,8,0,0,0,1117.92,12.63Zm19.93,19.93a8,8,0,1,0,8,8A8,8,0,0,0,1137.85,32.56Zm19.93,19.93a8,8,0,1,0,8,8A8,8,0,0,0,1157.78,52.49Zm19.93,19.93a8,8,0,1,0,8,8A8,8,0,0,0,1177.71,72.42ZM1058.14-7.3a8,8,0,0,0-8,8,8,8,0,1,0,8-8Zm19.93,19.93a8,8,0,1,0,8,8A8,8,0,0,0,1078.07,12.63ZM1098,32.56a8,8,0,1,0,8,8A8,8,0,0,0,1098,32.56Zm19.93,19.93a8,8,0,1,0,8,8A8,8,0,0,0,1117.92,52.49Zm19.93,19.93a8,8,0,1,0,8,8A8,8,0,0,0,1137.85,72.42Zm19.93,19.93a8,8,0,1,0,8,8A8,8,0,0,0,1157.78,92.35Zm19.93,19.93a8,8,0,1,0,8,8A8,8,0,0,0,1177.71,112.28ZM1018.28-7.3a8,8,0,1,0,8,8A8,8,0,0,0,1018.28-7.3Zm19.93,19.93a8,8,0,1,0,8,8A8,8,0,0,0,1038.21,12.63Zm19.93,19.93a8,8,0,1,0,8,8A8,8,0,0,0,1058.14,32.56Zm19.93,19.93a8,8,0,1,0,8,8A8,8,0,0,0,1078.07,52.49ZM1098,72.42a8,8,0,1,0,8,8A8,8,0,0,0,1098,72.42Zm19.93,19.93a8,8,0,1,0,8,8A8,8,0,0,0,1117.92,92.35Zm19.93,19.93a8,8,0,1,0,8,8A8,8,0,0,0,1137.85,112.28Zm19.93,19.92a8,8,0,1,0,8,8A8,8,0,0,0,1157.78,132.2Zm19.93,19.93a8,8,0,1,0,8,8A8,8,0,0,0,1177.71,152.13ZM978.42-7.3a8,8,0,1,0,8,8A8,8,0,0,0,978.42-7.3Zm19.93,19.93a8,8,0,1,0,8,8A8,8,0,0,0,998.35,12.63Zm19.93,19.93a8,8,0,1,0,8,8A8,8,0,0,0,1018.28,32.56Zm19.93,19.93a8,8,0,1,0,8,8A8,8,0,0,0,1038.21,52.49Zm19.93,19.93a8,8,0,1,0,8,8A8,8,0,0,0,1058.14,72.42Zm19.93,19.93a8,8,0,1,0,8,8A8,8,0,0,0,1078.07,92.35ZM1098,112.28a8,8,0,1,0,8,8A8,8,0,0,0,1098,112.28Zm19.93,19.92a8,8,0,1,0,8,8A8,8,0,0,0,1117.92,132.2Zm19.93,19.93a8,8,0,1,0,8,8A8,8,0,0,0,1137.85,152.13Zm19.93,19.93a8,8,0,1,0,8,8A8,8,0,0,0,1157.78,172.06ZM1177.71,192a8,8,0,1,0,8,8A8,8,0,0,0,1177.71,192ZM938.56-7.3a8,8,0,1,0,8,8A8,8,0,0,0,938.56-7.3Zm19.93,19.93a8,8,0,1,0,8,8A8,8,0,0,0,958.49,12.63Zm19.93,19.93a8,8,0,1,0,8,8A8,8,0,0,0,978.42,32.56Zm19.93,19.93a8,8,0,1,0,8,8A8,8,0,0,0,998.35,52.49Zm19.93,19.93a8,8,0,1,0,8,8A8,8,0,0,0,1018.28,72.42Zm19.93,19.93a8,8,0,1,0,8,8A8,8,0,0,0,1038.21,92.35Zm19.93,19.93a8,8,0,1,0,8,8A8,8,0,0,0,1058.14,112.28Zm19.93,19.92a8,8,0,1,0,8,8A8,8,0,0,0,1078.07,132.2ZM1098,152.13a8,8,0,1,0,8,8A8,8,0,0,0,1098,152.13Zm19.93,19.93a8,8,0,1,0,8,8A8,8,0,0,0,1117.92,172.06ZM1137.85,192a8,8,0,1,0,8,8A8,8,0,0,0,1137.85,192Zm19.93,19.93a8,8,0,1,0,8,8A8,8,0,0,0,1157.78,211.92Zm19.93,19.93a8,8,0,1,0,8,8A8,8,0,0,0,1177.71,231.85ZM898.7-7.3a8,8,0,1,0,8,8A8,8,0,0,0,898.7-7.3Zm19.93,19.93a8,8,0,1,0,8,8A8,8,0,0,0,918.63,12.63Zm19.93,19.93a8,8,0,1,0,8,8A8,8,0,0,0,938.56,32.56Zm19.93,19.93a8,8,0,1,0,8,8A8,8,0,0,0,958.49,52.49Zm19.93,19.93a8,8,0,1,0,8,8A8,8,0,0,0,978.42,72.42Zm19.93,19.93a8,8,0,1,0,8,8A8,8,0,0,0,998.35,92.35Zm19.93,19.93a8,8,0,1,0,8,8A8,8,0,0,0,1018.28,112.28Zm19.93,19.92a8,8,0,1,0,8,8A8,8,0,0,0,1038.21,132.2Zm19.93,19.93a8,8,0,1,0,8,8A8,8,0,0,0,1058.14,152.13Zm19.93,19.93a8,8,0,1,0,8,8A8,8,0,0,0,1078.07,172.06ZM1098,192a8,8,0,1,0,8,8A8,8,0,0,0,1098,192Zm19.93,19.93a8,8,0,1,0,8,8A8,8,0,0,0,1117.92,211.92Zm19.93,19.93a8,8,0,1,0,8,8A8,8,0,0,0,1137.85,231.85Zm19.93,19.93a8,8,0,1,0,8,8A8,8,0,0,0,1157.78,251.78Zm19.93,19.93a8,8,0,1,0,8,8A8,8,0,0,0,1177.71,271.71ZM858.85-7.3a8,8,0,0,0-8,8,8,8,0,1,0,8-8Zm19.92,19.93a8,8,0,1,0,8,8A8,8,0,0,0,878.77,12.63ZM898.7,32.56a8,8,0,1,0,8,8A8,8,0,0,0,898.7,32.56Zm19.93,19.93a8,8,0,1,0,8,8A8,8,0,0,0,918.63,52.49Zm19.93,19.93a8,8,0,1,0,8,8A8,8,0,0,0,938.56,72.42Zm19.93,19.93a8,8,0,1,0,8,8A8,8,0,0,0,958.49,92.35Zm19.93,19.93a8,8,0,1,0,8,8A8,8,0,0,0,978.42,112.28Zm19.93,19.92a8,8,0,1,0,8,8A8,8,0,0,0,998.35,132.2Zm19.93,19.93a8,8,0,1,0,8,8A8,8,0,0,0,1018.28,152.13Zm19.93,19.93a8,8,0,1,0,8,8A8,8,0,0,0,1038.21,172.06ZM1058.14,192a8,8,0,1,0,8,8A8,8,0,0,0,1058.14,192Zm19.93,19.93a8,8,0,1,0,8,8A8,8,0,0,0,1078.07,211.92ZM1098,231.85a8,8,0,1,0,8,8A8,8,0,0,0,1098,231.85Zm19.93,19.93a8,8,0,1,0,8,8A8,8,0,0,0,1117.92,251.78Zm19.93,19.93a8,8,0,1,0,8,8A8,8,0,0,0,1137.85,271.71Zm19.93,19.93a8,8,0,1,0,8,8A8,8,0,0,0,1157.78,291.64Zm19.93,19.93a8,8,0,1,0,8,8A8,8,0,0,0,1177.71,311.57ZM819-7.3a8,8,0,0,0-8,8,8,8,0,1,0,8-8Zm19.93,19.93a8,8,0,1,0,8,8A8,8,0,0,0,838.92,12.63Zm19.93,19.93a8,8,0,1,0,8,8A8,8,0,0,0,858.85,32.56Zm19.92,19.93a8,8,0,1,0,8,8A8,8,0,0,0,878.77,52.49ZM898.7,72.42a8,8,0,1,0,8,8A8,8,0,0,0,898.7,72.42Zm19.93,19.93a8,8,0,1,0,8,8A8,8,0,0,0,918.63,92.35Zm19.93,19.93a8,8,0,1,0,8,8A8,8,0,0,0,938.56,112.28Zm19.93,19.92a8,8,0,1,0,8,8A8,8,0,0,0,958.49,132.2Zm19.93,19.93a8,8,0,1,0,8,8A8,8,0,0,0,978.42,152.13Zm19.93,19.93a8,8,0,1,0,8,8A8,8,0,0,0,998.35,172.06ZM1018.28,192a8,8,0,1,0,8,8A8,8,0,0,0,1018.28,192Zm19.93,19.93a8,8,0,1,0,8,8A8,8,0,0,0,1038.21,211.92Zm19.93,19.93a8,8,0,1,0,8,8A8,8,0,0,0,1058.14,231.85Zm19.93,19.93a8,8,0,1,0,8,8A8,8,0,0,0,1078.07,251.78ZM1098,271.71a8,8,0,1,0,8,8A8,8,0,0,0,1098,271.71Zm19.93,19.93a8,8,0,1,0,8,8A8,8,0,0,0,1117.92,291.64Zm19.93,19.93a8,8,0,1,0,8,8A8,8,0,0,0,1137.85,311.57Zm19.93,19.93a8,8,0,1,0,8,8A8,8,0,0,0,1157.78,331.5Zm19.93,19.92a8,8,0,1,0,8,8A8,8,0,0,0,1177.71,351.42ZM779.13-7.3a8,8,0,1,0,8,8A8,8,0,0,0,779.13-7.3Zm19.93,19.93a8,8,0,1,0,8,8A8,8,0,0,0,799.06,12.63ZM819,32.56a8,8,0,1,0,8,8A8,8,0,0,0,819,32.56Zm19.93,19.93a8,8,0,1,0,8,8A8,8,0,0,0,838.92,52.49Zm19.93,19.93a8,8,0,1,0,8,8A8,8,0,0,0,858.85,72.42Zm19.92,19.93a8,8,0,1,0,8,8A8,8,0,0,0,878.77,92.35Zm19.93,19.93a8,8,0,1,0,8,8A8,8,0,0,0,898.7,112.28Zm19.93,19.92a8,8,0,1,0,8,8A8,8,0,0,0,918.63,132.2Zm19.93,19.93a8,8,0,1,0,8,8A8,8,0,0,0,938.56,152.13Zm19.93,19.93a8,8,0,1,0,8,8A8,8,0,0,0,958.49,172.06ZM978.42,192a8,8,0,1,0,8,8A8,8,0,0,0,978.42,192Zm19.93,19.93a8,8,0,1,0,8,8A8,8,0,0,0,998.35,211.92Zm19.93,19.93a8,8,0,1,0,8,8A8,8,0,0,0,1018.28,231.85Zm19.93,19.93a8,8,0,1,0,8,8A8,8,0,0,0,1038.21,251.78Zm19.93,19.93a8,8,0,1,0,8,8A8,8,0,0,0,1058.14,271.71Zm19.93,19.93a8,8,0,1,0,8,8A8,8,0,0,0,1078.07,291.64ZM1098,311.57a8,8,0,1,0,8,8A8,8,0,0,0,1098,311.57Zm19.93,19.93a8,8,0,1,0,8,8A8,8,0,0,0,1117.92,331.5Zm19.93,19.92a8,8,0,1,0,8,8A8,8,0,0,0,1137.85,351.42Zm19.93,19.93a8,8,0,1,0,8,8A8,8,0,0,0,1157.78,371.35Zm19.93,19.93a8,8,0,1,0,8,8A8,8,0,0,0,1177.71,391.28ZM739.27-7.3a8,8,0,1,0,8,8A8,8,0,0,0,739.27-7.3ZM759.2,12.63a8,8,0,1,0,8,8A8,8,0,0,0,759.2,12.63Zm19.93,19.93a8,8,0,1,0,8,8A8,8,0,0,0,779.13,32.56Zm19.93,19.93a8,8,0,1,0,8,8A8,8,0,0,0,799.06,52.49ZM819,72.42a8,8,0,1,0,8,8A8,8,0,0,0,819,72.42Zm19.93,19.93a8,8,0,1,0,8,8A8,8,0,0,0,838.92,92.35Zm19.93,19.93a8,8,0,1,0,8,8A8,8,0,0,0,858.85,112.28Zm19.92,19.92a8,8,0,1,0,8,8A8,8,0,0,0,878.77,132.2Zm19.93,19.93a8,8,0,1,0,8,8A8,8,0,0,0,898.7,152.13Zm19.93,19.93a8,8,0,1,0,8,8A8,8,0,0,0,918.63,172.06ZM938.56,192a8,8,0,1,0,8,8A8,8,0,0,0,938.56,192Zm19.93,19.93a8,8,0,1,0,8,8A8,8,0,0,0,958.49,211.92Zm19.93,19.93a8,8,0,1,0,8,8A8,8,0,0,0,978.42,231.85Zm19.93,19.93a8,8,0,1,0,8,8A8,8,0,0,0,998.35,251.78Zm19.93,19.93a8,8,0,1,0,8,8A8,8,0,0,0,1018.28,271.71Zm19.93,19.93a8,8,0,1,0,8,8A8,8,0,0,0,1038.21,291.64Zm19.93,19.93a8,8,0,1,0,8,8A8,8,0,0,0,1058.14,311.57Zm19.93,19.93a8,8,0,1,0,8,8A8,8,0,0,0,1078.07,331.5ZM1098,351.42a8,8,0,1,0,8,8A8,8,0,0,0,1098,351.42Zm19.93,19.93a8,8,0,1,0,8,8A8,8,0,0,0,1117.92,371.35Zm19.93,19.93a8,8,0,1,0,8,8A8,8,0,0,0,1137.85,391.28Zm19.93,19.93a8,8,0,1,0,8,8A8,8,0,0,0,1157.78,411.21Zm19.93,19.93a8,8,0,1,0,8,8A8,8,0,0,0,1177.71,431.14ZM699.41-7.3a8,8,0,1,0,8,8A8,8,0,0,0,699.41-7.3Zm19.93,19.93a8,8,0,1,0,8,8A8,8,0,0,0,719.34,12.63Zm19.93,19.93a8,8,0,1,0,8,8A8,8,0,0,0,739.27,32.56ZM759.2,52.49a8,8,0,1,0,8,8A8,8,0,0,0,759.2,52.49Zm19.93,19.93a8,8,0,1,0,8,8A8,8,0,0,0,779.13,72.42Zm19.93,19.93a8,8,0,1,0,8,8A8,8,0,0,0,799.06,92.35ZM819,112.28a8,8,0,1,0,8,8A8,8,0,0,0,819,112.28Zm19.93,19.92a8,8,0,1,0,8,8A8,8,0,0,0,838.92,132.2Zm19.93,19.93a8,8,0,1,0,8,8A8,8,0,0,0,858.85,152.13Zm19.92,19.93a8,8,0,1,0,8,8A8,8,0,0,0,878.77,172.06ZM898.7,192a8,8,0,1,0,8,8A8,8,0,0,0,898.7,192Zm19.93,19.93a8,8,0,1,0,8,8A8,8,0,0,0,918.63,211.92Zm19.93,19.93a8,8,0,1,0,8,8A8,8,0,0,0,938.56,231.85Zm19.93,19.93a8,8,0,1,0,8,8A8,8,0,0,0,958.49,251.78Zm19.93,19.93a8,8,0,1,0,8,8A8,8,0,0,0,978.42,271.71Zm19.93,19.93a8,8,0,1,0,8,8A8,8,0,0,0,998.35,291.64Zm19.93,19.93a8,8,0,1,0,8,8A8,8,0,0,0,1018.28,311.57Zm19.93,19.93a8,8,0,1,0,8,8A8,8,0,0,0,1038.21,331.5Zm19.93,19.92a8,8,0,1,0,8,8A8,8,0,0,0,1058.14,351.42Zm19.93,19.93a8,8,0,1,0,8,8A8,8,0,0,0,1078.07,371.35ZM1098,391.28a8,8,0,1,0,8,8A8,8,0,0,0,1098,391.28Zm19.93,19.93a8,8,0,1,0,8,8A8,8,0,0,0,1117.92,411.21Zm19.93,19.93a8,8,0,1,0,8,8A8,8,0,0,0,1137.85,431.14Zm19.93,19.93a8,8,0,1,0,8,8A8,8,0,0,0,1157.78,451.07ZM1177.71,471a8,8,0,1,0,8,8A8,8,0,0,0,1177.71,471ZM659.55-7.3a8,8,0,1,0,8,8A8,8,0,0,0,659.55-7.3Zm19.93,19.93a8,8,0,1,0,8,8A8,8,0,0,0,679.48,12.63Zm19.93,19.93a8,8,0,1,0,8,8A8,8,0,0,0,699.41,32.56Zm19.93,19.93a8,8,0,1,0,8,8A8,8,0,0,0,719.34,52.49Zm19.93,19.93a8,8,0,1,0,8,8A8,8,0,0,0,739.27,72.42ZM759.2,92.35a8,8,0,1,0,8,8A8,8,0,0,0,759.2,92.35Zm19.93,19.93a8,8,0,1,0,8,8A8,8,0,0,0,779.13,112.28Zm19.93,19.92a8,8,0,1,0,8,8A8,8,0,0,0,799.06,132.2ZM819,152.13a8,8,0,1,0,8,8A8,8,0,0,0,819,152.13Zm19.93,19.93a8,8,0,1,0,8,8A8,8,0,0,0,838.92,172.06ZM858.85,192a8,8,0,1,0,8,8A8,8,0,0,0,858.85,192Zm19.92,19.93a8,8,0,1,0,8,8A8,8,0,0,0,878.77,211.92Zm19.93,19.93a8,8,0,1,0,8,8A8,8,0,0,0,898.7,231.85Zm19.93,19.93a8,8,0,1,0,8,8A8,8,0,0,0,918.63,251.78Zm19.93,19.93a8,8,0,1,0,8,8A8,8,0,0,0,938.56,271.71Zm19.93,19.93a8,8,0,1,0,8,8A8,8,0,0,0,958.49,291.64Zm19.93,19.93a8,8,0,1,0,8,8A8,8,0,0,0,978.42,311.57Zm19.93,19.93a8,8,0,1,0,8,8A8,8,0,0,0,998.35,331.5Zm19.93,19.92a8,8,0,1,0,8,8A8,8,0,0,0,1018.28,351.42Zm19.93,19.93a8,8,0,1,0,8,8A8,8,0,0,0,1038.21,371.35Zm19.93,19.93a8,8,0,1,0,8,8A8,8,0,0,0,1058.14,391.28Zm19.93,19.93a8,8,0,1,0,8,8A8,8,0,0,0,1078.07,411.21ZM1098,431.14a8,8,0,1,0,8,8A8,8,0,0,0,1098,431.14Zm19.93,19.93a8,8,0,1,0,8,8A8,8,0,0,0,1117.92,451.07ZM1137.85,471a8,8,0,1,0,8,8A8,8,0,0,0,1137.85,471Zm19.93,19.93a8,8,0,1,0,8,8A8,8,0,0,0,1157.78,490.93Zm19.93,19.93a8,8,0,1,0,8,8A8,8,0,0,0,1177.71,510.86ZM619.7-7.3a8,8,0,0,0-8,8,8,8,0,1,0,8-8Zm19.92,19.93a8,8,0,1,0,8,8A8,8,0,0,0,639.62,12.63Zm19.93,19.93a8,8,0,1,0,8,8A8,8,0,0,0,659.55,32.56Zm19.93,19.93a8,8,0,1,0,8,8A8,8,0,0,0,679.48,52.49Zm19.93,19.93a8,8,0,1,0,8,8A8,8,0,0,0,699.41,72.42Zm19.93,19.93a8,8,0,1,0,8,8A8,8,0,0,0,719.34,92.35Zm19.93,19.93a8,8,0,1,0,8,8A8,8,0,0,0,739.27,112.28ZM759.2,132.2a8,8,0,1,0,8,8A8,8,0,0,0,759.2,132.2Zm19.93,19.93a8,8,0,1,0,8,8A8,8,0,0,0,779.13,152.13Zm19.93,19.93a8,8,0,1,0,8,8A8,8,0,0,0,799.06,172.06ZM819,192a8,8,0,1,0,8,8A8,8,0,0,0,819,192Zm19.93,19.93a8,8,0,1,0,8,8A8,8,0,0,0,838.92,211.92Zm19.93,19.93a8,8,0,1,0,8,8A8,8,0,0,0,858.85,231.85Zm19.92,19.93a8,8,0,1,0,8,8A8,8,0,0,0,878.77,251.78Zm19.93,19.93a8,8,0,1,0,8,8A8,8,0,0,0,898.7,271.71Zm19.93,19.93a8,8,0,1,0,8,8A8,8,0,0,0,918.63,291.64Zm19.93,19.93a8,8,0,1,0,8,8A8,8,0,0,0,938.56,311.57Zm19.93,19.93a8,8,0,1,0,8,8A8,8,0,0,0,958.49,331.5Zm19.93,19.92a8,8,0,1,0,8,8A8,8,0,0,0,978.42,351.42Zm19.93,19.93a8,8,0,1,0,8,8A8,8,0,0,0,998.35,371.35Zm19.93,19.93a8,8,0,1,0,8,8A8,8,0,0,0,1018.28,391.28Zm19.93,19.93a8,8,0,1,0,8,8A8,8,0,0,0,1038.21,411.21Zm19.93,19.93a8,8,0,1,0,8,8A8,8,0,0,0,1058.14,431.14Zm19.93,19.93a8,8,0,1,0,8,8A8,8,0,0,0,1078.07,451.07ZM1098,471a8,8,0,1,0,8,8A8,8,0,0,0,1098,471Zm19.93,19.93a8,8,0,1,0,8,8A8,8,0,0,0,1117.92,490.93Zm19.93,19.93a8,8,0,1,0,8,8A8,8,0,0,0,1137.85,510.86Zm19.93,19.93a8,8,0,1,0,8,8A8,8,0,0,0,1157.78,530.79Zm19.93,19.93a8,8,0,1,0,8,8A8,8,0,0,0,1177.71,550.72ZM579.84-7.3a8,8,0,0,0-8,8,8,8,0,1,0,8-8Zm19.93,19.93a8,8,0,1,0,8,8A8,8,0,0,0,599.77,12.63ZM619.7,32.56a8,8,0,1,0,8,8A8,8,0,0,0,619.7,32.56Zm19.92,19.93a8,8,0,1,0,8,8A8,8,0,0,0,639.62,52.49Zm19.93,19.93a8,8,0,1,0,8,8A8,8,0,0,0,659.55,72.42Zm19.93,19.93a8,8,0,1,0,8,8A8,8,0,0,0,679.48,92.35Zm19.93,19.93a8,8,0,1,0,8,8A8,8,0,0,0,699.41,112.28Zm19.93,19.92a8,8,0,1,0,8,8A8,8,0,0,0,719.34,132.2Zm19.93,19.93a8,8,0,1,0,8,8A8,8,0,0,0,739.27,152.13Zm19.93,19.93a8,8,0,1,0,8,8A8,8,0,0,0,759.2,172.06ZM779.13,192a8,8,0,1,0,8,8A8,8,0,0,0,779.13,192Zm19.93,19.93a8,8,0,1,0,8,8A8,8,0,0,0,799.06,211.92ZM819,231.85a8,8,0,1,0,8,8A8,8,0,0,0,819,231.85Zm19.93,19.93a8,8,0,1,0,8,8A8,8,0,0,0,838.92,251.78Zm19.93,19.93a8,8,0,1,0,8,8A8,8,0,0,0,858.85,271.71Zm19.92,19.93a8,8,0,1,0,8,8A8,8,0,0,0,878.77,291.64Zm19.93,19.93a8,8,0,1,0,8,8A8,8,0,0,0,898.7,311.57Zm19.93,19.93a8,8,0,1,0,8,8A8,8,0,0,0,918.63,331.5Zm19.93,19.92a8,8,0,1,0,8,8A8,8,0,0,0,938.56,351.42Zm19.93,19.93a8,8,0,1,0,8,8A8,8,0,0,0,958.49,371.35Zm19.93,19.93a8,8,0,1,0,8,8A8,8,0,0,0,978.42,391.28Zm19.93,19.93a8,8,0,1,0,8,8A8,8,0,0,0,998.35,411.21Zm19.93,19.93a8,8,0,1,0,8,8A8,8,0,0,0,1018.28,431.14Zm19.93,19.93a8,8,0,1,0,8,8A8,8,0,0,0,1038.21,451.07ZM1058.14,471a8,8,0,1,0,8,8A8,8,0,0,0,1058.14,471Zm19.93,19.93a8,8,0,1,0,8,8A8,8,0,0,0,1078.07,490.93ZM1098,510.86a8,8,0,1,0,8,8A8,8,0,0,0,1098,510.86Zm19.93,19.93a8,8,0,1,0,8,8A8,8,0,0,0,1117.92,530.79Zm19.93,19.93a8,8,0,1,0,8,8A8,8,0,0,0,1137.85,550.72Zm19.93,19.93a8,8,0,1,0,8,8A8,8,0,0,0,1157.78,570.65Zm19.93,19.92a8,8,0,1,0,8,8A8,8,0,0,0,1177.71,590.57ZM540-7.3a8,8,0,1,0,8,8A8,8,0,0,0,540-7.3Zm19.93,19.93a8,8,0,1,0,8,8A8,8,0,0,0,559.91,12.63Zm19.93,19.93a8,8,0,1,0,8,8A8,8,0,0,0,579.84,32.56Zm19.93,19.93a8,8,0,1,0,8,8A8,8,0,0,0,599.77,52.49ZM619.7,72.42a8,8,0,1,0,8,8A8,8,0,0,0,619.7,72.42Zm19.92,19.93a8,8,0,1,0,8,8A8,8,0,0,0,639.62,92.35Zm19.93,19.93a8,8,0,1,0,8,8A8,8,0,0,0,659.55,112.28Zm19.93,19.92a8,8,0,1,0,8,8A8,8,0,0,0,679.48,132.2Zm19.93,19.93a8,8,0,1,0,8,8A8,8,0,0,0,699.41,152.13Zm19.93,19.93a8,8,0,1,0,8,8A8,8,0,0,0,719.34,172.06ZM739.27,192a8,8,0,1,0,8,8A8,8,0,0,0,739.27,192Zm19.93,19.93a8,8,0,1,0,8,8A8,8,0,0,0,759.2,211.92Zm19.93,19.93a8,8,0,1,0,8,8A8,8,0,0,0,779.13,231.85Zm19.93,19.93a8,8,0,1,0,8,8A8,8,0,0,0,799.06,251.78ZM819,271.71a8,8,0,1,0,8,8A8,8,0,0,0,819,271.71Zm19.93,19.93a8,8,0,1,0,8,8A8,8,0,0,0,838.92,291.64Zm19.93,19.93a8,8,0,1,0,8,8A8,8,0,0,0,858.85,311.57Zm19.92,19.93a8,8,0,1,0,8,8A8,8,0,0,0,878.77,331.5Zm19.93,19.92a8,8,0,1,0,8,8A8,8,0,0,0,898.7,351.42Zm19.93,19.93a8,8,0,1,0,8,8A8,8,0,0,0,918.63,371.35Zm19.93,19.93a8,8,0,1,0,8,8A8,8,0,0,0,938.56,391.28Zm19.93,19.93a8,8,0,1,0,8,8A8,8,0,0,0,958.49,411.21Zm19.93,19.93a8,8,0,1,0,8,8A8,8,0,0,0,978.42,431.14Zm19.93,19.93a8,8,0,1,0,8,8A8,8,0,0,0,998.35,451.07ZM1018.28,471a8,8,0,1,0,8,8A8,8,0,0,0,1018.28,471Zm19.93,19.93a8,8,0,1,0,8,8A8,8,0,0,0,1038.21,490.93Zm19.93,19.93a8,8,0,1,0,8,8A8,8,0,0,0,1058.14,510.86Zm19.93,19.93a8,8,0,1,0,8,8A8,8,0,0,0,1078.07,530.79ZM1098,550.72a8,8,0,1,0,8,8A8,8,0,0,0,1098,550.72Zm19.93,19.93a8,8,0,1,0,8,8A8,8,0,0,0,1117.92,570.65Zm19.93,19.92a8,8,0,1,0,8,8A8,8,0,0,0,1137.85,590.57Zm19.93,19.93a8,8,0,1,0,8,8A8,8,0,0,0,1157.78,610.5Zm19.93,19.93a8,8,0,1,0,8,8A8,8,0,0,0,1177.71,630.43ZM500.12-7.3a8,8,0,1,0,8,8A8,8,0,0,0,500.12-7.3Zm19.93,19.93a8,8,0,1,0,8,8A8,8,0,0,0,520.05,12.63ZM540,32.56a8,8,0,1,0,8,8A8,8,0,0,0,540,32.56Zm19.93,19.93a8,8,0,1,0,8,8A8,8,0,0,0,559.91,52.49Zm19.93,19.93a8,8,0,1,0,8,8A8,8,0,0,0,579.84,72.42Zm19.93,19.93a8,8,0,1,0,8,8A8,8,0,0,0,599.77,92.35Zm19.93,19.93a8,8,0,1,0,8,8A8,8,0,0,0,619.7,112.28Zm19.92,19.92a8,8,0,1,0,8,8A8,8,0,0,0,639.62,132.2Zm19.93,19.93a8,8,0,1,0,8,8A8,8,0,0,0,659.55,152.13Zm19.93,19.93a8,8,0,1,0,8,8A8,8,0,0,0,679.48,172.06ZM699.41,192a8,8,0,1,0,8,8A8,8,0,0,0,699.41,192Zm19.93,19.93a8,8,0,1,0,8,8A8,8,0,0,0,719.34,211.92Zm19.93,19.93a8,8,0,1,0,8,8A8,8,0,0,0,739.27,231.85Zm19.93,19.93a8,8,0,1,0,8,8A8,8,0,0,0,759.2,251.78Zm19.93,19.93a8,8,0,1,0,8,8A8,8,0,0,0,779.13,271.71Zm19.93,19.93a8,8,0,1,0,8,8A8,8,0,0,0,799.06,291.64ZM819,311.57a8,8,0,1,0,8,8A8,8,0,0,0,819,311.57Zm19.93,19.93a8,8,0,1,0,8,8A8,8,0,0,0,838.92,331.5Zm19.93,19.92a8,8,0,1,0,8,8A8,8,0,0,0,858.85,351.42Zm19.92,19.93a8,8,0,1,0,8,8A8,8,0,0,0,878.77,371.35Zm19.93,19.93a8,8,0,1,0,8,8A8,8,0,0,0,898.7,391.28Zm19.93,19.93a8,8,0,1,0,8,8A8,8,0,0,0,918.63,411.21Zm19.93,19.93a8,8,0,1,0,8,8A8,8,0,0,0,938.56,431.14Zm19.93,19.93a8,8,0,1,0,8,8A8,8,0,0,0,958.49,451.07ZM978.42,471a8,8,0,1,0,8,8A8,8,0,0,0,978.42,471Zm19.93,19.93a8,8,0,1,0,8,8A8,8,0,0,0,998.35,490.93Zm19.93,19.93a8,8,0,1,0,8,8A8,8,0,0,0,1018.28,510.86Zm19.93,19.93a8,8,0,1,0,8,8A8,8,0,0,0,1038.21,530.79Zm19.93,19.93a8,8,0,1,0,8,8A8,8,0,0,0,1058.14,550.72Zm19.93,19.93a8,8,0,1,0,8,8A8,8,0,0,0,1078.07,570.65ZM1098,590.57a8,8,0,1,0,8,8A8,8,0,0,0,1098,590.57Zm19.93,19.93a8,8,0,1,0,8,8A8,8,0,0,0,1117.92,610.5Zm19.93,19.93a8,8,0,1,0,8,8A8,8,0,0,0,1137.85,630.43Zm19.93,19.93a8,8,0,1,0,8,8A8,8,0,0,0,1157.78,650.36Zm19.93,19.93a8,8,0,1,0,8,8A8,8,0,0,0,1177.71,670.29ZM460.26-7.3a8,8,0,1,0,8,8A8,8,0,0,0,460.26-7.3Zm19.93,19.93a8,8,0,1,0,8,8A8,8,0,0,0,480.19,12.63Zm19.93,19.93a8,8,0,1,0,8,8A8,8,0,0,0,500.12,32.56Zm19.93,19.93a8,8,0,1,0,8,8A8,8,0,0,0,520.05,52.49ZM540,72.42a8,8,0,1,0,8,8A8,8,0,0,0,540,72.42Zm19.93,19.93a8,8,0,1,0,8,8A8,8,0,0,0,559.91,92.35Zm19.93,19.93a8,8,0,1,0,8,8A8,8,0,0,0,579.84,112.28Zm19.93,19.92a8,8,0,1,0,8,8A8,8,0,0,0,599.77,132.2Zm19.93,19.93a8,8,0,1,0,8,8A8,8,0,0,0,619.7,152.13Zm19.92,19.93a8,8,0,1,0,8,8A8,8,0,0,0,639.62,172.06ZM659.55,192a8,8,0,1,0,8,8A8,8,0,0,0,659.55,192Zm19.93,19.93a8,8,0,1,0,8,8A8,8,0,0,0,679.48,211.92Zm19.93,19.93a8,8,0,1,0,8,8A8,8,0,0,0,699.41,231.85Zm19.93,19.93a8,8,0,1,0,8,8A8,8,0,0,0,719.34,251.78Zm19.93,19.93a8,8,0,1,0,8,8A8,8,0,0,0,739.27,271.71Zm19.93,19.93a8,8,0,1,0,8,8A8,8,0,0,0,759.2,291.64Zm19.93,19.93a8,8,0,1,0,8,8A8,8,0,0,0,779.13,311.57Zm19.93,19.93a8,8,0,1,0,8,8A8,8,0,0,0,799.06,331.5ZM819,351.42a8,8,0,1,0,8,8A8,8,0,0,0,819,351.42Zm19.93,19.93a8,8,0,1,0,8,8A8,8,0,0,0,838.92,371.35Zm19.93,19.93a8,8,0,1,0,8,8A8,8,0,0,0,858.85,391.28Zm19.92,19.93a8,8,0,1,0,8,8A8,8,0,0,0,878.77,411.21Zm19.93,19.93a8,8,0,1,0,8,8A8,8,0,0,0,898.7,431.14Zm19.93,19.93a8,8,0,1,0,8,8A8,8,0,0,0,918.63,451.07ZM938.56,471a8,8,0,1,0,8,8A8,8,0,0,0,938.56,471Zm19.93,19.93a8,8,0,1,0,8,8A8,8,0,0,0,958.49,490.93Zm19.93,19.93a8,8,0,1,0,8,8A8,8,0,0,0,978.42,510.86Zm19.93,19.93a8,8,0,1,0,8,8A8,8,0,0,0,998.35,530.79Zm19.93,19.93a8,8,0,1,0,8,8A8,8,0,0,0,1018.28,550.72Zm19.93,19.93a8,8,0,1,0,8,8A8,8,0,0,0,1038.21,570.65Zm19.93,19.92a8,8,0,1,0,8,8A8,8,0,0,0,1058.14,590.57Zm19.93,19.93a8,8,0,1,0,8,8A8,8,0,0,0,1078.07,610.5ZM1098,630.43a8,8,0,1,0,8,8A8,8,0,0,0,1098,630.43Zm19.93,19.93a8,8,0,1,0,8,8A8,8,0,0,0,1117.92,650.36Zm19.93,19.93a8,8,0,1,0,8,8A8,8,0,0,0,1137.85,670.29Zm19.93,19.93a8,8,0,1,0,8,8A8,8,0,0,0,1157.78,690.22Zm19.93,19.93a8,8,0,1,0,8,8A8,8,0,0,0,1177.71,710.15ZM420.4-7.3a8,8,0,1,0,8,8A8,8,0,0,0,420.4-7.3Zm19.93,19.93a8,8,0,1,0,8,8A8,8,0,0,0,440.33,12.63Zm19.93,19.93a8,8,0,1,0,8,8A8,8,0,0,0,460.26,32.56Zm19.93,19.93a8,8,0,1,0,8,8A8,8,0,0,0,480.19,52.49Zm19.93,19.93a8,8,0,1,0,8,8A8,8,0,0,0,500.12,72.42Zm19.93,19.93a8,8,0,1,0,8,8A8,8,0,0,0,520.05,92.35ZM540,112.28a8,8,0,1,0,8,8A8,8,0,0,0,540,112.28Zm19.93,19.92a8,8,0,1,0,8,8A8,8,0,0,0,559.91,132.2Zm19.93,19.93a8,8,0,1,0,8,8A8,8,0,0,0,579.84,152.13Zm19.93,19.93a8,8,0,1,0,8,8A8,8,0,0,0,599.77,172.06ZM619.7,192a8,8,0,1,0,8,8A8,8,0,0,0,619.7,192Zm19.92,19.93a8,8,0,1,0,8,8A8,8,0,0,0,639.62,211.92Zm19.93,19.93a8,8,0,1,0,8,8A8,8,0,0,0,659.55,231.85Zm19.93,19.93a8,8,0,1,0,8,8A8,8,0,0,0,679.48,251.78Zm19.93,19.93a8,8,0,1,0,8,8A8,8,0,0,0,699.41,271.71Zm19.93,19.93a8,8,0,1,0,8,8A8,8,0,0,0,719.34,291.64Zm19.93,19.93a8,8,0,1,0,8,8A8,8,0,0,0,739.27,311.57ZM759.2,331.5a8,8,0,1,0,8,8A8,8,0,0,0,759.2,331.5Zm19.93,19.92a8,8,0,1,0,8,8A8,8,0,0,0,779.13,351.42Zm19.93,19.93a8,8,0,1,0,8,8A8,8,0,0,0,799.06,371.35ZM819,391.28a8,8,0,1,0,8,8A8,8,0,0,0,819,391.28Zm19.93,19.93a8,8,0,1,0,8,8A8,8,0,0,0,838.92,411.21Zm19.93,19.93a8,8,0,1,0,8,8A8,8,0,0,0,858.85,431.14Zm19.92,19.93a8,8,0,1,0,8,8A8,8,0,0,0,878.77,451.07ZM898.7,471a8,8,0,1,0,8,8A8,8,0,0,0,898.7,471Zm19.93,19.93a8,8,0,1,0,8,8A8,8,0,0,0,918.63,490.93Zm19.93,19.93a8,8,0,1,0,8,8A8,8,0,0,0,938.56,510.86Zm19.93,19.93a8,8,0,1,0,8,8A8,8,0,0,0,958.49,530.79Zm19.93,19.93a8,8,0,1,0,8,8A8,8,0,0,0,978.42,550.72Zm19.93,19.93a8,8,0,1,0,8,8A8,8,0,0,0,998.35,570.65Zm19.93,19.92a8,8,0,1,0,8,8A8,8,0,0,0,1018.28,590.57Zm19.93,19.93a8,8,0,1,0,8,8A8,8,0,0,0,1038.21,610.5Zm19.93,19.93a8,8,0,1,0,8,8A8,8,0,0,0,1058.14,630.43Zm19.93,19.93a8,8,0,1,0,8,8A8,8,0,0,0,1078.07,650.36ZM1098,670.29a8,8,0,1,0,8,8A8,8,0,0,0,1098,670.29Zm19.93,19.93a8,8,0,1,0,8,8A8,8,0,0,0,1117.92,690.22Zm19.93,19.93a8,8,0,1,0,8,8A8,8,0,0,0,1137.85,710.15Zm19.93,19.93a8,8,0,1,0,8,8A8,8,0,0,0,1157.78,730.08ZM1177.71,750a8,8,0,1,0,8,8A8,8,0,0,0,1177.71,750ZM380.55-7.3a8,8,0,0,0-8,8,8,8,0,1,0,8-8Zm19.93,19.93a8,8,0,1,0,8,8A8,8,0,0,0,400.48,12.63ZM420.4,32.56a8,8,0,1,0,8,8A8,8,0,0,0,420.4,32.56Zm19.93,19.93a8,8,0,1,0,8,8A8,8,0,0,0,440.33,52.49Zm19.93,19.93a8,8,0,1,0,8,8A8,8,0,0,0,460.26,72.42Zm19.93,19.93a8,8,0,1,0,8,8A8,8,0,0,0,480.19,92.35Zm19.93,19.93a8,8,0,1,0,8,8A8,8,0,0,0,500.12,112.28Zm19.93,19.92a8,8,0,1,0,8,8A8,8,0,0,0,520.05,132.2ZM540,152.13a8,8,0,1,0,8,8A8,8,0,0,0,540,152.13Zm19.93,19.93a8,8,0,1,0,8,8A8,8,0,0,0,559.91,172.06ZM579.84,192a8,8,0,1,0,8,8A8,8,0,0,0,579.84,192Zm19.93,19.93a8,8,0,1,0,8,8A8,8,0,0,0,599.77,211.92Zm19.93,19.93a8,8,0,1,0,8,8A8,8,0,0,0,619.7,231.85Zm19.92,19.93a8,8,0,1,0,8,8A8,8,0,0,0,639.62,251.78Zm19.93,19.93a8,8,0,1,0,8,8A8,8,0,0,0,659.55,271.71Zm19.93,19.93a8,8,0,1,0,8,8A8,8,0,0,0,679.48,291.64Zm19.93,19.93a8,8,0,1,0,8,8A8,8,0,0,0,699.41,311.57Zm19.93,19.93a8,8,0,1,0,8,8A8,8,0,0,0,719.34,331.5Zm19.93,19.92a8,8,0,1,0,8,8A8,8,0,0,0,739.27,351.42Zm19.93,19.93a8,8,0,1,0,8,8A8,8,0,0,0,759.2,371.35Zm19.93,19.93a8,8,0,1,0,8,8A8,8,0,0,0,779.13,391.28Zm19.93,19.93a8,8,0,1,0,8,8A8,8,0,0,0,799.06,411.21ZM819,431.14a8,8,0,1,0,8,8A8,8,0,0,0,819,431.14Zm19.93,19.93a8,8,0,1,0,8,8A8,8,0,0,0,838.92,451.07ZM858.85,471a8,8,0,1,0,8,8A8,8,0,0,0,858.85,471Zm19.92,19.93a8,8,0,1,0,8,8A8,8,0,0,0,878.77,490.93Zm19.93,19.93a8,8,0,1,0,8,8A8,8,0,0,0,898.7,510.86Zm19.93,19.93a8,8,0,1,0,8,8A8,8,0,0,0,918.63,530.79Zm19.93,19.93a8,8,0,1,0,8,8A8,8,0,0,0,938.56,550.72Zm19.93,19.93a8,8,0,1,0,8,8A8,8,0,0,0,958.49,570.65Zm19.93,19.92a8,8,0,1,0,8,8A8,8,0,0,0,978.42,590.57Zm19.93,19.93a8,8,0,1,0,8,8A8,8,0,0,0,998.35,610.5Zm19.93,19.93a8,8,0,1,0,8,8A8,8,0,0,0,1018.28,630.43Zm19.93,19.93a8,8,0,1,0,8,8A8,8,0,0,0,1038.21,650.36Zm19.93,19.93a8,8,0,1,0,8,8A8,8,0,0,0,1058.14,670.29Zm19.93,19.93a8,8,0,1,0,8,8A8,8,0,0,0,1078.07,690.22ZM1098,710.15a8,8,0,1,0,8,8A8,8,0,0,0,1098,710.15Zm19.93,19.93a8,8,0,1,0,8,8A8,8,0,0,0,1117.92,730.08ZM1137.85,750a8,8,0,1,0,8,8A8,8,0,0,0,1137.85,750Zm19.93,19.93a8,8,0,1,0,8,8A8,8,0,0,0,1157.78,769.94Zm19.93,19.93a8,8,0,1,0,8,8A8,8,0,0,0,1177.71,789.87ZM340.69-7.3a8,8,0,1,0,8,8A8,8,0,0,0,340.69-7.3Zm19.93,19.93a8,8,0,1,0,8,8A8,8,0,0,0,360.62,12.63Zm19.93,19.93a8,8,0,1,0,8,8A8,8,0,0,0,380.55,32.56Zm19.93,19.93a8,8,0,1,0,8,8A8,8,0,0,0,400.48,52.49ZM420.4,72.42a8,8,0,1,0,8,8A8,8,0,0,0,420.4,72.42Zm19.93,19.93a8,8,0,1,0,8,8A8,8,0,0,0,440.33,92.35Zm19.93,19.93a8,8,0,1,0,8,8A8,8,0,0,0,460.26,112.28Zm19.93,19.92a8,8,0,1,0,8,8A8,8,0,0,0,480.19,132.2Zm19.93,19.93a8,8,0,1,0,8,8A8,8,0,0,0,500.12,152.13Zm19.93,19.93a8,8,0,1,0,8,8A8,8,0,0,0,520.05,172.06ZM540,192a8,8,0,1,0,8,8A8,8,0,0,0,540,192Zm19.93,19.93a8,8,0,1,0,8,8A8,8,0,0,0,559.91,211.92Zm19.93,19.93a8,8,0,1,0,8,8A8,8,0,0,0,579.84,231.85Zm19.93,19.93a8,8,0,1,0,8,8A8,8,0,0,0,599.77,251.78Zm19.93,19.93a8,8,0,1,0,8,8A8,8,0,0,0,619.7,271.71Zm19.92,19.93a8,8,0,1,0,8,8A8,8,0,0,0,639.62,291.64Zm19.93,19.93a8,8,0,1,0,8,8A8,8,0,0,0,659.55,311.57Zm19.93,19.93a8,8,0,1,0,8,8A8,8,0,0,0,679.48,331.5Zm19.93,19.92a8,8,0,1,0,8,8A8,8,0,0,0,699.41,351.42Zm19.93,19.93a8,8,0,1,0,8,8A8,8,0,0,0,719.34,371.35Zm19.93,19.93a8,8,0,1,0,8,8A8,8,0,0,0,739.27,391.28Zm19.93,19.93a8,8,0,1,0,8,8A8,8,0,0,0,759.2,411.21Zm19.93,19.93a8,8,0,1,0,8,8A8,8,0,0,0,779.13,431.14Zm19.93,19.93a8,8,0,1,0,8,8A8,8,0,0,0,799.06,451.07ZM819,471a8,8,0,1,0,8,8A8,8,0,0,0,819,471Zm19.93,19.93a8,8,0,1,0,8,8A8,8,0,0,0,838.92,490.93Zm19.93,19.93a8,8,0,1,0,8,8A8,8,0,0,0,858.85,510.86Zm19.92,19.93a8,8,0,1,0,8,8A8,8,0,0,0,878.77,530.79Zm19.93,19.93a8,8,0,1,0,8,8A8,8,0,0,0,898.7,550.72Zm19.93,19.93a8,8,0,1,0,8,8A8,8,0,0,0,918.63,570.65Zm19.93,19.92a8,8,0,1,0,8,8A8,8,0,0,0,938.56,590.57Zm19.93,19.93a8,8,0,1,0,8,8A8,8,0,0,0,958.49,610.5Zm19.93,19.93a8,8,0,1,0,8,8A8,8,0,0,0,978.42,630.43Zm19.93,19.93a8,8,0,1,0,8,8A8,8,0,0,0,998.35,650.36Zm19.93,19.93a8,8,0,1,0,8,8A8,8,0,0,0,1018.28,670.29Zm19.93,19.93a8,8,0,1,0,8,8A8,8,0,0,0,1038.21,690.22Zm19.93,19.93a8,8,0,1,0,8,8A8,8,0,0,0,1058.14,710.15Zm19.93,19.93a8,8,0,1,0,8,8A8,8,0,0,0,1078.07,730.08ZM1098,750a8,8,0,1,0,8,8A8,8,0,0,0,1098,750Zm19.93,19.93a8,8,0,1,0,8,8A8,8,0,0,0,1117.92,769.94Zm19.93,19.93a8,8,0,1,0,8,8A8,8,0,0,0,1137.85,789.87Zm19.93,19.92a8,8,0,1,0,8,8A8,8,0,0,0,1157.78,809.79Zm19.93,19.93a8,8,0,1,0,8,8A8,8,0,0,0,1177.71,829.72ZM300.83-7.3a8,8,0,1,0,8,8A8,8,0,0,0,300.83-7.3Zm19.93,19.93a8,8,0,1,0,8,8A8,8,0,0,0,320.76,12.63Zm19.93,19.93a8,8,0,1,0,8,8A8,8,0,0,0,340.69,32.56Zm19.93,19.93a8,8,0,1,0,8,8A8,8,0,0,0,360.62,52.49Zm19.93,19.93a8,8,0,1,0,8,8A8,8,0,0,0,380.55,72.42Zm19.93,19.93a8,8,0,1,0,8,8A8,8,0,0,0,400.48,92.35Zm19.92,19.93a8,8,0,1,0,8,8A8,8,0,0,0,420.4,112.28Zm19.93,19.92a8,8,0,1,0,8,8A8,8,0,0,0,440.33,132.2Zm19.93,19.93a8,8,0,1,0,8,8A8,8,0,0,0,460.26,152.13Zm19.93,19.93a8,8,0,1,0,8,8A8,8,0,0,0,480.19,172.06ZM500.12,192a8,8,0,1,0,8,8A8,8,0,0,0,500.12,192Zm19.93,19.93a8,8,0,1,0,8,8A8,8,0,0,0,520.05,211.92ZM540,231.85a8,8,0,1,0,8,8A8,8,0,0,0,540,231.85Zm19.93,19.93a8,8,0,1,0,8,8A8,8,0,0,0,559.91,251.78Zm19.93,19.93a8,8,0,1,0,8,8A8,8,0,0,0,579.84,271.71Zm19.93,19.93a8,8,0,1,0,8,8A8,8,0,0,0,599.77,291.64Zm19.93,19.93a8,8,0,1,0,8,8A8,8,0,0,0,619.7,311.57Zm19.92,19.93a8,8,0,1,0,8,8A8,8,0,0,0,639.62,331.5Zm19.93,19.92a8,8,0,1,0,8,8A8,8,0,0,0,659.55,351.42Zm19.93,19.93a8,8,0,1,0,8,8A8,8,0,0,0,679.48,371.35Zm19.93,19.93a8,8,0,1,0,8,8A8,8,0,0,0,699.41,391.28Zm19.93,19.93a8,8,0,1,0,8,8A8,8,0,0,0,719.34,411.21Zm19.93,19.93a8,8,0,1,0,8,8A8,8,0,0,0,739.27,431.14Zm19.93,19.93a8,8,0,1,0,8,8A8,8,0,0,0,759.2,451.07ZM779.13,471a8,8,0,1,0,8,8A8,8,0,0,0,779.13,471Zm19.93,19.93a8,8,0,1,0,8,8A8,8,0,0,0,799.06,490.93ZM819,510.86a8,8,0,1,0,8,8A8,8,0,0,0,819,510.86Zm19.93,19.93a8,8,0,1,0,8,8A8,8,0,0,0,838.92,530.79Zm19.93,19.93a8,8,0,1,0,8,8A8,8,0,0,0,858.85,550.72Zm19.92,19.93a8,8,0,1,0,8,8A8,8,0,0,0,878.77,570.65Zm19.93,19.92a8,8,0,1,0,8,8A8,8,0,0,0,898.7,590.57Zm19.93,19.93a8,8,0,1,0,8,8A8,8,0,0,0,918.63,610.5Zm19.93,19.93a8,8,0,1,0,8,8A8,8,0,0,0,938.56,630.43Zm19.93,19.93a8,8,0,1,0,8,8A8,8,0,0,0,958.49,650.36Zm19.93,19.93a8,8,0,1,0,8,8A8,8,0,0,0,978.42,670.29Zm19.93,19.93a8,8,0,1,0,8,8A8,8,0,0,0,998.35,690.22Zm19.93,19.93a8,8,0,1,0,8,8A8,8,0,0,0,1018.28,710.15Zm19.93,19.93a8,8,0,1,0,8,8A8,8,0,0,0,1038.21,730.08ZM1058.14,750a8,8,0,1,0,8,8A8,8,0,0,0,1058.14,750Zm19.93,19.93a8,8,0,1,0,8,8A8,8,0,0,0,1078.07,769.94ZM1098,789.87a8,8,0,1,0,8,8A8,8,0,0,0,1098,789.87Zm19.93,19.92a8,8,0,1,0,8,8A8,8,0,0,0,1117.92,809.79Zm19.93,19.93a8,8,0,1,0,8,8A8,8,0,0,0,1137.85,829.72Zm19.93,19.93a8,8,0,1,0,8,8A8,8,0,0,0,1157.78,849.65Zm19.93,19.93a8,8,0,1,0,8,8A8,8,0,0,0,1177.71,869.58ZM261-7.3a8,8,0,1,0,8,8A8,8,0,0,0,261-7.3ZM280.9,12.63a8,8,0,1,0,8,8A8,8,0,0,0,280.9,12.63Zm19.93,19.93a8,8,0,1,0,8,8A8,8,0,0,0,300.83,32.56Zm19.93,19.93a8,8,0,1,0,8,8A8,8,0,0,0,320.76,52.49Zm19.93,19.93a8,8,0,1,0,8,8A8,8,0,0,0,340.69,72.42Zm19.93,19.93a8,8,0,1,0,8,8A8,8,0,0,0,360.62,92.35Zm19.93,19.93a8,8,0,1,0,8,8A8,8,0,0,0,380.55,112.28Zm19.93,19.92a8,8,0,1,0,8,8A8,8,0,0,0,400.48,132.2Zm19.92,19.93a8,8,0,1,0,8,8A8,8,0,0,0,420.4,152.13Zm19.93,19.93a8,8,0,1,0,8,8A8,8,0,0,0,440.33,172.06ZM460.26,192a8,8,0,1,0,8,8A8,8,0,0,0,460.26,192Zm19.93,19.93a8,8,0,1,0,8,8A8,8,0,0,0,480.19,211.92Zm19.93,19.93a8,8,0,1,0,8,8A8,8,0,0,0,500.12,231.85Zm19.93,19.93a8,8,0,1,0,8,8A8,8,0,0,0,520.05,251.78ZM540,271.71a8,8,0,1,0,8,8A8,8,0,0,0,540,271.71Zm19.93,19.93a8,8,0,1,0,8,8A8,8,0,0,0,559.91,291.64Zm19.93,19.93a8,8,0,1,0,8,8A8,8,0,0,0,579.84,311.57Zm19.93,19.93a8,8,0,1,0,8,8A8,8,0,0,0,599.77,331.5Zm19.93,19.92a8,8,0,1,0,8,8A8,8,0,0,0,619.7,351.42Zm19.92,19.93a8,8,0,1,0,8,8A8,8,0,0,0,639.62,371.35Zm19.93,19.93a8,8,0,1,0,8,8A8,8,0,0,0,659.55,391.28Zm19.93,19.93a8,8,0,1,0,8,8A8,8,0,0,0,679.48,411.21Zm19.93,19.93a8,8,0,1,0,8,8A8,8,0,0,0,699.41,431.14Zm19.93,19.93a8,8,0,1,0,8,8A8,8,0,0,0,719.34,451.07ZM739.27,471a8,8,0,1,0,8,8A8,8,0,0,0,739.27,471Zm19.93,19.93a8,8,0,1,0,8,8A8,8,0,0,0,759.2,490.93Zm19.93,19.93a8,8,0,1,0,8,8A8,8,0,0,0,779.13,510.86Zm19.93,19.93a8,8,0,1,0,8,8A8,8,0,0,0,799.06,530.79ZM819,550.72a8,8,0,1,0,8,8A8,8,0,0,0,819,550.72Zm19.93,19.93a8,8,0,1,0,8,8A8,8,0,0,0,838.92,570.65Zm19.93,19.92a8,8,0,1,0,8,8A8,8,0,0,0,858.85,590.57Zm19.92,19.93a8,8,0,1,0,8,8A8,8,0,0,0,878.77,610.5Zm19.93,19.93a8,8,0,1,0,8,8A8,8,0,0,0,898.7,630.43Zm19.93,19.93a8,8,0,1,0,8,8A8,8,0,0,0,918.63,650.36Zm19.93,19.93a8,8,0,1,0,8,8A8,8,0,0,0,938.56,670.29Zm19.93,19.93a8,8,0,1,0,8,8A8,8,0,0,0,958.49,690.22Zm19.93,19.93a8,8,0,1,0,8,8A8,8,0,0,0,978.42,710.15Zm19.93,19.93a8,8,0,1,0,8,8A8,8,0,0,0,998.35,730.08ZM1018.28,750a8,8,0,1,0,8,8A8,8,0,0,0,1018.28,750Zm19.93,19.93a8,8,0,1,0,8,8A8,8,0,0,0,1038.21,769.94Zm19.93,19.93a8,8,0,1,0,8,8A8,8,0,0,0,1058.14,789.87Zm19.93,19.92a8,8,0,1,0,8,8A8,8,0,0,0,1078.07,809.79ZM1098,829.72a8,8,0,1,0,8,8A8,8,0,0,0,1098,829.72Zm19.93,19.93a8,8,0,1,0,8,8A8,8,0,0,0,1117.92,849.65Zm19.93,19.93a8,8,0,1,0,8,8A8,8,0,0,0,1137.85,869.58Zm19.93,19.93a8,8,0,1,0,8,8A8,8,0,0,0,1157.78,889.51Zm19.93,19.93a8,8,0,1,0,8,8A8,8,0,0,0,1177.71,909.44ZM221.11-7.3a8,8,0,1,0,8,8A8,8,0,0,0,221.11-7.3ZM241,12.63a8,8,0,1,0,8,8A8,8,0,0,0,241,12.63ZM261,32.56a8,8,0,1,0,8,8A8,8,0,0,0,261,32.56ZM280.9,52.49a8,8,0,1,0,8,8A8,8,0,0,0,280.9,52.49Zm19.93,19.93a8,8,0,1,0,8,8A8,8,0,0,0,300.83,72.42Zm19.93,19.93a8,8,0,1,0,8,8A8,8,0,0,0,320.76,92.35Zm19.93,19.93a8,8,0,1,0,8,8A8,8,0,0,0,340.69,112.28Zm19.93,19.92a8,8,0,1,0,8,8A8,8,0,0,0,360.62,132.2Zm19.93,19.93a8,8,0,1,0,8,8A8,8,0,0,0,380.55,152.13Zm19.93,19.93a8,8,0,1,0,8,8A8,8,0,0,0,400.48,172.06ZM420.4,192a8,8,0,1,0,8,8A8,8,0,0,0,420.4,192Zm19.93,19.93a8,8,0,1,0,8,8A8,8,0,0,0,440.33,211.92Zm19.93,19.93a8,8,0,1,0,8,8A8,8,0,0,0,460.26,231.85Zm19.93,19.93a8,8,0,1,0,8,8A8,8,0,0,0,480.19,251.78Zm19.93,19.93a8,8,0,1,0,8,8A8,8,0,0,0,500.12,271.71Zm19.93,19.93a8,8,0,1,0,8,8A8,8,0,0,0,520.05,291.64ZM540,311.57a8,8,0,1,0,8,8A8,8,0,0,0,540,311.57Zm19.93,19.93a8,8,0,1,0,8,8A8,8,0,0,0,559.91,331.5Zm19.93,19.92a8,8,0,1,0,8,8A8,8,0,0,0,579.84,351.42Zm19.93,19.93a8,8,0,1,0,8,8A8,8,0,0,0,599.77,371.35Zm19.93,19.93a8,8,0,1,0,8,8A8,8,0,0,0,619.7,391.28Zm19.92,19.93a8,8,0,1,0,8,8A8,8,0,0,0,639.62,411.21Zm19.93,19.93a8,8,0,1,0,8,8A8,8,0,0,0,659.55,431.14Zm19.93,19.93a8,8,0,1,0,8,8A8,8,0,0,0,679.48,451.07ZM699.41,471a8,8,0,1,0,8,8A8,8,0,0,0,699.41,471Zm19.93,19.93a8,8,0,1,0,8,8A8,8,0,0,0,719.34,490.93Zm19.93,19.93a8,8,0,1,0,8,8A8,8,0,0,0,739.27,510.86Zm19.93,19.93a8,8,0,1,0,8,8A8,8,0,0,0,759.2,530.79Zm19.93,19.93a8,8,0,1,0,8,8A8,8,0,0,0,779.13,550.72Zm19.93,19.93a8,8,0,1,0,8,8A8,8,0,0,0,799.06,570.65ZM819,590.57a8,8,0,1,0,8,8A8,8,0,0,0,819,590.57Zm19.93,19.93a8,8,0,1,0,8,8A8,8,0,0,0,838.92,610.5Zm19.93,19.93a8,8,0,1,0,8,8A8,8,0,0,0,858.85,630.43Zm19.92,19.93a8,8,0,1,0,8,8A8,8,0,0,0,878.77,650.36Zm19.93,19.93a8,8,0,1,0,8,8A8,8,0,0,0,898.7,670.29Zm19.93,19.93a8,8,0,1,0,8,8A8,8,0,0,0,918.63,690.22Zm19.93,19.93a8,8,0,1,0,8,8A8,8,0,0,0,938.56,710.15Zm19.93,19.93a8,8,0,1,0,8,8A8,8,0,0,0,958.49,730.08ZM978.42,750a8,8,0,1,0,8,8A8,8,0,0,0,978.42,750Zm19.93,19.93a8,8,0,1,0,8,8A8,8,0,0,0,998.35,769.94Zm19.93,19.93a8,8,0,1,0,8,8A8,8,0,0,0,1018.28,789.87Zm19.93,19.92a8,8,0,1,0,8,8A8,8,0,0,0,1038.21,809.79Zm19.93,19.93a8,8,0,1,0,8,8A8,8,0,0,0,1058.14,829.72Zm19.93,19.93a8,8,0,1,0,8,8A8,8,0,0,0,1078.07,849.65ZM1098,869.58a8,8,0,1,0,8,8A8,8,0,0,0,1098,869.58Zm19.93,19.93a8,8,0,1,0,8,8A8,8,0,0,0,1117.92,889.51Zm19.93,19.93a8,8,0,1,0,8,8A8,8,0,0,0,1137.85,909.44Zm19.93,19.93a8,8,0,1,0,8,8A8,8,0,0,0,1157.78,929.37Zm19.93,19.93a8,8,0,1,0,8,8A8,8,0,0,0,1177.71,949.3ZM181.25-7.3a8,8,0,1,0,8,8A8,8,0,0,0,181.25-7.3Zm19.93,19.93a8,8,0,1,0,8,8A8,8,0,0,0,201.18,12.63Zm19.93,19.93a8,8,0,1,0,8,8A8,8,0,0,0,221.11,32.56ZM241,52.49a8,8,0,1,0,8,8A8,8,0,0,0,241,52.49ZM261,72.42a8,8,0,1,0,8,8A8,8,0,0,0,261,72.42ZM280.9,92.35a8,8,0,1,0,8,8A8,8,0,0,0,280.9,92.35Zm19.93,19.93a8,8,0,1,0,8,8A8,8,0,0,0,300.83,112.28Zm19.93,19.92a8,8,0,1,0,8,8A8,8,0,0,0,320.76,132.2Zm19.93,19.93a8,8,0,1,0,8,8A8,8,0,0,0,340.69,152.13Zm19.93,19.93a8,8,0,1,0,8,8A8,8,0,0,0,360.62,172.06ZM380.55,192a8,8,0,1,0,8,8A8,8,0,0,0,380.55,192Zm19.93,19.93a8,8,0,1,0,8,8A8,8,0,0,0,400.48,211.92Zm19.92,19.93a8,8,0,1,0,8,8A8,8,0,0,0,420.4,231.85Zm19.93,19.93a8,8,0,1,0,8,8A8,8,0,0,0,440.33,251.78Zm19.93,19.93a8,8,0,1,0,8,8A8,8,0,0,0,460.26,271.71Zm19.93,19.93a8,8,0,1,0,8,8A8,8,0,0,0,480.19,291.64Zm19.93,19.93a8,8,0,1,0,8,8A8,8,0,0,0,500.12,311.57Zm19.93,19.93a8,8,0,1,0,8,8A8,8,0,0,0,520.05,331.5ZM540,351.42a8,8,0,1,0,8,8A8,8,0,0,0,540,351.42Zm19.93,19.93a8,8,0,1,0,8,8A8,8,0,0,0,559.91,371.35Zm19.93,19.93a8,8,0,1,0,8,8A8,8,0,0,0,579.84,391.28Zm19.93,19.93a8,8,0,1,0,8,8A8,8,0,0,0,599.77,411.21Zm19.93,19.93a8,8,0,1,0,8,8A8,8,0,0,0,619.7,431.14Zm19.92,19.93a8,8,0,1,0,8,8A8,8,0,0,0,639.62,451.07ZM659.55,471a8,8,0,1,0,8,8A8,8,0,0,0,659.55,471Zm19.93,19.93a8,8,0,1,0,8,8A8,8,0,0,0,679.48,490.93Zm19.93,19.93a8,8,0,1,0,8,8A8,8,0,0,0,699.41,510.86Zm19.93,19.93a8,8,0,1,0,8,8A8,8,0,0,0,719.34,530.79Zm19.93,19.93a8,8,0,1,0,8,8A8,8,0,0,0,739.27,550.72Zm19.93,19.93a8,8,0,1,0,8,8A8,8,0,0,0,759.2,570.65Zm19.93,19.92a8,8,0,1,0,8,8A8,8,0,0,0,779.13,590.57Zm19.93,19.93a8,8,0,1,0,8,8A8,8,0,0,0,799.06,610.5ZM819,630.43a8,8,0,1,0,8,8A8,8,0,0,0,819,630.43Zm19.93,19.93a8,8,0,1,0,8,8A8,8,0,0,0,838.92,650.36Zm19.93,19.93a8,8,0,1,0,8,8A8,8,0,0,0,858.85,670.29Zm19.92,19.93a8,8,0,1,0,8,8A8,8,0,0,0,878.77,690.22Zm19.93,19.93a8,8,0,1,0,8,8A8,8,0,0,0,898.7,710.15Zm19.93,19.93a8,8,0,1,0,8,8A8,8,0,0,0,918.63,730.08ZM938.56,750a8,8,0,1,0,8,8A8,8,0,0,0,938.56,750Zm19.93,19.93a8,8,0,1,0,8,8A8,8,0,0,0,958.49,769.94Zm19.93,19.93a8,8,0,1,0,8,8A8,8,0,0,0,978.42,789.87Zm19.93,19.92a8,8,0,1,0,8,8A8,8,0,0,0,998.35,809.79Zm19.93,19.93a8,8,0,1,0,8,8A8,8,0,0,0,1018.28,829.72Zm19.93,19.93a8,8,0,1,0,8,8A8,8,0,0,0,1038.21,849.65Zm19.93,19.93a8,8,0,1,0,8,8A8,8,0,0,0,1058.14,869.58Zm19.93,19.93a8,8,0,1,0,8,8A8,8,0,0,0,1078.07,889.51ZM1098,909.44a8,8,0,1,0,8,8A8,8,0,0,0,1098,909.44Zm19.93,19.93a8,8,0,1,0,8,8A8,8,0,0,0,1117.92,929.37Zm19.93,19.93a8,8,0,1,0,8,8A8,8,0,0,0,1137.85,949.3Zm19.93,19.93a8,8,0,1,0,8,8A8,8,0,0,0,1157.78,969.23Zm19.93,19.93a8,8,0,1,0,8,8A8,8,0,0,0,1177.71,989.16ZM141.4-7.3a8,8,0,0,0-8,8,8,8,0,1,0,8-8Zm19.93,19.93a8,8,0,1,0,8,8A8,8,0,0,0,161.33,12.63Zm19.92,19.93a8,8,0,1,0,8,8A8,8,0,0,0,181.25,32.56Zm19.93,19.93a8,8,0,1,0,8,8A8,8,0,0,0,201.18,52.49Zm19.93,19.93a8,8,0,1,0,8,8A8,8,0,0,0,221.11,72.42ZM241,92.35a8,8,0,1,0,8,8A8,8,0,0,0,241,92.35ZM261,112.28a8,8,0,1,0,8,8A8,8,0,0,0,261,112.28ZM280.9,132.2a8,8,0,1,0,8,8A8,8,0,0,0,280.9,132.2Zm19.93,19.93a8,8,0,1,0,8,8A8,8,0,0,0,300.83,152.13Zm19.93,19.93a8,8,0,1,0,8,8A8,8,0,0,0,320.76,172.06ZM340.69,192a8,8,0,1,0,8,8A8,8,0,0,0,340.69,192Zm19.93,19.93a8,8,0,1,0,8,8A8,8,0,0,0,360.62,211.92Zm19.93,19.93a8,8,0,1,0,8,8A8,8,0,0,0,380.55,231.85Zm19.93,19.93a8,8,0,1,0,8,8A8,8,0,0,0,400.48,251.78Zm19.92,19.93a8,8,0,1,0,8,8A8,8,0,0,0,420.4,271.71Zm19.93,19.93a8,8,0,1,0,8,8A8,8,0,0,0,440.33,291.64Zm19.93,19.93a8,8,0,1,0,8,8A8,8,0,0,0,460.26,311.57Zm19.93,19.93a8,8,0,1,0,8,8A8,8,0,0,0,480.19,331.5Zm19.93,19.92a8,8,0,1,0,8,8A8,8,0,0,0,500.12,351.42Zm19.93,19.93a8,8,0,1,0,8,8A8,8,0,0,0,520.05,371.35ZM540,391.28a8,8,0,1,0,8,8A8,8,0,0,0,540,391.28Zm19.93,19.93a8,8,0,1,0,8,8A8,8,0,0,0,559.91,411.21Zm19.93,19.93a8,8,0,1,0,8,8A8,8,0,0,0,579.84,431.14Zm19.93,19.93a8,8,0,1,0,8,8A8,8,0,0,0,599.77,451.07ZM619.7,471a8,8,0,1,0,8,8A8,8,0,0,0,619.7,471Zm19.92,19.93a8,8,0,1,0,8,8A8,8,0,0,0,639.62,490.93Zm19.93,19.93a8,8,0,1,0,8,8A8,8,0,0,0,659.55,510.86Zm19.93,19.93a8,8,0,1,0,8,8A8,8,0,0,0,679.48,530.79Zm19.93,19.93a8,8,0,1,0,8,8A8,8,0,0,0,699.41,550.72Zm19.93,19.93a8,8,0,1,0,8,8A8,8,0,0,0,719.34,570.65Zm19.93,19.92a8,8,0,1,0,8,8A8,8,0,0,0,739.27,590.57ZM759.2,610.5a8,8,0,1,0,8,8A8,8,0,0,0,759.2,610.5Zm19.93,19.93a8,8,0,1,0,8,8A8,8,0,0,0,779.13,630.43Zm19.93,19.93a8,8,0,1,0,8,8A8,8,0,0,0,799.06,650.36ZM819,670.29a8,8,0,1,0,8,8A8,8,0,0,0,819,670.29Zm19.93,19.93a8,8,0,1,0,8,8A8,8,0,0,0,838.92,690.22Zm19.93,19.93a8,8,0,1,0,8,8A8,8,0,0,0,858.85,710.15Zm19.92,19.93a8,8,0,1,0,8,8A8,8,0,0,0,878.77,730.08ZM898.7,750a8,8,0,1,0,8,8A8,8,0,0,0,898.7,750Zm19.93,19.93a8,8,0,1,0,8,8A8,8,0,0,0,918.63,769.94Zm19.93,19.93a8,8,0,1,0,8,8A8,8,0,0,0,938.56,789.87Zm19.93,19.92a8,8,0,1,0,8,8A8,8,0,0,0,958.49,809.79Zm19.93,19.93a8,8,0,1,0,8,8A8,8,0,0,0,978.42,829.72Zm19.93,19.93a8,8,0,1,0,8,8A8,8,0,0,0,998.35,849.65Zm19.93,19.93a8,8,0,1,0,8,8A8,8,0,0,0,1018.28,869.58Zm19.93,19.93a8,8,0,1,0,8,8A8,8,0,0,0,1038.21,889.51Zm19.93,19.93a8,8,0,1,0,8,8A8,8,0,0,0,1058.14,909.44Zm19.93,19.93a8,8,0,1,0,8,8A8,8,0,0,0,1078.07,929.37ZM1098,949.3a8,8,0,1,0,8,8A8,8,0,0,0,1098,949.3Zm19.93,19.93a8,8,0,1,0,8,8A8,8,0,0,0,1117.92,969.23Zm19.93,19.93a8,8,0,1,0,8,8A8,8,0,0,0,1137.85,989.16Zm19.93,19.93a8,8,0,1,0,8,8A8,8,0,0,0,1157.78,1009.09Zm19.93,19.93a8,8,0,1,0,8,8A8,8,0,0,0,1177.71,1029ZM101.54-7.3a8,8,0,1,0,8,8A8,8,0,0,0,101.54-7.3Zm19.93,19.93a8,8,0,1,0,8,8A8,8,0,0,0,121.47,12.63ZM141.4,32.56a8,8,0,1,0,8,8A8,8,0,0,0,141.4,32.56Zm19.93,19.93a8,8,0,1,0,8,8A8,8,0,0,0,161.33,52.49Zm19.92,19.93a8,8,0,1,0,8,8A8,8,0,0,0,181.25,72.42Zm19.93,19.93a8,8,0,1,0,8,8A8,8,0,0,0,201.18,92.35Zm19.93,19.93a8,8,0,1,0,8,8A8,8,0,0,0,221.11,112.28ZM241,132.2a8,8,0,1,0,8,8A8,8,0,0,0,241,132.2ZM261,152.13a8,8,0,1,0,8,8A8,8,0,0,0,261,152.13Zm19.93,19.93a8,8,0,1,0,8,8A8,8,0,0,0,280.9,172.06ZM300.83,192a8,8,0,1,0,8,8A8,8,0,0,0,300.83,192Zm19.93,19.93a8,8,0,1,0,8,8A8,8,0,0,0,320.76,211.92Zm19.93,19.93a8,8,0,1,0,8,8A8,8,0,0,0,340.69,231.85Zm19.93,19.93a8,8,0,1,0,8,8A8,8,0,0,0,360.62,251.78Zm19.93,19.93a8,8,0,1,0,8,8A8,8,0,0,0,380.55,271.71Zm19.93,19.93a8,8,0,1,0,8,8A8,8,0,0,0,400.48,291.64Zm19.92,19.93a8,8,0,1,0,8,8A8,8,0,0,0,420.4,311.57Zm19.93,19.93a8,8,0,1,0,8,8A8,8,0,0,0,440.33,331.5Zm19.93,19.92a8,8,0,1,0,8,8A8,8,0,0,0,460.26,351.42Zm19.93,19.93a8,8,0,1,0,8,8A8,8,0,0,0,480.19,371.35Zm19.93,19.93a8,8,0,1,0,8,8A8,8,0,0,0,500.12,391.28Zm19.93,19.93a8,8,0,1,0,8,8A8,8,0,0,0,520.05,411.21ZM540,431.14a8,8,0,1,0,8,8A8,8,0,0,0,540,431.14Zm19.93,19.93a8,8,0,1,0,8,8A8,8,0,0,0,559.91,451.07ZM579.84,471a8,8,0,1,0,8,8A8,8,0,0,0,579.84,471Zm19.93,19.93a8,8,0,1,0,8,8A8,8,0,0,0,599.77,490.93Zm19.93,19.93a8,8,0,1,0,8,8A8,8,0,0,0,619.7,510.86Zm19.92,19.93a8,8,0,1,0,8,8A8,8,0,0,0,639.62,530.79Zm19.93,19.93a8,8,0,1,0,8,8A8,8,0,0,0,659.55,550.72Zm19.93,19.93a8,8,0,1,0,8,8A8,8,0,0,0,679.48,570.65Zm19.93,19.92a8,8,0,1,0,8,8A8,8,0,0,0,699.41,590.57Zm19.93,19.93a8,8,0,1,0,8,8A8,8,0,0,0,719.34,610.5Zm19.93,19.93a8,8,0,1,0,8,8A8,8,0,0,0,739.27,630.43Zm19.93,19.93a8,8,0,1,0,8,8A8,8,0,0,0,759.2,650.36Zm19.93,19.93a8,8,0,1,0,8,8A8,8,0,0,0,779.13,670.29Zm19.93,19.93a8,8,0,1,0,8,8A8,8,0,0,0,799.06,690.22ZM819,710.15a8,8,0,1,0,8,8A8,8,0,0,0,819,710.15Zm19.93,19.93a8,8,0,1,0,8,8A8,8,0,0,0,838.92,730.08ZM858.85,750a8,8,0,1,0,8,8A8,8,0,0,0,858.85,750Zm19.92,19.93a8,8,0,1,0,8,8A8,8,0,0,0,878.77,769.94Zm19.93,19.93a8,8,0,1,0,8,8A8,8,0,0,0,898.7,789.87Zm19.93,19.92a8,8,0,1,0,8,8A8,8,0,0,0,918.63,809.79Zm19.93,19.93a8,8,0,1,0,8,8A8,8,0,0,0,938.56,829.72Zm19.93,19.93a8,8,0,1,0,8,8A8,8,0,0,0,958.49,849.65Zm19.93,19.93a8,8,0,1,0,8,8A8,8,0,0,0,978.42,869.58Zm19.93,19.93a8,8,0,1,0,8,8A8,8,0,0,0,998.35,889.51Zm19.93,19.93a8,8,0,1,0,8,8A8,8,0,0,0,1018.28,909.44Zm19.93,19.93a8,8,0,1,0,8,8A8,8,0,0,0,1038.21,929.37Zm19.93,19.93a8,8,0,1,0,8,8A8,8,0,0,0,1058.14,949.3Zm19.93,19.93a8,8,0,1,0,8,8A8,8,0,0,0,1078.07,969.23ZM1098,989.16a8,8,0,1,0,8,8A8,8,0,0,0,1098,989.16Zm19.93,19.93a8,8,0,1,0,8,8A8,8,0,0,0,1117.92,1009.09Zm19.93,19.93a8,8,0,1,0,8,8A8,8,0,0,0,1137.85,1029Zm19.93,19.92a8,8,0,1,0,8,8A8,8,0,0,0,1157.78,1048.94Zm19.93,19.93a8,8,0,1,0,8,8A8,8,0,0,0,1177.71,1068.87ZM61.68-7.3a8,8,0,1,0,8,8A8,8,0,0,0,61.68-7.3ZM81.61,12.63a8,8,0,1,0,8,8A8,8,0,0,0,81.61,12.63Zm19.93,19.93a8,8,0,1,0,8,8A8,8,0,0,0,101.54,32.56Zm19.93,19.93a8,8,0,1,0,8,8A8,8,0,0,0,121.47,52.49ZM141.4,72.42a8,8,0,1,0,8,8A8,8,0,0,0,141.4,72.42Zm19.93,19.93a8,8,0,1,0,8,8A8,8,0,0,0,161.33,92.35Zm19.92,19.93a8,8,0,1,0,8,8A8,8,0,0,0,181.25,112.28Zm19.93,19.92a8,8,0,1,0,8,8A8,8,0,0,0,201.18,132.2Zm19.93,19.93a8,8,0,1,0,8,8A8,8,0,0,0,221.11,152.13ZM241,172.06a8,8,0,1,0,8,8A8,8,0,0,0,241,172.06ZM261,192a8,8,0,1,0,8,8A8,8,0,0,0,261,192Zm19.93,19.93a8,8,0,1,0,8,8A8,8,0,0,0,280.9,211.92Zm19.93,19.93a8,8,0,1,0,8,8A8,8,0,0,0,300.83,231.85Zm19.93,19.93a8,8,0,1,0,8,8A8,8,0,0,0,320.76,251.78Zm19.93,19.93a8,8,0,1,0,8,8A8,8,0,0,0,340.69,271.71Zm19.93,19.93a8,8,0,1,0,8,8A8,8,0,0,0,360.62,291.64Zm19.93,19.93a8,8,0,1,0,8,8A8,8,0,0,0,380.55,311.57Zm19.93,19.93a8,8,0,1,0,8,8A8,8,0,0,0,400.48,331.5Zm19.92,19.92a8,8,0,1,0,8,8A8,8,0,0,0,420.4,351.42Zm19.93,19.93a8,8,0,1,0,8,8A8,8,0,0,0,440.33,371.35Zm19.93,19.93a8,8,0,1,0,8,8A8,8,0,0,0,460.26,391.28Zm19.93,19.93a8,8,0,1,0,8,8A8,8,0,0,0,480.19,411.21Zm19.93,19.93a8,8,0,1,0,8,8A8,8,0,0,0,500.12,431.14Zm19.93,19.93a8,8,0,1,0,8,8A8,8,0,0,0,520.05,451.07ZM540,471a8,8,0,1,0,8,8A8,8,0,0,0,540,471Zm19.93,19.93a8,8,0,1,0,8,8A8,8,0,0,0,559.91,490.93Zm19.93,19.93a8,8,0,1,0,8,8A8,8,0,0,0,579.84,510.86Zm19.93,19.93a8,8,0,1,0,8,8A8,8,0,0,0,599.77,530.79Zm19.93,19.93a8,8,0,1,0,8,8A8,8,0,0,0,619.7,550.72Zm19.92,19.93a8,8,0,1,0,8,8A8,8,0,0,0,639.62,570.65Zm19.93,19.92a8,8,0,1,0,8,8A8,8,0,0,0,659.55,590.57Zm19.93,19.93a8,8,0,1,0,8,8A8,8,0,0,0,679.48,610.5Zm19.93,19.93a8,8,0,1,0,8,8A8,8,0,0,0,699.41,630.43Zm19.93,19.93a8,8,0,1,0,8,8A8,8,0,0,0,719.34,650.36Zm19.93,19.93a8,8,0,1,0,8,8A8,8,0,0,0,739.27,670.29Zm19.93,19.93a8,8,0,1,0,8,8A8,8,0,0,0,759.2,690.22Zm19.93,19.93a8,8,0,1,0,8,8A8,8,0,0,0,779.13,710.15Zm19.93,19.93a8,8,0,1,0,8,8A8,8,0,0,0,799.06,730.08ZM819,750a8,8,0,1,0,8,8A8,8,0,0,0,819,750Zm19.93,19.93a8,8,0,1,0,8,8A8,8,0,0,0,838.92,769.94Zm19.93,19.93a8,8,0,1,0,8,8A8,8,0,0,0,858.85,789.87Zm19.92,19.92a8,8,0,1,0,8,8A8,8,0,0,0,878.77,809.79Zm19.93,19.93a8,8,0,1,0,8,8A8,8,0,0,0,898.7,829.72Zm19.93,19.93a8,8,0,1,0,8,8A8,8,0,0,0,918.63,849.65Zm19.93,19.93a8,8,0,1,0,8,8A8,8,0,0,0,938.56,869.58Zm19.93,19.93a8,8,0,1,0,8,8A8,8,0,0,0,958.49,889.51Zm19.93,19.93a8,8,0,1,0,8,8A8,8,0,0,0,978.42,909.44Zm19.93,19.93a8,8,0,1,0,8,8A8,8,0,0,0,998.35,929.37Zm19.93,19.93a8,8,0,1,0,8,8A8,8,0,0,0,1018.28,949.3Zm19.93,19.93a8,8,0,1,0,8,8A8,8,0,0,0,1038.21,969.23Zm19.93,19.93a8,8,0,1,0,8,8A8,8,0,0,0,1058.14,989.16Zm19.93,19.93a8,8,0,1,0,8,8A8,8,0,0,0,1078.07,1009.09ZM1098,1029a8,8,0,1,0,8,8A8,8,0,0,0,1098,1029Zm19.93,19.92a8,8,0,1,0,8,8A8,8,0,0,0,1117.92,1048.94Zm19.93,19.93a8,8,0,1,0,8,8A8,8,0,0,0,1137.85,1068.87Zm19.93,19.93a8,8,0,1,0,8,8A8,8,0,0,0,1157.78,1088.8Zm19.93,19.93a8,8,0,1,0,8,8A8,8,0,0,0,1177.71,1108.73ZM21.82-7.3a8,8,0,1,0,8,8A8,8,0,0,0,21.82-7.3ZM41.75,12.63a8,8,0,1,0,8,8A8,8,0,0,0,41.75,12.63ZM61.68,32.56a8,8,0,1,0,8,8A8,8,0,0,0,61.68,32.56ZM81.61,52.49a8,8,0,1,0,8,8A8,8,0,0,0,81.61,52.49Zm19.93,19.93a8,8,0,1,0,8,8A8,8,0,0,0,101.54,72.42Zm19.93,19.93a8,8,0,1,0,8,8A8,8,0,0,0,121.47,92.35Zm19.93,19.93a8,8,0,1,0,8,8A8,8,0,0,0,141.4,112.28Zm19.93,19.92a8,8,0,1,0,8,8A8,8,0,0,0,161.33,132.2Zm19.92,19.93a8,8,0,1,0,8,8A8,8,0,0,0,181.25,152.13Zm19.93,19.93a8,8,0,1,0,8,8A8,8,0,0,0,201.18,172.06ZM221.11,192a8,8,0,1,0,8,8A8,8,0,0,0,221.11,192ZM241,211.92a8,8,0,1,0,8,8A8,8,0,0,0,241,211.92ZM261,231.85a8,8,0,1,0,8,8A8,8,0,0,0,261,231.85Zm19.93,19.93a8,8,0,1,0,8,8A8,8,0,0,0,280.9,251.78Zm19.93,19.93a8,8,0,1,0,8,8A8,8,0,0,0,300.83,271.71Zm19.93,19.93a8,8,0,1,0,8,8A8,8,0,0,0,320.76,291.64Zm19.93,19.93a8,8,0,1,0,8,8A8,8,0,0,0,340.69,311.57Zm19.93,19.93a8,8,0,1,0,8,8A8,8,0,0,0,360.62,331.5Zm19.93,19.92a8,8,0,1,0,8,8A8,8,0,0,0,380.55,351.42Zm19.93,19.93a8,8,0,1,0,8,8A8,8,0,0,0,400.48,371.35Zm19.92,19.93a8,8,0,1,0,8,8A8,8,0,0,0,420.4,391.28Zm19.93,19.93a8,8,0,1,0,8,8A8,8,0,0,0,440.33,411.21Zm19.93,19.93a8,8,0,1,0,8,8A8,8,0,0,0,460.26,431.14Zm19.93,19.93a8,8,0,1,0,8,8A8,8,0,0,0,480.19,451.07ZM500.12,471a8,8,0,1,0,8,8A8,8,0,0,0,500.12,471Zm19.93,19.93a8,8,0,1,0,8,8A8,8,0,0,0,520.05,490.93ZM540,510.86a8,8,0,1,0,8,8A8,8,0,0,0,540,510.86Zm19.93,19.93a8,8,0,1,0,8,8A8,8,0,0,0,559.91,530.79Zm19.93,19.93a8,8,0,1,0,8,8A8,8,0,0,0,579.84,550.72Zm19.93,19.93a8,8,0,1,0,8,8A8,8,0,0,0,599.77,570.65Zm19.93,19.92a8,8,0,1,0,8,8A8,8,0,0,0,619.7,590.57Zm19.92,19.93a8,8,0,1,0,8,8A8,8,0,0,0,639.62,610.5Zm19.93,19.93a8,8,0,1,0,8,8A8,8,0,0,0,659.55,630.43Zm19.93,19.93a8,8,0,1,0,8,8A8,8,0,0,0,679.48,650.36Zm19.93,19.93a8,8,0,1,0,8,8A8,8,0,0,0,699.41,670.29Zm19.93,19.93a8,8,0,1,0,8,8A8,8,0,0,0,719.34,690.22Zm19.93,19.93a8,8,0,1,0,8,8A8,8,0,0,0,739.27,710.15Zm19.93,19.93a8,8,0,1,0,8,8A8,8,0,0,0,759.2,730.08ZM779.13,750a8,8,0,1,0,8,8A8,8,0,0,0,779.13,750Zm19.93,19.93a8,8,0,1,0,8,8A8,8,0,0,0,799.06,769.94ZM819,789.87a8,8,0,1,0,8,8A8,8,0,0,0,819,789.87Zm19.93,19.92a8,8,0,1,0,8,8A8,8,0,0,0,838.92,809.79Zm19.93,19.93a8,8,0,1,0,8,8A8,8,0,0,0,858.85,829.72Zm19.92,19.93a8,8,0,1,0,8,8A8,8,0,0,0,878.77,849.65Zm19.93,19.93a8,8,0,1,0,8,8A8,8,0,0,0,898.7,869.58Zm19.93,19.93a8,8,0,1,0,8,8A8,8,0,0,0,918.63,889.51Zm19.93,19.93a8,8,0,1,0,8,8A8,8,0,0,0,938.56,909.44Zm19.93,19.93a8,8,0,1,0,8,8A8,8,0,0,0,958.49,929.37Zm19.93,19.93a8,8,0,1,0,8,8A8,8,0,0,0,978.42,949.3Zm19.93,19.93a8,8,0,1,0,8,8A8,8,0,0,0,998.35,969.23Zm19.93,19.93a8,8,0,1,0,8,8A8,8,0,0,0,1018.28,989.16Zm19.93,19.93a8,8,0,1,0,8,8A8,8,0,0,0,1038.21,1009.09Zm19.93,19.93a8,8,0,1,0,8,8A8,8,0,0,0,1058.14,1029Zm19.93,19.92a8,8,0,1,0,8,8A8,8,0,0,0,1078.07,1048.94Zm19.92,19.93a8,8,0,1,0,8,8A8,8,0,0,0,1098,1068.87Zm19.93,19.93a8,8,0,1,0,8,8A8,8,0,0,0,1117.92,1088.8Zm19.93,19.93a8,8,0,1,0,8,8A8,8,0,0,0,1137.85,1108.73Zm19.93,19.93a8,8,0,1,0,8,8A8,8,0,0,0,1157.78,1128.66Zm19.93,19.93a8,8,0,1,0,8,8A8,8,0,0,0,1177.71,1148.59ZM21.82,32.56a8,8,0,1,0,8,8A8,8,0,0,0,21.82,32.56ZM41.75,52.49a8,8,0,1,0,8,8A8,8,0,0,0,41.75,52.49ZM61.68,72.42a8,8,0,1,0,8,8A8,8,0,0,0,61.68,72.42ZM81.61,92.35a8,8,0,1,0,8,8A8,8,0,0,0,81.61,92.35Zm19.93,19.93a8,8,0,1,0,8,8A8,8,0,0,0,101.54,112.28Zm19.93,19.92a8,8,0,1,0,8,8A8,8,0,0,0,121.47,132.2Zm19.93,19.93a8,8,0,1,0,8,8A8,8,0,0,0,141.4,152.13Zm19.93,19.93a8,8,0,1,0,8,8A8,8,0,0,0,161.33,172.06ZM181.25,192a8,8,0,1,0,8,8A8,8,0,0,0,181.25,192Zm19.93,19.93a8,8,0,1,0,8,8A8,8,0,0,0,201.18,211.92Zm19.93,19.93a8,8,0,1,0,8,8A8,8,0,0,0,221.11,231.85ZM241,251.78a8,8,0,1,0,8,8A8,8,0,0,0,241,251.78ZM261,271.71a8,8,0,1,0,8,8A8,8,0,0,0,261,271.71Zm19.93,19.93a8,8,0,1,0,8,8A8,8,0,0,0,280.9,291.64Zm19.93,19.93a8,8,0,1,0,8,8A8,8,0,0,0,300.83,311.57Zm19.93,19.93a8,8,0,1,0,8,8A8,8,0,0,0,320.76,331.5Zm19.93,19.92a8,8,0,1,0,8,8A8,8,0,0,0,340.69,351.42Zm19.93,19.93a8,8,0,1,0,8,8A8,8,0,0,0,360.62,371.35Zm19.93,19.93a8,8,0,1,0,8,8A8,8,0,0,0,380.55,391.28Zm19.93,19.93a8,8,0,1,0,8,8A8,8,0,0,0,400.48,411.21Zm19.92,19.93a8,8,0,1,0,8,8A8,8,0,0,0,420.4,431.14Zm19.93,19.93a8,8,0,1,0,8,8A8,8,0,0,0,440.33,451.07ZM460.26,471a8,8,0,1,0,8,8A8,8,0,0,0,460.26,471Zm19.93,19.93a8,8,0,1,0,8,8A8,8,0,0,0,480.19,490.93Zm19.93,19.93a8,8,0,1,0,8,8A8,8,0,0,0,500.12,510.86Zm19.93,19.93a8,8,0,1,0,8,8A8,8,0,0,0,520.05,530.79ZM540,550.72a8,8,0,1,0,8,8A8,8,0,0,0,540,550.72Zm19.93,19.93a8,8,0,1,0,8,8A8,8,0,0,0,559.91,570.65Zm19.93,19.92a8,8,0,1,0,8,8A8,8,0,0,0,579.84,590.57Zm19.93,19.93a8,8,0,1,0,8,8A8,8,0,0,0,599.77,610.5Zm19.93,19.93a8,8,0,1,0,8,8A8,8,0,0,0,619.7,630.43Zm19.92,19.93a8,8,0,1,0,8,8A8,8,0,0,0,639.62,650.36Zm19.93,19.93a8,8,0,1,0,8,8A8,8,0,0,0,659.55,670.29Zm19.93,19.93a8,8,0,1,0,8,8A8,8,0,0,0,679.48,690.22Zm19.93,19.93a8,8,0,1,0,8,8A8,8,0,0,0,699.41,710.15Zm19.93,19.93a8,8,0,1,0,8,8A8,8,0,0,0,719.34,730.08ZM739.27,750a8,8,0,1,0,8,8A8,8,0,0,0,739.27,750Zm19.93,19.93a8,8,0,1,0,8,8A8,8,0,0,0,759.2,769.94Zm19.93,19.93a8,8,0,1,0,8,8A8,8,0,0,0,779.13,789.87Zm19.93,19.92a8,8,0,1,0,8,8A8,8,0,0,0,799.06,809.79ZM819,829.72a8,8,0,1,0,8,8A8,8,0,0,0,819,829.72Zm19.93,19.93a8,8,0,1,0,8,8A8,8,0,0,0,838.92,849.65Zm19.93,19.93a8,8,0,1,0,8,8A8,8,0,0,0,858.85,869.58Zm19.92,19.93a8,8,0,1,0,8,8A8,8,0,0,0,878.77,889.51Zm19.93,19.93a8,8,0,1,0,8,8A8,8,0,0,0,898.7,909.44Zm19.93,19.93a8,8,0,1,0,8,8A8,8,0,0,0,918.63,929.37Zm19.93,19.93a8,8,0,1,0,8,8A8,8,0,0,0,938.56,949.3Zm19.93,19.93a8,8,0,1,0,8,8A8,8,0,0,0,958.49,969.23Zm19.93,19.93a8,8,0,1,0,8,8A8,8,0,0,0,978.42,989.16Zm19.93,19.93a8,8,0,1,0,8,8A8,8,0,0,0,998.35,1009.09Zm19.93,19.93a8,8,0,1,0,8,8A8,8,0,0,0,1018.28,1029Zm19.93,19.92a8,8,0,1,0,8,8A8,8,0,0,0,1038.21,1048.94Zm19.93,19.93a8,8,0,1,0,8,8A8,8,0,0,0,1058.14,1068.87Zm19.93,19.93a8,8,0,1,0,8,8A8,8,0,0,0,1078.07,1088.8Zm19.92,19.93a8,8,0,1,0,8,8A8,8,0,0,0,1098,1108.73Zm19.93,19.93a8,8,0,1,0,8,8A8,8,0,0,0,1117.92,1128.66Zm19.93,19.93a8,8,0,1,0,8,8A8,8,0,0,0,1137.85,1148.59Zm19.93,19.93a8,8,0,1,0,8,8A8,8,0,0,0,1157.78,1168.52Zm19.93,19.93a8,8,0,1,0,8,8A8,8,0,0,0,1177.71,1188.45ZM21.82,72.42a8,8,0,1,0,8,8A8,8,0,0,0,21.82,72.42ZM41.75,92.35a8,8,0,1,0,8,8A8,8,0,0,0,41.75,92.35Zm19.93,19.93a8,8,0,1,0,8,8A8,8,0,0,0,61.68,112.28ZM81.61,132.2a8,8,0,1,0,8,8A8,8,0,0,0,81.61,132.2Zm19.93,19.93a8,8,0,1,0,8,8A8,8,0,0,0,101.54,152.13Zm19.93,19.93a8,8,0,1,0,8,8A8,8,0,0,0,121.47,172.06ZM141.4,192a8,8,0,1,0,8,8A8,8,0,0,0,141.4,192Zm19.93,19.93a8,8,0,1,0,8,8A8,8,0,0,0,161.33,211.92Zm19.92,19.93a8,8,0,1,0,8,8A8,8,0,0,0,181.25,231.85Zm19.93,19.93a8,8,0,1,0,8,8A8,8,0,0,0,201.18,251.78Zm19.93,19.93a8,8,0,1,0,8,8A8,8,0,0,0,221.11,271.71ZM241,291.64a8,8,0,1,0,8,8A8,8,0,0,0,241,291.64ZM261,311.57a8,8,0,1,0,8,8A8,8,0,0,0,261,311.57ZM280.9,331.5a8,8,0,1,0,8,8A8,8,0,0,0,280.9,331.5Zm19.93,19.92a8,8,0,1,0,8,8A8,8,0,0,0,300.83,351.42Zm19.93,19.93a8,8,0,1,0,8,8A8,8,0,0,0,320.76,371.35Zm19.93,19.93a8,8,0,1,0,8,8A8,8,0,0,0,340.69,391.28Zm19.93,19.93a8,8,0,1,0,8,8A8,8,0,0,0,360.62,411.21Zm19.93,19.93a8,8,0,1,0,8,8A8,8,0,0,0,380.55,431.14Zm19.93,19.93a8,8,0,1,0,8,8A8,8,0,0,0,400.48,451.07ZM420.4,471a8,8,0,1,0,8,8A8,8,0,0,0,420.4,471Zm19.93,19.93a8,8,0,1,0,8,8A8,8,0,0,0,440.33,490.93Zm19.93,19.93a8,8,0,1,0,8,8A8,8,0,0,0,460.26,510.86Zm19.93,19.93a8,8,0,1,0,8,8A8,8,0,0,0,480.19,530.79Zm19.93,19.93a8,8,0,1,0,8,8A8,8,0,0,0,500.12,550.72Zm19.93,19.93a8,8,0,1,0,8,8A8,8,0,0,0,520.05,570.65ZM540,590.57a8,8,0,1,0,8,8A8,8,0,0,0,540,590.57Zm19.93,19.93a8,8,0,1,0,8,8A8,8,0,0,0,559.91,610.5Zm19.93,19.93a8,8,0,1,0,8,8A8,8,0,0,0,579.84,630.43Zm19.93,19.93a8,8,0,1,0,8,8A8,8,0,0,0,599.77,650.36Zm19.93,19.93a8,8,0,1,0,8,8A8,8,0,0,0,619.7,670.29Zm19.92,19.93a8,8,0,1,0,8,8A8,8,0,0,0,639.62,690.22Zm19.93,19.93a8,8,0,1,0,8,8A8,8,0,0,0,659.55,710.15Zm19.93,19.93a8,8,0,1,0,8,8A8,8,0,0,0,679.48,730.08ZM699.41,750a8,8,0,1,0,8,8A8,8,0,0,0,699.41,750Zm19.93,19.93a8,8,0,1,0,8,8A8,8,0,0,0,719.34,769.94Zm19.93,19.93a8,8,0,1,0,8,8A8,8,0,0,0,739.27,789.87Zm19.93,19.92a8,8,0,1,0,8,8A8,8,0,0,0,759.2,809.79Zm19.93,19.93a8,8,0,1,0,8,8A8,8,0,0,0,779.13,829.72Zm19.93,19.93a8,8,0,1,0,8,8A8,8,0,0,0,799.06,849.65ZM819,869.58a8,8,0,1,0,8,8A8,8,0,0,0,819,869.58Zm19.93,19.93a8,8,0,1,0,8,8A8,8,0,0,0,838.92,889.51Zm19.93,19.93a8,8,0,1,0,8,8A8,8,0,0,0,858.85,909.44Zm19.92,19.93a8,8,0,1,0,8,8A8,8,0,0,0,878.77,929.37ZM898.7,949.3a8,8,0,1,0,8,8A8,8,0,0,0,898.7,949.3Zm19.93,19.93a8,8,0,1,0,8,8A8,8,0,0,0,918.63,969.23Zm19.93,19.93a8,8,0,1,0,8,8A8,8,0,0,0,938.56,989.16Zm19.93,19.93a8,8,0,1,0,8,8A8,8,0,0,0,958.49,1009.09ZM978.42,1029a8,8,0,1,0,8,8A8,8,0,0,0,978.42,1029Zm19.93,19.92a8,8,0,1,0,8,8A8,8,0,0,0,998.35,1048.94Zm19.93,19.93a8,8,0,1,0,8,8A8,8,0,0,0,1018.28,1068.87Zm19.93,19.93a8,8,0,1,0,8,8A8,8,0,0,0,1038.21,1088.8Zm19.93,19.93a8,8,0,1,0,8,8A8,8,0,0,0,1058.14,1108.73Zm19.93,19.93a8,8,0,1,0,8,8A8,8,0,0,0,1078.07,1128.66Zm19.92,19.93a8,8,0,1,0,8,8A8,8,0,0,0,1098,1148.59Zm19.93,19.93a8,8,0,1,0,8,8A8,8,0,0,0,1117.92,1168.52Zm19.93,19.93a8,8,0,1,0,8,8A8,8,0,0,0,1137.85,1188.45ZM21.82,112.28a8,8,0,1,0,8,8A8,8,0,0,0,21.82,112.28ZM41.75,132.2a8,8,0,1,0,8,8A8,8,0,0,0,41.75,132.2Zm19.93,19.93a8,8,0,1,0,8,8A8,8,0,0,0,61.68,152.13Zm19.93,19.93a8,8,0,1,0,8,8A8,8,0,0,0,81.61,172.06ZM101.54,192a8,8,0,1,0,8,8A8,8,0,0,0,101.54,192Zm19.93,19.93a8,8,0,1,0,8,8A8,8,0,0,0,121.47,211.92Zm19.93,19.93a8,8,0,1,0,8,8A8,8,0,0,0,141.4,231.85Zm19.93,19.93a8,8,0,1,0,8,8A8,8,0,0,0,161.33,251.78Zm19.92,19.93a8,8,0,1,0,8,8A8,8,0,0,0,181.25,271.71Zm19.93,19.93a8,8,0,1,0,8,8A8,8,0,0,0,201.18,291.64Zm19.93,19.93a8,8,0,1,0,8,8A8,8,0,0,0,221.11,311.57ZM241,331.5a8,8,0,1,0,8,8A8,8,0,0,0,241,331.5ZM261,351.42a8,8,0,1,0,8,8A8,8,0,0,0,261,351.42Zm19.93,19.93a8,8,0,1,0,8,8A8,8,0,0,0,280.9,371.35Zm19.93,19.93a8,8,0,1,0,8,8A8,8,0,0,0,300.83,391.28Zm19.93,19.93a8,8,0,1,0,8,8A8,8,0,0,0,320.76,411.21Zm19.93,19.93a8,8,0,1,0,8,8A8,8,0,0,0,340.69,431.14Zm19.93,19.93a8,8,0,1,0,8,8A8,8,0,0,0,360.62,451.07ZM380.55,471a8,8,0,1,0,8,8A8,8,0,0,0,380.55,471Zm19.93,19.93a8,8,0,1,0,8,8A8,8,0,0,0,400.48,490.93Zm19.92,19.93a8,8,0,1,0,8,8A8,8,0,0,0,420.4,510.86Zm19.93,19.93a8,8,0,1,0,8,8A8,8,0,0,0,440.33,530.79Zm19.93,19.93a8,8,0,1,0,8,8A8,8,0,0,0,460.26,550.72Zm19.93,19.93a8,8,0,1,0,8,8A8,8,0,0,0,480.19,570.65Zm19.93,19.92a8,8,0,1,0,8,8A8,8,0,0,0,500.12,590.57Zm19.93,19.93a8,8,0,1,0,8,8A8,8,0,0,0,520.05,610.5ZM540,630.43a8,8,0,1,0,8,8A8,8,0,0,0,540,630.43Zm19.93,19.93a8,8,0,1,0,8,8A8,8,0,0,0,559.91,650.36Zm19.93,19.93a8,8,0,1,0,8,8A8,8,0,0,0,579.84,670.29Zm19.93,19.93a8,8,0,1,0,8,8A8,8,0,0,0,599.77,690.22Zm19.93,19.93a8,8,0,1,0,8,8A8,8,0,0,0,619.7,710.15Zm19.92,19.93a8,8,0,1,0,8,8A8,8,0,0,0,639.62,730.08ZM659.55,750a8,8,0,1,0,8,8A8,8,0,0,0,659.55,750Zm19.93,19.93a8,8,0,1,0,8,8A8,8,0,0,0,679.48,769.94Zm19.93,19.93a8,8,0,1,0,8,8A8,8,0,0,0,699.41,789.87Zm19.93,19.92a8,8,0,1,0,8,8A8,8,0,0,0,719.34,809.79Zm19.93,19.93a8,8,0,1,0,8,8A8,8,0,0,0,739.27,829.72Zm19.93,19.93a8,8,0,1,0,8,8A8,8,0,0,0,759.2,849.65Zm19.93,19.93a8,8,0,1,0,8,8A8,8,0,0,0,779.13,869.58Zm19.93,19.93a8,8,0,1,0,8,8A8,8,0,0,0,799.06,889.51ZM819,909.44a8,8,0,1,0,8,8A8,8,0,0,0,819,909.44Zm19.93,19.93a8,8,0,1,0,8,8A8,8,0,0,0,838.92,929.37Zm19.93,19.93a8,8,0,1,0,8,8A8,8,0,0,0,858.85,949.3Zm19.92,19.93a8,8,0,1,0,8,8A8,8,0,0,0,878.77,969.23Zm19.93,19.93a8,8,0,1,0,8,8A8,8,0,0,0,898.7,989.16Zm19.93,19.93a8,8,0,1,0,8,8A8,8,0,0,0,918.63,1009.09ZM938.56,1029a8,8,0,1,0,8,8A8,8,0,0,0,938.56,1029Zm19.93,19.92a8,8,0,1,0,8,8A8,8,0,0,0,958.49,1048.94Zm19.93,19.93a8,8,0,1,0,8,8A8,8,0,0,0,978.42,1068.87Zm19.93,19.93a8,8,0,1,0,8,8A8,8,0,0,0,998.35,1088.8Zm19.93,19.93a8,8,0,1,0,8,8A8,8,0,0,0,1018.28,1108.73Zm19.93,19.93a8,8,0,1,0,8,8A8,8,0,0,0,1038.21,1128.66Zm19.93,19.93a8,8,0,1,0,8,8A8,8,0,0,0,1058.14,1148.59Zm19.93,19.93a8,8,0,1,0,8,8A8,8,0,0,0,1078.07,1168.52Zm19.92,19.93a8,8,0,1,0,8,8A8,8,0,0,0,1098,1188.45ZM21.82,152.13a8,8,0,1,0,8,8A8,8,0,0,0,21.82,152.13Zm19.93,19.93a8,8,0,1,0,8,8A8,8,0,0,0,41.75,172.06ZM61.68,192a8,8,0,1,0,8,8A8,8,0,0,0,61.68,192Zm19.93,19.93a8,8,0,1,0,8,8A8,8,0,0,0,81.61,211.92Zm19.93,19.93a8,8,0,1,0,8,8A8,8,0,0,0,101.54,231.85Zm19.93,19.93a8,8,0,1,0,8,8A8,8,0,0,0,121.47,251.78Zm19.93,19.93a8,8,0,1,0,8,8A8,8,0,0,0,141.4,271.71Zm19.93,19.93a8,8,0,1,0,8,8A8,8,0,0,0,161.33,291.64Zm19.92,19.93a8,8,0,1,0,8,8A8,8,0,0,0,181.25,311.57Zm19.93,19.93a8,8,0,1,0,8,8A8,8,0,0,0,201.18,331.5Zm19.93,19.92a8,8,0,1,0,8,8A8,8,0,0,0,221.11,351.42ZM241,371.35a8,8,0,1,0,8,8A8,8,0,0,0,241,371.35ZM261,391.28a8,8,0,1,0,8,8A8,8,0,0,0,261,391.28Zm19.93,19.93a8,8,0,1,0,8,8A8,8,0,0,0,280.9,411.21Zm19.93,19.93a8,8,0,1,0,8,8A8,8,0,0,0,300.83,431.14Zm19.93,19.93a8,8,0,1,0,8,8A8,8,0,0,0,320.76,451.07ZM340.69,471a8,8,0,1,0,8,8A8,8,0,0,0,340.69,471Zm19.93,19.93a8,8,0,1,0,8,8A8,8,0,0,0,360.62,490.93Zm19.93,19.93a8,8,0,1,0,8,8A8,8,0,0,0,380.55,510.86Zm19.93,19.93a8,8,0,1,0,8,8A8,8,0,0,0,400.48,530.79Zm19.92,19.93a8,8,0,1,0,8,8A8,8,0,0,0,420.4,550.72Zm19.93,19.93a8,8,0,1,0,8,8A8,8,0,0,0,440.33,570.65Zm19.93,19.92a8,8,0,1,0,8,8A8,8,0,0,0,460.26,590.57Zm19.93,19.93a8,8,0,1,0,8,8A8,8,0,0,0,480.19,610.5Zm19.93,19.93a8,8,0,1,0,8,8A8,8,0,0,0,500.12,630.43Zm19.93,19.93a8,8,0,1,0,8,8A8,8,0,0,0,520.05,650.36ZM540,670.29a8,8,0,1,0,8,8A8,8,0,0,0,540,670.29Zm19.93,19.93a8,8,0,1,0,8,8A8,8,0,0,0,559.91,690.22Zm19.93,19.93a8,8,0,1,0,8,8A8,8,0,0,0,579.84,710.15Zm19.93,19.93a8,8,0,1,0,8,8A8,8,0,0,0,599.77,730.08ZM619.7,750a8,8,0,1,0,8,8A8,8,0,0,0,619.7,750Zm19.92,19.93a8,8,0,1,0,8,8A8,8,0,0,0,639.62,769.94Zm19.93,19.93a8,8,0,1,0,8,8A8,8,0,0,0,659.55,789.87Zm19.93,19.92a8,8,0,1,0,8,8A8,8,0,0,0,679.48,809.79Zm19.93,19.93a8,8,0,1,0,8,8A8,8,0,0,0,699.41,829.72Zm19.93,19.93a8,8,0,1,0,8,8A8,8,0,0,0,719.34,849.65Zm19.93,19.93a8,8,0,1,0,8,8A8,8,0,0,0,739.27,869.58Zm19.93,19.93a8,8,0,1,0,8,8A8,8,0,0,0,759.2,889.51Zm19.93,19.93a8,8,0,1,0,8,8A8,8,0,0,0,779.13,909.44Zm19.93,19.93a8,8,0,1,0,8,8A8,8,0,0,0,799.06,929.37ZM819,949.3a8,8,0,1,0,8,8A8,8,0,0,0,819,949.3Zm19.93,19.93a8,8,0,1,0,8,8A8,8,0,0,0,838.92,969.23Zm19.93,19.93a8,8,0,1,0,8,8A8,8,0,0,0,858.85,989.16Zm19.92,19.93a8,8,0,1,0,8,8A8,8,0,0,0,878.77,1009.09ZM898.7,1029a8,8,0,1,0,8,8A8,8,0,0,0,898.7,1029Zm19.93,19.92a8,8,0,1,0,8,8A8,8,0,0,0,918.63,1048.94Zm19.93,19.93a8,8,0,1,0,8,8A8,8,0,0,0,938.56,1068.87Zm19.93,19.93a8,8,0,1,0,8,8A8,8,0,0,0,958.49,1088.8Zm19.93,19.93a8,8,0,1,0,8,8A8,8,0,0,0,978.42,1108.73Zm19.93,19.93a8,8,0,1,0,8,8A8,8,0,0,0,998.35,1128.66Zm19.93,19.93a8,8,0,1,0,8,8A8,8,0,0,0,1018.28,1148.59Zm19.93,19.93a8,8,0,1,0,8,8A8,8,0,0,0,1038.21,1168.52Zm19.93,19.93a8,8,0,1,0,8,8A8,8,0,0,0,1058.14,1188.45ZM21.82,192a8,8,0,1,0,8,8A8,8,0,0,0,21.82,192Zm19.93,19.93a8,8,0,1,0,8,8A8,8,0,0,0,41.75,211.92Zm19.93,19.93a8,8,0,1,0,8,8A8,8,0,0,0,61.68,231.85Zm19.93,19.93a8,8,0,1,0,8,8A8,8,0,0,0,81.61,251.78Zm19.93,19.93a8,8,0,1,0,8,8A8,8,0,0,0,101.54,271.71Zm19.93,19.93a8,8,0,1,0,8,8A8,8,0,0,0,121.47,291.64Zm19.93,19.93a8,8,0,1,0,8,8A8,8,0,0,0,141.4,311.57Zm19.93,19.93a8,8,0,1,0,8,8A8,8,0,0,0,161.33,331.5Zm19.92,19.92a8,8,0,1,0,8,8A8,8,0,0,0,181.25,351.42Zm19.93,19.93a8,8,0,1,0,8,8A8,8,0,0,0,201.18,371.35Zm19.93,19.93a8,8,0,1,0,8,8A8,8,0,0,0,221.11,391.28ZM241,411.21a8,8,0,1,0,8,8A8,8,0,0,0,241,411.21ZM261,431.14a8,8,0,1,0,8,8A8,8,0,0,0,261,431.14Zm19.93,19.93a8,8,0,1,0,8,8A8,8,0,0,0,280.9,451.07ZM300.83,471a8,8,0,1,0,8,8A8,8,0,0,0,300.83,471Zm19.93,19.93a8,8,0,1,0,8,8A8,8,0,0,0,320.76,490.93Zm19.93,19.93a8,8,0,1,0,8,8A8,8,0,0,0,340.69,510.86Zm19.93,19.93a8,8,0,1,0,8,8A8,8,0,0,0,360.62,530.79Zm19.93,19.93a8,8,0,1,0,8,8A8,8,0,0,0,380.55,550.72Zm19.93,19.93a8,8,0,1,0,8,8A8,8,0,0,0,400.48,570.65Zm19.92,19.92a8,8,0,1,0,8,8A8,8,0,0,0,420.4,590.57Zm19.93,19.93a8,8,0,1,0,8,8A8,8,0,0,0,440.33,610.5Zm19.93,19.93a8,8,0,1,0,8,8A8,8,0,0,0,460.26,630.43Zm19.93,19.93a8,8,0,1,0,8,8A8,8,0,0,0,480.19,650.36Zm19.93,19.93a8,8,0,1,0,8,8A8,8,0,0,0,500.12,670.29Zm19.93,19.93a8,8,0,1,0,8,8A8,8,0,0,0,520.05,690.22ZM540,710.15a8,8,0,1,0,8,8A8,8,0,0,0,540,710.15Zm19.93,19.93a8,8,0,1,0,8,8A8,8,0,0,0,559.91,730.08ZM579.84,750a8,8,0,1,0,8,8A8,8,0,0,0,579.84,750Zm19.93,19.93a8,8,0,1,0,8,8A8,8,0,0,0,599.77,769.94Zm19.93,19.93a8,8,0,1,0,8,8A8,8,0,0,0,619.7,789.87Zm19.92,19.92a8,8,0,1,0,8,8A8,8,0,0,0,639.62,809.79Zm19.93,19.93a8,8,0,1,0,8,8A8,8,0,0,0,659.55,829.72Zm19.93,19.93a8,8,0,1,0,8,8A8,8,0,0,0,679.48,849.65Zm19.93,19.93a8,8,0,1,0,8,8A8,8,0,0,0,699.41,869.58Zm19.93,19.93a8,8,0,1,0,8,8A8,8,0,0,0,719.34,889.51Zm19.93,19.93a8,8,0,1,0,8,8A8,8,0,0,0,739.27,909.44Zm19.93,19.93a8,8,0,1,0,8,8A8,8,0,0,0,759.2,929.37Zm19.93,19.93a8,8,0,1,0,8,8A8,8,0,0,0,779.13,949.3Zm19.93,19.93a8,8,0,1,0,8,8A8,8,0,0,0,799.06,969.23ZM819,989.16a8,8,0,1,0,8,8A8,8,0,0,0,819,989.16Zm19.93,19.93a8,8,0,1,0,8,8A8,8,0,0,0,838.92,1009.09ZM858.85,1029a8,8,0,1,0,8,8A8,8,0,0,0,858.85,1029Zm19.92,19.92a8,8,0,1,0,8,8A8,8,0,0,0,878.77,1048.94Zm19.93,19.93a8,8,0,1,0,8,8A8,8,0,0,0,898.7,1068.87Zm19.93,19.93a8,8,0,1,0,8,8A8,8,0,0,0,918.63,1088.8Zm19.93,19.93a8,8,0,1,0,8,8A8,8,0,0,0,938.56,1108.73Zm19.93,19.93a8,8,0,1,0,8,8A8,8,0,0,0,958.49,1128.66Zm19.93,19.93a8,8,0,1,0,8,8A8,8,0,0,0,978.42,1148.59Zm19.93,19.93a8,8,0,1,0,8,8A8,8,0,0,0,998.35,1168.52Zm19.93,19.93a8,8,0,1,0,8,8A8,8,0,0,0,1018.28,1188.45ZM21.82,231.85a8,8,0,1,0,8,8A8,8,0,0,0,21.82,231.85Zm19.93,19.93a8,8,0,1,0,8,8A8,8,0,0,0,41.75,251.78Zm19.93,19.93a8,8,0,1,0,8,8A8,8,0,0,0,61.68,271.71Zm19.93,19.93a8,8,0,1,0,8,8A8,8,0,0,0,81.61,291.64Zm19.93,19.93a8,8,0,1,0,8,8A8,8,0,0,0,101.54,311.57Zm19.93,19.93a8,8,0,1,0,8,8A8,8,0,0,0,121.47,331.5Zm19.93,19.92a8,8,0,1,0,8,8A8,8,0,0,0,141.4,351.42Zm19.93,19.93a8,8,0,1,0,8,8A8,8,0,0,0,161.33,371.35Zm19.92,19.93a8,8,0,1,0,8,8A8,8,0,0,0,181.25,391.28Zm19.93,19.93a8,8,0,1,0,8,8A8,8,0,0,0,201.18,411.21Zm19.93,19.93a8,8,0,1,0,8,8A8,8,0,0,0,221.11,431.14ZM241,451.07a8,8,0,1,0,8,8A8,8,0,0,0,241,451.07ZM261,471a8,8,0,1,0,8,8A8,8,0,0,0,261,471Zm19.93,19.93a8,8,0,1,0,8,8A8,8,0,0,0,280.9,490.93Zm19.93,19.93a8,8,0,1,0,8,8A8,8,0,0,0,300.83,510.86Zm19.93,19.93a8,8,0,1,0,8,8A8,8,0,0,0,320.76,530.79Zm19.93,19.93a8,8,0,1,0,8,8A8,8,0,0,0,340.69,550.72Zm19.93,19.93a8,8,0,1,0,8,8A8,8,0,0,0,360.62,570.65Zm19.93,19.92a8,8,0,1,0,8,8A8,8,0,0,0,380.55,590.57Zm19.93,19.93a8,8,0,1,0,8,8A8,8,0,0,0,400.48,610.5Zm19.92,19.93a8,8,0,1,0,8,8A8,8,0,0,0,420.4,630.43Zm19.93,19.93a8,8,0,1,0,8,8A8,8,0,0,0,440.33,650.36Zm19.93,19.93a8,8,0,1,0,8,8A8,8,0,0,0,460.26,670.29Zm19.93,19.93a8,8,0,1,0,8,8A8,8,0,0,0,480.19,690.22Zm19.93,19.93a8,8,0,1,0,8,8A8,8,0,0,0,500.12,710.15Zm19.93,19.93a8,8,0,1,0,8,8A8,8,0,0,0,520.05,730.08ZM540,750a8,8,0,1,0,8,8A8,8,0,0,0,540,750Zm19.93,19.93a8,8,0,1,0,8,8A8,8,0,0,0,559.91,769.94Zm19.93,19.93a8,8,0,1,0,8,8A8,8,0,0,0,579.84,789.87Zm19.93,19.92a8,8,0,1,0,8,8A8,8,0,0,0,599.77,809.79Zm19.93,19.93a8,8,0,1,0,8,8A8,8,0,0,0,619.7,829.72Zm19.92,19.93a8,8,0,1,0,8,8A8,8,0,0,0,639.62,849.65Zm19.93,19.93a8,8,0,1,0,8,8A8,8,0,0,0,659.55,869.58Zm19.93,19.93a8,8,0,1,0,8,8A8,8,0,0,0,679.48,889.51Zm19.93,19.93a8,8,0,1,0,8,8A8,8,0,0,0,699.41,909.44Zm19.93,19.93a8,8,0,1,0,8,8A8,8,0,0,0,719.34,929.37Zm19.93,19.93a8,8,0,1,0,8,8A8,8,0,0,0,739.27,949.3Zm19.93,19.93a8,8,0,1,0,8,8A8,8,0,0,0,759.2,969.23Zm19.93,19.93a8,8,0,1,0,8,8A8,8,0,0,0,779.13,989.16Zm19.93,19.93a8,8,0,1,0,8,8A8,8,0,0,0,799.06,1009.09ZM819,1029a8,8,0,1,0,8,8A8,8,0,0,0,819,1029Zm19.93,19.92a8,8,0,1,0,8,8A8,8,0,0,0,838.92,1048.94Zm19.93,19.93a8,8,0,1,0,8,8A8,8,0,0,0,858.85,1068.87Zm19.92,19.93a8,8,0,1,0,8,8A8,8,0,0,0,878.77,1088.8Zm19.93,19.93a8,8,0,1,0,8,8A8,8,0,0,0,898.7,1108.73Zm19.93,19.93a8,8,0,1,0,8,8A8,8,0,0,0,918.63,1128.66Zm19.93,19.93a8,8,0,1,0,8,8A8,8,0,0,0,938.56,1148.59Zm19.93,19.93a8,8,0,1,0,8,8A8,8,0,0,0,958.49,1168.52Zm19.93,19.93a8,8,0,1,0,8,8A8,8,0,0,0,978.42,1188.45ZM21.82,271.71a8,8,0,1,0,8,8A8,8,0,0,0,21.82,271.71Zm19.93,19.93a8,8,0,1,0,8,8A8,8,0,0,0,41.75,291.64Zm19.93,19.93a8,8,0,1,0,8,8A8,8,0,0,0,61.68,311.57ZM81.61,331.5a8,8,0,1,0,8,8A8,8,0,0,0,81.61,331.5Zm19.93,19.92a8,8,0,1,0,8,8A8,8,0,0,0,101.54,351.42Zm19.93,19.93a8,8,0,1,0,8,8A8,8,0,0,0,121.47,371.35Zm19.93,19.93a8,8,0,1,0,8,8A8,8,0,0,0,141.4,391.28Zm19.93,19.93a8,8,0,1,0,8,8A8,8,0,0,0,161.33,411.21Zm19.92,19.93a8,8,0,1,0,8,8A8,8,0,0,0,181.25,431.14Zm19.93,19.93a8,8,0,1,0,8,8A8,8,0,0,0,201.18,451.07ZM221.11,471a8,8,0,1,0,8,8A8,8,0,0,0,221.11,471ZM241,490.93a8,8,0,1,0,8,8A8,8,0,0,0,241,490.93ZM261,510.86a8,8,0,1,0,8,8A8,8,0,0,0,261,510.86Zm19.93,19.93a8,8,0,1,0,8,8A8,8,0,0,0,280.9,530.79Zm19.93,19.93a8,8,0,1,0,8,8A8,8,0,0,0,300.83,550.72Zm19.93,19.93a8,8,0,1,0,8,8A8,8,0,0,0,320.76,570.65Zm19.93,19.92a8,8,0,1,0,8,8A8,8,0,0,0,340.69,590.57Zm19.93,19.93a8,8,0,1,0,8,8A8,8,0,0,0,360.62,610.5Zm19.93,19.93a8,8,0,1,0,8,8A8,8,0,0,0,380.55,630.43Zm19.93,19.93a8,8,0,1,0,8,8A8,8,0,0,0,400.48,650.36Zm19.92,19.93a8,8,0,1,0,8,8A8,8,0,0,0,420.4,670.29Zm19.93,19.93a8,8,0,1,0,8,8A8,8,0,0,0,440.33,690.22Zm19.93,19.93a8,8,0,1,0,8,8A8,8,0,0,0,460.26,710.15Zm19.93,19.93a8,8,0,1,0,8,8A8,8,0,0,0,480.19,730.08ZM500.12,750a8,8,0,1,0,8,8A8,8,0,0,0,500.12,750Zm19.93,19.93a8,8,0,1,0,8,8A8,8,0,0,0,520.05,769.94ZM540,789.87a8,8,0,1,0,8,8A8,8,0,0,0,540,789.87Zm19.93,19.92a8,8,0,1,0,8,8A8,8,0,0,0,559.91,809.79Zm19.93,19.93a8,8,0,1,0,8,8A8,8,0,0,0,579.84,829.72Zm19.93,19.93a8,8,0,1,0,8,8A8,8,0,0,0,599.77,849.65Zm19.93,19.93a8,8,0,1,0,8,8A8,8,0,0,0,619.7,869.58Zm19.92,19.93a8,8,0,1,0,8,8A8,8,0,0,0,639.62,889.51Zm19.93,19.93a8,8,0,1,0,8,8A8,8,0,0,0,659.55,909.44Zm19.93,19.93a8,8,0,1,0,8,8A8,8,0,0,0,679.48,929.37Zm19.93,19.93a8,8,0,1,0,8,8A8,8,0,0,0,699.41,949.3Zm19.93,19.93a8,8,0,1,0,8,8A8,8,0,0,0,719.34,969.23Zm19.93,19.93a8,8,0,1,0,8,8A8,8,0,0,0,739.27,989.16Zm19.93,19.93a8,8,0,1,0,8,8A8,8,0,0,0,759.2,1009.09ZM779.13,1029a8,8,0,1,0,8,8A8,8,0,0,0,779.13,1029Zm19.93,19.92a8,8,0,1,0,8,8A8,8,0,0,0,799.06,1048.94ZM819,1068.87a8,8,0,1,0,8,8A8,8,0,0,0,819,1068.87Zm19.93,19.93a8,8,0,1,0,8,8A8,8,0,0,0,838.92,1088.8Zm19.93,19.93a8,8,0,1,0,8,8A8,8,0,0,0,858.85,1108.73Zm19.92,19.93a8,8,0,1,0,8,8A8,8,0,0,0,878.77,1128.66Zm19.93,19.93a8,8,0,1,0,8,8A8,8,0,0,0,898.7,1148.59Zm19.93,19.93a8,8,0,1,0,8,8A8,8,0,0,0,918.63,1168.52Zm19.93,19.93a8,8,0,1,0,8,8A8,8,0,0,0,938.56,1188.45ZM21.82,311.57a8,8,0,1,0,8,8A8,8,0,0,0,21.82,311.57ZM41.75,331.5a8,8,0,1,0,8,8A8,8,0,0,0,41.75,331.5Zm19.93,19.92a8,8,0,1,0,8,8A8,8,0,0,0,61.68,351.42Zm19.93,19.93a8,8,0,1,0,8,8A8,8,0,0,0,81.61,371.35Zm19.93,19.93a8,8,0,1,0,8,8A8,8,0,0,0,101.54,391.28Zm19.93,19.93a8,8,0,1,0,8,8A8,8,0,0,0,121.47,411.21Zm19.93,19.93a8,8,0,1,0,8,8A8,8,0,0,0,141.4,431.14Zm19.93,19.93a8,8,0,1,0,8,8A8,8,0,0,0,161.33,451.07ZM181.25,471a8,8,0,1,0,8,8A8,8,0,0,0,181.25,471Zm19.93,19.93a8,8,0,1,0,8,8A8,8,0,0,0,201.18,490.93Zm19.93,19.93a8,8,0,1,0,8,8A8,8,0,0,0,221.11,510.86ZM241,530.79a8,8,0,1,0,8,8A8,8,0,0,0,241,530.79ZM261,550.72a8,8,0,1,0,8,8A8,8,0,0,0,261,550.72Zm19.93,19.93a8,8,0,1,0,8,8A8,8,0,0,0,280.9,570.65Zm19.93,19.92a8,8,0,1,0,8,8A8,8,0,0,0,300.83,590.57Zm19.93,19.93a8,8,0,1,0,8,8A8,8,0,0,0,320.76,610.5Zm19.93,19.93a8,8,0,1,0,8,8A8,8,0,0,0,340.69,630.43Zm19.93,19.93a8,8,0,1,0,8,8A8,8,0,0,0,360.62,650.36Zm19.93,19.93a8,8,0,1,0,8,8A8,8,0,0,0,380.55,670.29Zm19.93,19.93a8,8,0,1,0,8,8A8,8,0,0,0,400.48,690.22Zm19.92,19.93a8,8,0,1,0,8,8A8,8,0,0,0,420.4,710.15Zm19.93,19.93a8,8,0,1,0,8,8A8,8,0,0,0,440.33,730.08ZM460.26,750a8,8,0,1,0,8,8A8,8,0,0,0,460.26,750Zm19.93,19.93a8,8,0,1,0,8,8A8,8,0,0,0,480.19,769.94Zm19.93,19.93a8,8,0,1,0,8,8A8,8,0,0,0,500.12,789.87Zm19.93,19.92a8,8,0,1,0,8,8A8,8,0,0,0,520.05,809.79ZM540,829.72a8,8,0,1,0,8,8A8,8,0,0,0,540,829.72Zm19.93,19.93a8,8,0,1,0,8,8A8,8,0,0,0,559.91,849.65Zm19.93,19.93a8,8,0,1,0,8,8A8,8,0,0,0,579.84,869.58Zm19.93,19.93a8,8,0,1,0,8,8A8,8,0,0,0,599.77,889.51Zm19.93,19.93a8,8,0,1,0,8,8A8,8,0,0,0,619.7,909.44Zm19.92,19.93a8,8,0,1,0,8,8A8,8,0,0,0,639.62,929.37Zm19.93,19.93a8,8,0,1,0,8,8A8,8,0,0,0,659.55,949.3Zm19.93,19.93a8,8,0,1,0,8,8A8,8,0,0,0,679.48,969.23Zm19.93,19.93a8,8,0,1,0,8,8A8,8,0,0,0,699.41,989.16Zm19.93,19.93a8,8,0,1,0,8,8A8,8,0,0,0,719.34,1009.09ZM739.27,1029a8,8,0,1,0,8,8A8,8,0,0,0,739.27,1029Zm19.93,19.92a8,8,0,1,0,8,8A8,8,0,0,0,759.2,1048.94Zm19.93,19.93a8,8,0,1,0,8,8A8,8,0,0,0,779.13,1068.87Zm19.93,19.93a8,8,0,1,0,8,8A8,8,0,0,0,799.06,1088.8ZM819,1108.73a8,8,0,1,0,8,8A8,8,0,0,0,819,1108.73Zm19.93,19.93a8,8,0,1,0,8,8A8,8,0,0,0,838.92,1128.66Zm19.93,19.93a8,8,0,1,0,8,8A8,8,0,0,0,858.85,1148.59Zm19.92,19.93a8,8,0,1,0,8,8A8,8,0,0,0,878.77,1168.52Zm19.93,19.93a8,8,0,1,0,8,8A8,8,0,0,0,898.7,1188.45Zm-876.88-837a8,8,0,1,0,8,8A8,8,0,0,0,21.82,351.42Zm19.93,19.93a8,8,0,1,0,8,8A8,8,0,0,0,41.75,371.35Zm19.93,19.93a8,8,0,1,0,8,8A8,8,0,0,0,61.68,391.28Zm19.93,19.93a8,8,0,1,0,8,8A8,8,0,0,0,81.61,411.21Zm19.93,19.93a8,8,0,1,0,8,8A8,8,0,0,0,101.54,431.14Zm19.93,19.93a8,8,0,1,0,8,8A8,8,0,0,0,121.47,451.07ZM141.4,471a8,8,0,1,0,8,8A8,8,0,0,0,141.4,471Zm19.93,19.93a8,8,0,1,0,8,8A8,8,0,0,0,161.33,490.93Zm19.92,19.93a8,8,0,1,0,8,8A8,8,0,0,0,181.25,510.86Zm19.93,19.93a8,8,0,1,0,8,8A8,8,0,0,0,201.18,530.79Zm19.93,19.93a8,8,0,1,0,8,8A8,8,0,0,0,221.11,550.72ZM241,570.65a8,8,0,1,0,8,8A8,8,0,0,0,241,570.65ZM261,590.57a8,8,0,1,0,8,8A8,8,0,0,0,261,590.57ZM280.9,610.5a8,8,0,1,0,8,8A8,8,0,0,0,280.9,610.5Zm19.93,19.93a8,8,0,1,0,8,8A8,8,0,0,0,300.83,630.43Zm19.93,19.93a8,8,0,1,0,8,8A8,8,0,0,0,320.76,650.36Zm19.93,19.93a8,8,0,1,0,8,8A8,8,0,0,0,340.69,670.29Zm19.93,19.93a8,8,0,1,0,8,8A8,8,0,0,0,360.62,690.22Zm19.93,19.93a8,8,0,1,0,8,8A8,8,0,0,0,380.55,710.15Zm19.93,19.93a8,8,0,1,0,8,8A8,8,0,0,0,400.48,730.08ZM420.4,750a8,8,0,1,0,8,8A8,8,0,0,0,420.4,750Zm19.93,19.93a8,8,0,1,0,8,8A8,8,0,0,0,440.33,769.94Zm19.93,19.93a8,8,0,1,0,8,8A8,8,0,0,0,460.26,789.87Zm19.93,19.92a8,8,0,1,0,8,8A8,8,0,0,0,480.19,809.79Zm19.93,19.93a8,8,0,1,0,8,8A8,8,0,0,0,500.12,829.72Zm19.93,19.93a8,8,0,1,0,8,8A8,8,0,0,0,520.05,849.65ZM540,869.58a8,8,0,1,0,8,8A8,8,0,0,0,540,869.58Zm19.93,19.93a8,8,0,1,0,8,8A8,8,0,0,0,559.91,889.51Zm19.93,19.93a8,8,0,1,0,8,8A8,8,0,0,0,579.84,909.44Zm19.93,19.93a8,8,0,1,0,8,8A8,8,0,0,0,599.77,929.37ZM619.7,949.3a8,8,0,1,0,8,8A8,8,0,0,0,619.7,949.3Zm19.92,19.93a8,8,0,1,0,8,8A8,8,0,0,0,639.62,969.23Zm19.93,19.93a8,8,0,1,0,8,8A8,8,0,0,0,659.55,989.16Zm19.93,19.93a8,8,0,1,0,8,8A8,8,0,0,0,679.48,1009.09ZM699.41,1029a8,8,0,1,0,8,8A8,8,0,0,0,699.41,1029Zm19.93,19.92a8,8,0,1,0,8,8A8,8,0,0,0,719.34,1048.94Zm19.93,19.93a8,8,0,1,0,8,8A8,8,0,0,0,739.27,1068.87Zm19.93,19.93a8,8,0,1,0,8,8A8,8,0,0,0,759.2,1088.8Zm19.93,19.93a8,8,0,1,0,8,8A8,8,0,0,0,779.13,1108.73Zm19.93,19.93a8,8,0,1,0,8,8A8,8,0,0,0,799.06,1128.66ZM819,1148.59a8,8,0,1,0,8,8A8,8,0,0,0,819,1148.59Zm19.93,19.93a8,8,0,1,0,8,8A8,8,0,0,0,838.92,1168.52Zm19.93,19.93a8,8,0,1,0,8,8A8,8,0,0,0,858.85,1188.45Zm-837-797.17a8,8,0,1,0,8,8A8,8,0,0,0,21.82,391.28Zm19.93,19.93a8,8,0,1,0,8,8A8,8,0,0,0,41.75,411.21Zm19.93,19.93a8,8,0,1,0,8,8A8,8,0,0,0,61.68,431.14Zm19.93,19.93a8,8,0,1,0,8,8A8,8,0,0,0,81.61,451.07ZM101.54,471a8,8,0,1,0,8,8A8,8,0,0,0,101.54,471Zm19.93,19.93a8,8,0,1,0,8,8A8,8,0,0,0,121.47,490.93Zm19.93,19.93a8,8,0,1,0,8,8A8,8,0,0,0,141.4,510.86Zm19.93,19.93a8,8,0,1,0,8,8A8,8,0,0,0,161.33,530.79Zm19.92,19.93a8,8,0,1,0,8,8A8,8,0,0,0,181.25,550.72Zm19.93,19.93a8,8,0,1,0,8,8A8,8,0,0,0,201.18,570.65Zm19.93,19.92a8,8,0,1,0,8,8A8,8,0,0,0,221.11,590.57ZM241,610.5a8,8,0,1,0,8,8A8,8,0,0,0,241,610.5ZM261,630.43a8,8,0,1,0,8,8A8,8,0,0,0,261,630.43Zm19.93,19.93a8,8,0,1,0,8,8A8,8,0,0,0,280.9,650.36Zm19.93,19.93a8,8,0,1,0,8,8A8,8,0,0,0,300.83,670.29Zm19.93,19.93a8,8,0,1,0,8,8A8,8,0,0,0,320.76,690.22Zm19.93,19.93a8,8,0,1,0,8,8A8,8,0,0,0,340.69,710.15Zm19.93,19.93a8,8,0,1,0,8,8A8,8,0,0,0,360.62,730.08ZM380.55,750a8,8,0,1,0,8,8A8,8,0,0,0,380.55,750Zm19.93,19.93a8,8,0,1,0,8,8A8,8,0,0,0,400.48,769.94Zm19.92,19.93a8,8,0,1,0,8,8A8,8,0,0,0,420.4,789.87Zm19.93,19.92a8,8,0,1,0,8,8A8,8,0,0,0,440.33,809.79Zm19.93,19.93a8,8,0,1,0,8,8A8,8,0,0,0,460.26,829.72Zm19.93,19.93a8,8,0,1,0,8,8A8,8,0,0,0,480.19,849.65Zm19.93,19.93a8,8,0,1,0,8,8A8,8,0,0,0,500.12,869.58Zm19.93,19.93a8,8,0,1,0,8,8A8,8,0,0,0,520.05,889.51ZM540,909.44a8,8,0,1,0,8,8A8,8,0,0,0,540,909.44Zm19.93,19.93a8,8,0,1,0,8,8A8,8,0,0,0,559.91,929.37Zm19.93,19.93a8,8,0,1,0,8,8A8,8,0,0,0,579.84,949.3Zm19.93,19.93a8,8,0,1,0,8,8A8,8,0,0,0,599.77,969.23Zm19.93,19.93a8,8,0,1,0,8,8A8,8,0,0,0,619.7,989.16Zm19.92,19.93a8,8,0,1,0,8,8A8,8,0,0,0,639.62,1009.09ZM659.55,1029a8,8,0,1,0,8,8A8,8,0,0,0,659.55,1029Zm19.93,19.92a8,8,0,1,0,8,8A8,8,0,0,0,679.48,1048.94Zm19.93,19.93a8,8,0,1,0,8,8A8,8,0,0,0,699.41,1068.87Zm19.93,19.93a8,8,0,1,0,8,8A8,8,0,0,0,719.34,1088.8Zm19.93,19.93a8,8,0,1,0,8,8A8,8,0,0,0,739.27,1108.73Zm19.93,19.93a8,8,0,1,0,8,8A8,8,0,0,0,759.2,1128.66Zm19.93,19.93a8,8,0,1,0,8,8A8,8,0,0,0,779.13,1148.59Zm19.93,19.93a8,8,0,1,0,8,8A8,8,0,0,0,799.06,1168.52ZM819,1188.45a8,8,0,1,0,8,8A8,8,0,0,0,819,1188.45ZM21.82,431.14a8,8,0,1,0,8,8A8,8,0,0,0,21.82,431.14Zm19.93,19.93a8,8,0,1,0,8,8A8,8,0,0,0,41.75,451.07ZM61.68,471a8,8,0,1,0,8,8A8,8,0,0,0,61.68,471Zm19.93,19.93a8,8,0,1,0,8,8A8,8,0,0,0,81.61,490.93Zm19.93,19.93a8,8,0,1,0,8,8A8,8,0,0,0,101.54,510.86Zm19.93,19.93a8,8,0,1,0,8,8A8,8,0,0,0,121.47,530.79Zm19.93,19.93a8,8,0,1,0,8,8A8,8,0,0,0,141.4,550.72Zm19.93,19.93a8,8,0,1,0,8,8A8,8,0,0,0,161.33,570.65Zm19.92,19.92a8,8,0,1,0,8,8A8,8,0,0,0,181.25,590.57Zm19.93,19.93a8,8,0,1,0,8,8A8,8,0,0,0,201.18,610.5Zm19.93,19.93a8,8,0,1,0,8,8A8,8,0,0,0,221.11,630.43ZM241,650.36a8,8,0,1,0,8,8A8,8,0,0,0,241,650.36ZM261,670.29a8,8,0,1,0,8,8A8,8,0,0,0,261,670.29Zm19.93,19.93a8,8,0,1,0,8,8A8,8,0,0,0,280.9,690.22Zm19.93,19.93a8,8,0,1,0,8,8A8,8,0,0,0,300.83,710.15Zm19.93,19.93a8,8,0,1,0,8,8A8,8,0,0,0,320.76,730.08ZM340.69,750a8,8,0,1,0,8,8A8,8,0,0,0,340.69,750Zm19.93,19.93a8,8,0,1,0,8,8A8,8,0,0,0,360.62,769.94Zm19.93,19.93a8,8,0,1,0,8,8A8,8,0,0,0,380.55,789.87Zm19.93,19.92a8,8,0,1,0,8,8A8,8,0,0,0,400.48,809.79Zm19.92,19.93a8,8,0,1,0,8,8A8,8,0,0,0,420.4,829.72Zm19.93,19.93a8,8,0,1,0,8,8A8,8,0,0,0,440.33,849.65Zm19.93,19.93a8,8,0,1,0,8,8A8,8,0,0,0,460.26,869.58Zm19.93,19.93a8,8,0,1,0,8,8A8,8,0,0,0,480.19,889.51Zm19.93,19.93a8,8,0,1,0,8,8A8,8,0,0,0,500.12,909.44Zm19.93,19.93a8,8,0,1,0,8,8A8,8,0,0,0,520.05,929.37ZM540,949.3a8,8,0,1,0,8,8A8,8,0,0,0,540,949.3Zm19.93,19.93a8,8,0,1,0,8,8A8,8,0,0,0,559.91,969.23Zm19.93,19.93a8,8,0,1,0,8,8A8,8,0,0,0,579.84,989.16Zm19.93,19.93a8,8,0,1,0,8,8A8,8,0,0,0,599.77,1009.09ZM619.7,1029a8,8,0,1,0,8,8A8,8,0,0,0,619.7,1029Zm19.92,19.92a8,8,0,1,0,8,8A8,8,0,0,0,639.62,1048.94Zm19.93,19.93a8,8,0,1,0,8,8A8,8,0,0,0,659.55,1068.87Zm19.93,19.93a8,8,0,1,0,8,8A8,8,0,0,0,679.48,1088.8Zm19.93,19.93a8,8,0,1,0,8,8A8,8,0,0,0,699.41,1108.73Zm19.93,19.93a8,8,0,1,0,8,8A8,8,0,0,0,719.34,1128.66Zm19.93,19.93a8,8,0,1,0,8,8A8,8,0,0,0,739.27,1148.59Zm19.93,19.93a8,8,0,1,0,8,8A8,8,0,0,0,759.2,1168.52Zm19.93,19.93a8,8,0,1,0,8,8A8,8,0,0,0,779.13,1188.45ZM21.82,471a8,8,0,1,0,8,8A8,8,0,0,0,21.82,471Zm19.93,19.93a8,8,0,1,0,8,8A8,8,0,0,0,41.75,490.93Zm19.93,19.93a8,8,0,1,0,8,8A8,8,0,0,0,61.68,510.86Zm19.93,19.93a8,8,0,1,0,8,8A8,8,0,0,0,81.61,530.79Zm19.93,19.93a8,8,0,1,0,8,8A8,8,0,0,0,101.54,550.72Zm19.93,19.93a8,8,0,1,0,8,8A8,8,0,0,0,121.47,570.65Zm19.93,19.92a8,8,0,1,0,8,8A8,8,0,0,0,141.4,590.57Zm19.93,19.93a8,8,0,1,0,8,8A8,8,0,0,0,161.33,610.5Zm19.92,19.93a8,8,0,1,0,8,8A8,8,0,0,0,181.25,630.43Zm19.93,19.93a8,8,0,1,0,8,8A8,8,0,0,0,201.18,650.36Zm19.93,19.93a8,8,0,1,0,8,8A8,8,0,0,0,221.11,670.29ZM241,690.22a8,8,0,1,0,8,8A8,8,0,0,0,241,690.22ZM261,710.15a8,8,0,1,0,8,8A8,8,0,0,0,261,710.15Zm19.93,19.93a8,8,0,1,0,8,8A8,8,0,0,0,280.9,730.08ZM300.83,750a8,8,0,1,0,8,8A8,8,0,0,0,300.83,750Zm19.93,19.93a8,8,0,1,0,8,8A8,8,0,0,0,320.76,769.94Zm19.93,19.93a8,8,0,1,0,8,8A8,8,0,0,0,340.69,789.87Zm19.93,19.92a8,8,0,1,0,8,8A8,8,0,0,0,360.62,809.79Zm19.93,19.93a8,8,0,1,0,8,8A8,8,0,0,0,380.55,829.72Zm19.93,19.93a8,8,0,1,0,8,8A8,8,0,0,0,400.48,849.65Zm19.92,19.93a8,8,0,1,0,8,8A8,8,0,0,0,420.4,869.58Zm19.93,19.93a8,8,0,1,0,8,8A8,8,0,0,0,440.33,889.51Zm19.93,19.93a8,8,0,1,0,8,8A8,8,0,0,0,460.26,909.44Zm19.93,19.93a8,8,0,1,0,8,8A8,8,0,0,0,480.19,929.37Zm19.93,19.93a8,8,0,1,0,8,8A8,8,0,0,0,500.12,949.3Zm19.93,19.93a8,8,0,1,0,8,8A8,8,0,0,0,520.05,969.23ZM540,989.16a8,8,0,1,0,8,8A8,8,0,0,0,540,989.16Zm19.93,19.93a8,8,0,1,0,8,8A8,8,0,0,0,559.91,1009.09ZM579.84,1029a8,8,0,1,0,8,8A8,8,0,0,0,579.84,1029Zm19.93,19.92a8,8,0,1,0,8,8A8,8,0,0,0,599.77,1048.94Zm19.93,19.93a8,8,0,1,0,8,8A8,8,0,0,0,619.7,1068.87Zm19.92,19.93a8,8,0,1,0,8,8A8,8,0,0,0,639.62,1088.8Zm19.93,19.93a8,8,0,1,0,8,8A8,8,0,0,0,659.55,1108.73Zm19.93,19.93a8,8,0,1,0,8,8A8,8,0,0,0,679.48,1128.66Zm19.93,19.93a8,8,0,1,0,8,8A8,8,0,0,0,699.41,1148.59Zm19.93,19.93a8,8,0,1,0,8,8A8,8,0,0,0,719.34,1168.52Zm19.93,19.93a8,8,0,1,0,8,8A8,8,0,0,0,739.27,1188.45ZM21.82,510.86a8,8,0,1,0,8,8A8,8,0,0,0,21.82,510.86Zm19.93,19.93a8,8,0,1,0,8,8A8,8,0,0,0,41.75,530.79Zm19.93,19.93a8,8,0,1,0,8,8A8,8,0,0,0,61.68,550.72Zm19.93,19.93a8,8,0,1,0,8,8A8,8,0,0,0,81.61,570.65Zm19.93,19.92a8,8,0,1,0,8,8A8,8,0,0,0,101.54,590.57Zm19.93,19.93a8,8,0,1,0,8,8A8,8,0,0,0,121.47,610.5Zm19.93,19.93a8,8,0,1,0,8,8A8,8,0,0,0,141.4,630.43Zm19.93,19.93a8,8,0,1,0,8,8A8,8,0,0,0,161.33,650.36Zm19.92,19.93a8,8,0,1,0,8,8A8,8,0,0,0,181.25,670.29Zm19.93,19.93a8,8,0,1,0,8,8A8,8,0,0,0,201.18,690.22Zm19.93,19.93a8,8,0,1,0,8,8A8,8,0,0,0,221.11,710.15ZM241,730.08a8,8,0,1,0,8,8A8,8,0,0,0,241,730.08ZM261,750a8,8,0,1,0,8,8A8,8,0,0,0,261,750Zm19.93,19.93a8,8,0,1,0,8,8A8,8,0,0,0,280.9,769.94Zm19.93,19.93a8,8,0,1,0,8,8A8,8,0,0,0,300.83,789.87Zm19.93,19.92a8,8,0,1,0,8,8A8,8,0,0,0,320.76,809.79Zm19.93,19.93a8,8,0,1,0,8,8A8,8,0,0,0,340.69,829.72Zm19.93,19.93a8,8,0,1,0,8,8A8,8,0,0,0,360.62,849.65Zm19.93,19.93a8,8,0,1,0,8,8A8,8,0,0,0,380.55,869.58Zm19.93,19.93a8,8,0,1,0,8,8A8,8,0,0,0,400.48,889.51Zm19.92,19.93a8,8,0,1,0,8,8A8,8,0,0,0,420.4,909.44Zm19.93,19.93a8,8,0,1,0,8,8A8,8,0,0,0,440.33,929.37Zm19.93,19.93a8,8,0,1,0,8,8A8,8,0,0,0,460.26,949.3Zm19.93,19.93a8,8,0,1,0,8,8A8,8,0,0,0,480.19,969.23Zm19.93,19.93a8,8,0,1,0,8,8A8,8,0,0,0,500.12,989.16Zm19.93,19.93a8,8,0,1,0,8,8A8,8,0,0,0,520.05,1009.09ZM540,1029a8,8,0,1,0,8,8A8,8,0,0,0,540,1029Zm19.93,19.92a8,8,0,1,0,8,8A8,8,0,0,0,559.91,1048.94Zm19.93,19.93a8,8,0,1,0,8,8A8,8,0,0,0,579.84,1068.87Zm19.93,19.93a8,8,0,1,0,8,8A8,8,0,0,0,599.77,1088.8Zm19.93,19.93a8,8,0,1,0,8,8A8,8,0,0,0,619.7,1108.73Zm19.92,19.93a8,8,0,1,0,8,8A8,8,0,0,0,639.62,1128.66Zm19.93,19.93a8,8,0,1,0,8,8A8,8,0,0,0,659.55,1148.59Zm19.93,19.93a8,8,0,1,0,8,8A8,8,0,0,0,679.48,1168.52Zm19.93,19.93a8,8,0,1,0,8,8A8,8,0,0,0,699.41,1188.45ZM21.82,550.72a8,8,0,1,0,8,8A8,8,0,0,0,21.82,550.72Zm19.93,19.93a8,8,0,1,0,8,8A8,8,0,0,0,41.75,570.65Zm19.93,19.92a8,8,0,1,0,8,8A8,8,0,0,0,61.68,590.57ZM81.61,610.5a8,8,0,1,0,8,8A8,8,0,0,0,81.61,610.5Zm19.93,19.93a8,8,0,1,0,8,8A8,8,0,0,0,101.54,630.43Zm19.93,19.93a8,8,0,1,0,8,8A8,8,0,0,0,121.47,650.36Zm19.93,19.93a8,8,0,1,0,8,8A8,8,0,0,0,141.4,670.29Zm19.93,19.93a8,8,0,1,0,8,8A8,8,0,0,0,161.33,690.22Zm19.92,19.93a8,8,0,1,0,8,8A8,8,0,0,0,181.25,710.15Zm19.93,19.93a8,8,0,1,0,8,8A8,8,0,0,0,201.18,730.08ZM221.11,750a8,8,0,1,0,8,8A8,8,0,0,0,221.11,750ZM241,769.94a8,8,0,1,0,8,8A8,8,0,0,0,241,769.94ZM261,789.87a8,8,0,1,0,8,8A8,8,0,0,0,261,789.87Zm19.93,19.92a8,8,0,1,0,8,8A8,8,0,0,0,280.9,809.79Zm19.93,19.93a8,8,0,1,0,8,8A8,8,0,0,0,300.83,829.72Zm19.93,19.93a8,8,0,1,0,8,8A8,8,0,0,0,320.76,849.65Zm19.93,19.93a8,8,0,1,0,8,8A8,8,0,0,0,340.69,869.58Zm19.93,19.93a8,8,0,1,0,8,8A8,8,0,0,0,360.62,889.51Zm19.93,19.93a8,8,0,1,0,8,8A8,8,0,0,0,380.55,909.44Zm19.93,19.93a8,8,0,1,0,8,8A8,8,0,0,0,400.48,929.37ZM420.4,949.3a8,8,0,1,0,8,8A8,8,0,0,0,420.4,949.3Zm19.93,19.93a8,8,0,1,0,8,8A8,8,0,0,0,440.33,969.23Zm19.93,19.93a8,8,0,1,0,8,8A8,8,0,0,0,460.26,989.16Zm19.93,19.93a8,8,0,1,0,8,8A8,8,0,0,0,480.19,1009.09ZM500.12,1029a8,8,0,1,0,8,8A8,8,0,0,0,500.12,1029Zm19.93,19.92a8,8,0,1,0,8,8A8,8,0,0,0,520.05,1048.94ZM540,1068.87a8,8,0,1,0,8,8A8,8,0,0,0,540,1068.87Zm19.93,19.93a8,8,0,1,0,8,8A8,8,0,0,0,559.91,1088.8Zm19.93,19.93a8,8,0,1,0,8,8A8,8,0,0,0,579.84,1108.73Zm19.93,19.93a8,8,0,1,0,8,8A8,8,0,0,0,599.77,1128.66Zm19.93,19.93a8,8,0,1,0,8,8A8,8,0,0,0,619.7,1148.59Zm19.92,19.93a8,8,0,1,0,8,8A8,8,0,0,0,639.62,1168.52Zm19.93,19.93a8,8,0,1,0,8,8A8,8,0,0,0,659.55,1188.45ZM21.82,590.57a8,8,0,1,0,8,8A8,8,0,0,0,21.82,590.57ZM41.75,610.5a8,8,0,1,0,8,8A8,8,0,0,0,41.75,610.5Zm19.93,19.93a8,8,0,1,0,8,8A8,8,0,0,0,61.68,630.43Zm19.93,19.93a8,8,0,1,0,8,8A8,8,0,0,0,81.61,650.36Zm19.93,19.93a8,8,0,1,0,8,8A8,8,0,0,0,101.54,670.29Zm19.93,19.93a8,8,0,1,0,8,8A8,8,0,0,0,121.47,690.22Zm19.93,19.93a8,8,0,1,0,8,8A8,8,0,0,0,141.4,710.15Zm19.93,19.93a8,8,0,1,0,8,8A8,8,0,0,0,161.33,730.08ZM181.25,750a8,8,0,1,0,8,8A8,8,0,0,0,181.25,750Zm19.93,19.93a8,8,0,1,0,8,8A8,8,0,0,0,201.18,769.94Zm19.93,19.93a8,8,0,1,0,8,8A8,8,0,0,0,221.11,789.87ZM241,809.79a8,8,0,1,0,8,8A8,8,0,0,0,241,809.79ZM261,829.72a8,8,0,1,0,8,8A8,8,0,0,0,261,829.72Zm19.93,19.93a8,8,0,1,0,8,8A8,8,0,0,0,280.9,849.65Zm19.93,19.93a8,8,0,1,0,8,8A8,8,0,0,0,300.83,869.58Zm19.93,19.93a8,8,0,1,0,8,8A8,8,0,0,0,320.76,889.51Zm19.93,19.93a8,8,0,1,0,8,8A8,8,0,0,0,340.69,909.44Zm19.93,19.93a8,8,0,1,0,8,8A8,8,0,0,0,360.62,929.37Zm19.93,19.93a8,8,0,1,0,8,8A8,8,0,0,0,380.55,949.3Zm19.93,19.93a8,8,0,1,0,8,8A8,8,0,0,0,400.48,969.23Zm19.92,19.93a8,8,0,1,0,8,8A8,8,0,0,0,420.4,989.16Zm19.93,19.93a8,8,0,1,0,8,8A8,8,0,0,0,440.33,1009.09ZM460.26,1029a8,8,0,1,0,8,8A8,8,0,0,0,460.26,1029Zm19.93,19.92a8,8,0,1,0,8,8A8,8,0,0,0,480.19,1048.94Zm19.93,19.93a8,8,0,1,0,8,8A8,8,0,0,0,500.12,1068.87Zm19.93,19.93a8,8,0,1,0,8,8A8,8,0,0,0,520.05,1088.8ZM540,1108.73a8,8,0,1,0,8,8A8,8,0,0,0,540,1108.73Zm19.93,19.93a8,8,0,1,0,8,8A8,8,0,0,0,559.91,1128.66Zm19.93,19.93a8,8,0,1,0,8,8A8,8,0,0,0,579.84,1148.59Zm19.93,19.93a8,8,0,1,0,8,8A8,8,0,0,0,599.77,1168.52Zm19.93,19.93a8,8,0,1,0,8,8A8,8,0,0,0,619.7,1188.45Zm-597.88-558a8,8,0,1,0,8,8A8,8,0,0,0,21.82,630.43Zm19.93,19.93a8,8,0,1,0,8,8A8,8,0,0,0,41.75,650.36Zm19.93,19.93a8,8,0,1,0,8,8A8,8,0,0,0,61.68,670.29Zm19.93,19.93a8,8,0,1,0,8,8A8,8,0,0,0,81.61,690.22Zm19.93,19.93a8,8,0,1,0,8,8A8,8,0,0,0,101.54,710.15Zm19.93,19.93a8,8,0,1,0,8,8A8,8,0,0,0,121.47,730.08ZM141.4,750a8,8,0,1,0,8,8A8,8,0,0,0,141.4,750Zm19.93,19.93a8,8,0,1,0,8,8A8,8,0,0,0,161.33,769.94Zm19.92,19.93a8,8,0,1,0,8,8A8,8,0,0,0,181.25,789.87Zm19.93,19.92a8,8,0,1,0,8,8A8,8,0,0,0,201.18,809.79Zm19.93,19.93a8,8,0,1,0,8,8A8,8,0,0,0,221.11,829.72ZM241,849.65a8,8,0,1,0,8,8A8,8,0,0,0,241,849.65ZM261,869.58a8,8,0,1,0,8,8A8,8,0,0,0,261,869.58Zm19.93,19.93a8,8,0,1,0,8,8A8,8,0,0,0,280.9,889.51Zm19.93,19.93a8,8,0,1,0,8,8A8,8,0,0,0,300.83,909.44Zm19.93,19.93a8,8,0,1,0,8,8A8,8,0,0,0,320.76,929.37Zm19.93,19.93a8,8,0,1,0,8,8A8,8,0,0,0,340.69,949.3Zm19.93,19.93a8,8,0,1,0,8,8A8,8,0,0,0,360.62,969.23Zm19.93,19.93a8,8,0,1,0,8,8A8,8,0,0,0,380.55,989.16Zm19.93,19.93a8,8,0,1,0,8,8A8,8,0,0,0,400.48,1009.09ZM420.4,1029a8,8,0,1,0,8,8A8,8,0,0,0,420.4,1029Zm19.93,19.92a8,8,0,1,0,8,8A8,8,0,0,0,440.33,1048.94Zm19.93,19.93a8,8,0,1,0,8,8A8,8,0,0,0,460.26,1068.87Zm19.93,19.93a8,8,0,1,0,8,8A8,8,0,0,0,480.19,1088.8Zm19.93,19.93a8,8,0,1,0,8,8A8,8,0,0,0,500.12,1108.73Zm19.93,19.93a8,8,0,1,0,8,8A8,8,0,0,0,520.05,1128.66ZM540,1148.59a8,8,0,1,0,8,8A8,8,0,0,0,540,1148.59Zm19.93,19.93a8,8,0,1,0,8,8A8,8,0,0,0,559.91,1168.52Zm19.93,19.93a8,8,0,1,0,8,8A8,8,0,0,0,579.84,1188.45Zm-558-518.16a8,8,0,1,0,8,8A8,8,0,0,0,21.82,670.29Zm19.93,19.93a8,8,0,1,0,8,8A8,8,0,0,0,41.75,690.22Zm19.93,19.93a8,8,0,1,0,8,8A8,8,0,0,0,61.68,710.15Zm19.93,19.93a8,8,0,1,0,8,8A8,8,0,0,0,81.61,730.08ZM101.54,750a8,8,0,1,0,8,8A8,8,0,0,0,101.54,750Zm19.93,19.93a8,8,0,1,0,8,8A8,8,0,0,0,121.47,769.94Zm19.93,19.93a8,8,0,1,0,8,8A8,8,0,0,0,141.4,789.87Zm19.93,19.92a8,8,0,1,0,8,8A8,8,0,0,0,161.33,809.79Zm19.92,19.93a8,8,0,1,0,8,8A8,8,0,0,0,181.25,829.72Zm19.93,19.93a8,8,0,1,0,8,8A8,8,0,0,0,201.18,849.65Zm19.93,19.93a8,8,0,1,0,8,8A8,8,0,0,0,221.11,869.58ZM241,889.51a8,8,0,1,0,8,8A8,8,0,0,0,241,889.51ZM261,909.44a8,8,0,1,0,8,8A8,8,0,0,0,261,909.44Zm19.93,19.93a8,8,0,1,0,8,8A8,8,0,0,0,280.9,929.37Zm19.93,19.93a8,8,0,1,0,8,8A8,8,0,0,0,300.83,949.3Zm19.93,19.93a8,8,0,1,0,8,8A8,8,0,0,0,320.76,969.23Zm19.93,19.93a8,8,0,1,0,8,8A8,8,0,0,0,340.69,989.16Zm19.93,19.93a8,8,0,1,0,8,8A8,8,0,0,0,360.62,1009.09ZM380.55,1029a8,8,0,1,0,8,8A8,8,0,0,0,380.55,1029Zm19.93,19.92a8,8,0,1,0,8,8A8,8,0,0,0,400.48,1048.94Zm19.92,19.93a8,8,0,1,0,8,8A8,8,0,0,0,420.4,1068.87Zm19.93,19.93a8,8,0,1,0,8,8A8,8,0,0,0,440.33,1088.8Zm19.93,19.93a8,8,0,1,0,8,8A8,8,0,0,0,460.26,1108.73Zm19.93,19.93a8,8,0,1,0,8,8A8,8,0,0,0,480.19,1128.66Zm19.93,19.93a8,8,0,1,0,8,8A8,8,0,0,0,500.12,1148.59Zm19.93,19.93a8,8,0,1,0,8,8A8,8,0,0,0,520.05,1168.52ZM540,1188.45a8,8,0,1,0,8,8A8,8,0,0,0,540,1188.45ZM21.82,710.15a8,8,0,1,0,8,8A8,8,0,0,0,21.82,710.15Zm19.93,19.93a8,8,0,1,0,8,8A8,8,0,0,0,41.75,730.08ZM61.68,750a8,8,0,1,0,8,8A8,8,0,0,0,61.68,750Zm19.93,19.93a8,8,0,1,0,8,8A8,8,0,0,0,81.61,769.94Zm19.93,19.93a8,8,0,1,0,8,8A8,8,0,0,0,101.54,789.87Zm19.93,19.92a8,8,0,1,0,8,8A8,8,0,0,0,121.47,809.79Zm19.93,19.93a8,8,0,1,0,8,8A8,8,0,0,0,141.4,829.72Zm19.93,19.93a8,8,0,1,0,8,8A8,8,0,0,0,161.33,849.65Zm19.92,19.93a8,8,0,1,0,8,8A8,8,0,0,0,181.25,869.58Zm19.93,19.93a8,8,0,1,0,8,8A8,8,0,0,0,201.18,889.51Zm19.93,19.93a8,8,0,1,0,8,8A8,8,0,0,0,221.11,909.44ZM241,929.37a8,8,0,1,0,8,8A8,8,0,0,0,241,929.37ZM261,949.3a8,8,0,1,0,8,8A8,8,0,0,0,261,949.3Zm19.93,19.93a8,8,0,1,0,8,8A8,8,0,0,0,280.9,969.23Zm19.93,19.93a8,8,0,1,0,8,8A8,8,0,0,0,300.83,989.16Zm19.93,19.93a8,8,0,1,0,8,8A8,8,0,0,0,320.76,1009.09ZM340.69,1029a8,8,0,1,0,8,8A8,8,0,0,0,340.69,1029Zm19.93,19.92a8,8,0,1,0,8,8A8,8,0,0,0,360.62,1048.94Zm19.93,19.93a8,8,0,1,0,8,8A8,8,0,0,0,380.55,1068.87Zm19.93,19.93a8,8,0,1,0,8,8A8,8,0,0,0,400.48,1088.8Zm19.92,19.93a8,8,0,1,0,8,8A8,8,0,0,0,420.4,1108.73Zm19.93,19.93a8,8,0,1,0,8,8A8,8,0,0,0,440.33,1128.66Zm19.93,19.93a8,8,0,1,0,8,8A8,8,0,0,0,460.26,1148.59Zm19.93,19.93a8,8,0,1,0,8,8A8,8,0,0,0,480.19,1168.52Zm19.93,19.93a8,8,0,1,0,8,8A8,8,0,0,0,500.12,1188.45ZM21.82,750a8,8,0,1,0,8,8A8,8,0,0,0,21.82,750Zm19.93,19.93a8,8,0,1,0,8,8A8,8,0,0,0,41.75,769.94Zm19.93,19.93a8,8,0,1,0,8,8A8,8,0,0,0,61.68,789.87Zm19.93,19.92a8,8,0,1,0,8,8A8,8,0,0,0,81.61,809.79Zm19.93,19.93a8,8,0,1,0,8,8A8,8,0,0,0,101.54,829.72Zm19.93,19.93a8,8,0,1,0,8,8A8,8,0,0,0,121.47,849.65Zm19.93,19.93a8,8,0,1,0,8,8A8,8,0,0,0,141.4,869.58Zm19.93,19.93a8,8,0,1,0,8,8A8,8,0,0,0,161.33,889.51Zm19.92,19.93a8,8,0,1,0,8,8A8,8,0,0,0,181.25,909.44Zm19.93,19.93a8,8,0,1,0,8,8A8,8,0,0,0,201.18,929.37Zm19.93,19.93a8,8,0,1,0,8,8A8,8,0,0,0,221.11,949.3ZM241,969.23a8,8,0,1,0,8,8A8,8,0,0,0,241,969.23ZM261,989.16a8,8,0,1,0,8,8A8,8,0,0,0,261,989.16Zm19.93,19.93a8,8,0,1,0,8,8A8,8,0,0,0,280.9,1009.09ZM300.83,1029a8,8,0,1,0,8,8A8,8,0,0,0,300.83,1029Zm19.93,19.92a8,8,0,1,0,8,8A8,8,0,0,0,320.76,1048.94Zm19.93,19.93a8,8,0,1,0,8,8A8,8,0,0,0,340.69,1068.87Zm19.93,19.93a8,8,0,1,0,8,8A8,8,0,0,0,360.62,1088.8Zm19.93,19.93a8,8,0,1,0,8,8A8,8,0,0,0,380.55,1108.73Zm19.93,19.93a8,8,0,1,0,8,8A8,8,0,0,0,400.48,1128.66Zm19.92,19.93a8,8,0,1,0,8,8A8,8,0,0,0,420.4,1148.59Zm19.93,19.93a8,8,0,1,0,8,8A8,8,0,0,0,440.33,1168.52Zm19.93,19.93a8,8,0,1,0,8,8A8,8,0,0,0,460.26,1188.45ZM21.82,789.87a8,8,0,1,0,8,8A8,8,0,0,0,21.82,789.87Zm19.93,19.92a8,8,0,1,0,8,8A8,8,0,0,0,41.75,809.79Zm19.93,19.93a8,8,0,1,0,8,8A8,8,0,0,0,61.68,829.72Zm19.93,19.93a8,8,0,1,0,8,8A8,8,0,0,0,81.61,849.65Zm19.93,19.93a8,8,0,1,0,8,8A8,8,0,0,0,101.54,869.58Zm19.93,19.93a8,8,0,1,0,8,8A8,8,0,0,0,121.47,889.51Zm19.93,19.93a8,8,0,1,0,8,8A8,8,0,0,0,141.4,909.44Zm19.93,19.93a8,8,0,1,0,8,8A8,8,0,0,0,161.33,929.37Zm19.92,19.93a8,8,0,1,0,8,8A8,8,0,0,0,181.25,949.3Zm19.93,19.93a8,8,0,1,0,8,8A8,8,0,0,0,201.18,969.23Zm19.93,19.93a8,8,0,1,0,8,8A8,8,0,0,0,221.11,989.16ZM241,1009.09a8,8,0,1,0,8,8A8,8,0,0,0,241,1009.09ZM261,1029a8,8,0,1,0,8,8A8,8,0,0,0,261,1029Zm19.93,19.92a8,8,0,1,0,8,8A8,8,0,0,0,280.9,1048.94Zm19.93,19.93a8,8,0,1,0,8,8A8,8,0,0,0,300.83,1068.87Zm19.93,19.93a8,8,0,1,0,8,8A8,8,0,0,0,320.76,1088.8Zm19.93,19.93a8,8,0,1,0,8,8A8,8,0,0,0,340.69,1108.73Zm19.93,19.93a8,8,0,1,0,8,8A8,8,0,0,0,360.62,1128.66Zm19.93,19.93a8,8,0,1,0,8,8A8,8,0,0,0,380.55,1148.59Zm19.93,19.93a8,8,0,1,0,8,8A8,8,0,0,0,400.48,1168.52Zm19.92,19.93a8,8,0,1,0,8,8A8,8,0,0,0,420.4,1188.45ZM21.82,829.72a8,8,0,1,0,8,8A8,8,0,0,0,21.82,829.72Zm19.93,19.93a8,8,0,1,0,8,8A8,8,0,0,0,41.75,849.65Zm19.93,19.93a8,8,0,1,0,8,8A8,8,0,0,0,61.68,869.58Zm19.93,19.93a8,8,0,1,0,8,8A8,8,0,0,0,81.61,889.51Zm19.93,19.93a8,8,0,1,0,8,8A8,8,0,0,0,101.54,909.44Zm19.93,19.93a8,8,0,1,0,8,8A8,8,0,0,0,121.47,929.37ZM141.4,949.3a8,8,0,1,0,8,8A8,8,0,0,0,141.4,949.3Zm19.93,19.93a8,8,0,1,0,8,8A8,8,0,0,0,161.33,969.23Zm19.92,19.93a8,8,0,1,0,8,8A8,8,0,0,0,181.25,989.16Zm19.93,19.93a8,8,0,1,0,8,8A8,8,0,0,0,201.18,1009.09ZM221.11,1029a8,8,0,1,0,8,8A8,8,0,0,0,221.11,1029ZM241,1048.94a8,8,0,1,0,8,8A8,8,0,0,0,241,1048.94ZM261,1068.87a8,8,0,1,0,8,8A8,8,0,0,0,261,1068.87Zm19.93,19.93a8,8,0,1,0,8,8A8,8,0,0,0,280.9,1088.8Zm19.93,19.93a8,8,0,1,0,8,8A8,8,0,0,0,300.83,1108.73Zm19.93,19.93a8,8,0,1,0,8,8A8,8,0,0,0,320.76,1128.66Zm19.93,19.93a8,8,0,1,0,8,8A8,8,0,0,0,340.69,1148.59Zm19.93,19.93a8,8,0,1,0,8,8A8,8,0,0,0,360.62,1168.52Zm19.93,19.93a8,8,0,1,0,8,8A8,8,0,0,0,380.55,1188.45ZM21.82,869.58a8,8,0,1,0,8,8A8,8,0,0,0,21.82,869.58Zm19.93,19.93a8,8,0,1,0,8,8A8,8,0,0,0,41.75,889.51Zm19.93,19.93a8,8,0,1,0,8,8A8,8,0,0,0,61.68,909.44Zm19.93,19.93a8,8,0,1,0,8,8A8,8,0,0,0,81.61,929.37Zm19.93,19.93a8,8,0,1,0,8,8A8,8,0,0,0,101.54,949.3Zm19.93,19.93a8,8,0,1,0,8,8A8,8,0,0,0,121.47,969.23Zm19.93,19.93a8,8,0,1,0,8,8A8,8,0,0,0,141.4,989.16Zm19.93,19.93a8,8,0,1,0,8,8A8,8,0,0,0,161.33,1009.09ZM181.25,1029a8,8,0,1,0,8,8A8,8,0,0,0,181.25,1029Zm19.93,19.92a8,8,0,1,0,8,8A8,8,0,0,0,201.18,1048.94Zm19.93,19.93a8,8,0,1,0,8,8A8,8,0,0,0,221.11,1068.87ZM241,1088.8a8,8,0,1,0,8,8A8,8,0,0,0,241,1088.8ZM261,1108.73a8,8,0,1,0,8,8A8,8,0,0,0,261,1108.73Zm19.93,19.93a8,8,0,1,0,8,8A8,8,0,0,0,280.9,1128.66Zm19.93,19.93a8,8,0,1,0,8,8A8,8,0,0,0,300.83,1148.59Zm19.93,19.93a8,8,0,1,0,8,8A8,8,0,0,0,320.76,1168.52Zm19.93,19.93a8,8,0,1,0,8,8A8,8,0,0,0,340.69,1188.45Zm-318.87-279a8,8,0,1,0,8,8A8,8,0,0,0,21.82,909.44Zm19.93,19.93a8,8,0,1,0,8,8A8,8,0,0,0,41.75,929.37ZM61.68,949.3a8,8,0,1,0,8,8A8,8,0,0,0,61.68,949.3Zm19.93,19.93a8,8,0,1,0,8,8A8,8,0,0,0,81.61,969.23Zm19.93,19.93a8,8,0,1,0,8,8A8,8,0,0,0,101.54,989.16Zm19.93,19.93a8,8,0,1,0,8,8A8,8,0,0,0,121.47,1009.09ZM141.4,1029a8,8,0,1,0,8,8A8,8,0,0,0,141.4,1029Zm19.93,19.92a8,8,0,1,0,8,8A8,8,0,0,0,161.33,1048.94Zm19.92,19.93a8,8,0,1,0,8,8A8,8,0,0,0,181.25,1068.87Zm19.93,19.93a8,8,0,1,0,8,8A8,8,0,0,0,201.18,1088.8Zm19.93,19.93a8,8,0,1,0,8,8A8,8,0,0,0,221.11,1108.73ZM241,1128.66a8,8,0,1,0,8,8A8,8,0,0,0,241,1128.66ZM261,1148.59a8,8,0,1,0,8,8A8,8,0,0,0,261,1148.59Zm19.93,19.93a8,8,0,1,0,8,8A8,8,0,0,0,280.9,1168.52Zm19.93,19.93a8,8,0,1,0,8,8A8,8,0,0,0,300.83,1188.45ZM21.82,949.3a8,8,0,1,0,8,8A8,8,0,0,0,21.82,949.3Zm19.93,19.93a8,8,0,1,0,8,8A8,8,0,0,0,41.75,969.23Zm19.93,19.93a8,8,0,1,0,8,8A8,8,0,0,0,61.68,989.16Zm19.93,19.93a8,8,0,1,0,8,8A8,8,0,0,0,81.61,1009.09ZM101.54,1029a8,8,0,1,0,8,8A8,8,0,0,0,101.54,1029Zm19.93,19.92a8,8,0,1,0,8,8A8,8,0,0,0,121.47,1048.94Zm19.93,19.93a8,8,0,1,0,8,8A8,8,0,0,0,141.4,1068.87Zm19.93,19.93a8,8,0,1,0,8,8A8,8,0,0,0,161.33,1088.8Zm19.92,19.93a8,8,0,1,0,8,8A8,8,0,0,0,181.25,1108.73Zm19.93,19.93a8,8,0,1,0,8,8A8,8,0,0,0,201.18,1128.66Zm19.93,19.93a8,8,0,1,0,8,8A8,8,0,0,0,221.11,1148.59ZM241,1168.52a8,8,0,1,0,8,8A8,8,0,0,0,241,1168.52ZM261,1188.45a8,8,0,1,0,8,8A8,8,0,0,0,261,1188.45ZM21.82,989.16a8,8,0,1,0,8,8A8,8,0,0,0,21.82,989.16Zm19.93,19.93a8,8,0,1,0,8,8A8,8,0,0,0,41.75,1009.09ZM61.68,1029a8,8,0,1,0,8,8A8,8,0,0,0,61.68,1029Zm19.93,19.92a8,8,0,1,0,8,8A8,8,0,0,0,81.61,1048.94Zm19.93,19.93a8,8,0,1,0,8,8A8,8,0,0,0,101.54,1068.87Zm19.93,19.93a8,8,0,1,0,8,8A8,8,0,0,0,121.47,1088.8Zm19.93,19.93a8,8,0,1,0,8,8A8,8,0,0,0,141.4,1108.73Zm19.93,19.93a8,8,0,1,0,8,8A8,8,0,0,0,161.33,1128.66Zm19.92,19.93a8,8,0,1,0,8,8A8,8,0,0,0,181.25,1148.59Zm19.93,19.93a8,8,0,1,0,8,8A8,8,0,0,0,201.18,1168.52Zm19.93,19.93a8,8,0,1,0,8,8A8,8,0,0,0,221.11,1188.45ZM21.82,1029a8,8,0,1,0,8,8A8,8,0,0,0,21.82,1029Zm19.93,19.92a8,8,0,1,0,8,8A8,8,0,0,0,41.75,1048.94Zm19.93,19.93a8,8,0,1,0,8,8A8,8,0,0,0,61.68,1068.87Zm19.93,19.93a8,8,0,1,0,8,8A8,8,0,0,0,81.61,1088.8Zm19.93,19.93a8,8,0,1,0,8,8A8,8,0,0,0,101.54,1108.73Zm19.93,19.93a8,8,0,1,0,8,8A8,8,0,0,0,121.47,1128.66Zm19.93,19.93a8,8,0,1,0,8,8A8,8,0,0,0,141.4,1148.59Zm19.93,19.93a8,8,0,1,0,8,8A8,8,0,0,0,161.33,1168.52Zm19.92,19.93a8,8,0,1,0,8,8A8,8,0,0,0,181.25,1188.45ZM21.82,1068.87a8,8,0,1,0,8,8A8,8,0,0,0,21.82,1068.87Zm19.93,19.93a8,8,0,1,0,8,8A8,8,0,0,0,41.75,1088.8Zm19.93,19.93a8,8,0,1,0,8,8A8,8,0,0,0,61.68,1108.73Zm19.93,19.93a8,8,0,1,0,8,8A8,8,0,0,0,81.61,1128.66Zm19.93,19.93a8,8,0,1,0,8,8A8,8,0,0,0,101.54,1148.59Zm19.93,19.93a8,8,0,1,0,8,8A8,8,0,0,0,121.47,1168.52Zm19.93,19.93a8,8,0,1,0,8,8A8,8,0,0,0,141.4,1188.45ZM21.82,1108.73a8,8,0,1,0,8,8A8,8,0,0,0,21.82,1108.73Zm19.93,19.93a8,8,0,1,0,8,8A8,8,0,0,0,41.75,1128.66Zm19.93,19.93a8,8,0,1,0,8,8A8,8,0,0,0,61.68,1148.59Zm19.93,19.93a8,8,0,1,0,8,8A8,8,0,0,0,81.61,1168.52Zm19.93,19.93a8,8,0,1,0,8,8A8,8,0,0,0,101.54,1188.45Zm-79.72-39.86a8,8,0,1,0,8,8A8,8,0,0,0,21.82,1148.59Zm19.93,19.93a8,8,0,1,0,8,8A8,8,0,0,0,41.75,1168.52Zm19.93,19.93a8,8,0,1,0,8,8A8,8,0,0,0,61.68,1188.45Zm-39.86,0a8,8,0,1,0,8,8A8,8,0,0,0,21.82,1188.45Z"/></g></svg>