<svg xmlns="http://www.w3.org/2000/svg" xmlns:xlink="http://www.w3.org/1999/xlink" viewBox="0 0 1920 400"><defs><style>.cls-1{fill:none;}.cls-2{clip-path:url(#clip-path);}.cls-3{fill:#e05e05;}.cls-4{fill:#968d6e;}.cls-5{clip-path:url(#clip-path-2);}.cls-6{fill:#f2eddd;}.cls-7{fill:#cc1522;}</style><clipPath id="clip-path"><circle class="cls-1" cx="436.66" cy="197.74" r="73.24"/></clipPath><clipPath id="clip-path-2"><circle class="cls-1" cx="629.27" cy="197.74" r="73.24"/></clipPath></defs><g id="Layer_1" data-name="Layer 1"><g class="cls-2"><rect class="cls-3" x="291.15" y="137.35" width="206.64" height="4.11" transform="translate(16.96 319.76) rotate(-45)"/><rect class="cls-3" x="297.87" y="144.07" width="206.64" height="4.11" transform="translate(14.18 326.48) rotate(-45)"/><rect class="cls-3" x="304.59" y="150.79" width="206.64" height="4.11" transform="translate(11.39 333.2) rotate(-45)"/><rect class="cls-3" x="311.31" y="157.51" width="206.64" height="4.11" transform="translate(8.61 339.92) rotate(-45)"/><rect class="cls-3" x="318.03" y="164.23" width="206.64" height="4.11" transform="translate(5.83 346.64) rotate(-45)"/><rect class="cls-3" x="324.75" y="170.95" width="206.64" height="4.11" transform="translate(3.04 353.36) rotate(-45)"/><rect class="cls-3" x="331.47" y="177.67" width="206.64" height="4.11" transform="translate(0.26 360.08) rotate(-45)"/><rect class="cls-3" x="338.19" y="184.39" width="206.64" height="4.11" transform="translate(-2.52 366.8) rotate(-45)"/><rect class="cls-3" x="344.91" y="191.11" width="206.64" height="4.11" transform="translate(-5.31 373.52) rotate(-45)"/><rect class="cls-3" x="351.63" y="197.83" width="206.64" height="4.11" transform="translate(-8.09 380.24) rotate(-45)"/><rect class="cls-3" x="358.35" y="204.55" width="206.64" height="4.11" transform="translate(-10.87 386.96) rotate(-45)"/><rect class="cls-3" x="365.07" y="211.27" width="206.64" height="4.11" transform="translate(-13.66 393.68) rotate(-45)"/><rect class="cls-3" x="371.79" y="217.99" width="206.64" height="4.11" transform="translate(-16.44 400.4) rotate(-45)"/><rect class="cls-3" x="378.51" y="224.71" width="206.64" height="4.11" transform="translate(-19.22 407.12) rotate(-45)"/><rect class="cls-3" x="385.23" y="231.43" width="206.64" height="4.11" transform="translate(-22.01 413.84) rotate(-45)"/><rect class="cls-3" x="391.95" y="238.15" width="206.64" height="4.11" transform="translate(-24.79 420.56) rotate(-45)"/><rect class="cls-3" x="398.67" y="244.87" width="206.64" height="4.11" transform="translate(-27.57 427.28) rotate(-45)"/><rect class="cls-3" x="405.38" y="251.59" width="206.64" height="4.11" transform="translate(-30.36 434) rotate(-45)"/><rect class="cls-3" x="412.1" y="258.31" width="206.64" height="4.11" transform="translate(-33.14 440.72) rotate(-45)"/></g><path class="cls-4" d="M550.29,271a73.25,73.25,0,1,1,73.25-73.25A73.33,73.33,0,0,1,550.29,271Zm0-112.32a39.08,39.08,0,1,0,39.08,39.07A39.12,39.12,0,0,0,550.29,158.67Z"/><g class="cls-5"><path class="cls-6" d="M703.68,120.68a1,1,0,1,0,1,1A1,1,0,0,0,703.68,120.68Zm-5,0a1,1,0,1,0,1,1A1,1,0,0,0,698.63,120.68Zm2.52,2.53a1,1,0,1,0,1,1A1,1,0,0,0,701.15,123.21Zm2.53,2.52a1,1,0,1,0,1,1A1,1,0,0,0,703.68,125.73Zm-10.11-5a1,1,0,1,0,1,1A1,1,0,0,0,693.57,120.68Zm2.53,2.53a1,1,0,1,0,1,1A1,1,0,0,0,696.1,123.21Zm2.53,2.52a1,1,0,1,0,1,1A1,1,0,0,0,698.63,125.73Zm2.52,2.53a1,1,0,1,0,1,1A1,1,0,0,0,701.15,128.26Zm2.53,2.52a1,1,0,1,0,1,1A1,1,0,0,0,703.68,130.78Zm-15.16-10.1a1,1,0,1,0,1,1A1,1,0,0,0,688.52,120.68Zm2.53,2.53a1,1,0,1,0,1,1A1,1,0,0,0,691.05,123.21Zm2.52,2.52a1,1,0,1,0,1,1A1,1,0,0,0,693.57,125.73Zm2.53,2.53a1,1,0,1,0,1,1A1,1,0,0,0,696.1,128.26Zm2.53,2.52a1,1,0,1,0,1,1A1,1,0,0,0,698.63,130.78Zm2.52,2.53a1,1,0,1,0,1,1A1,1,0,0,0,701.15,133.31Zm2.53,2.53a1,1,0,1,0,1,1A1,1,0,0,0,703.68,135.84Zm-20.21-15.16a1,1,0,1,0,1,1A1,1,0,0,0,683.47,120.68Zm2.53,2.53a1,1,0,1,0,1,1A1,1,0,0,0,686,123.21Zm2.52,2.52a1,1,0,1,0,1,1A1,1,0,0,0,688.52,125.73Zm2.53,2.53a1,1,0,1,0,1,1A1,1,0,0,0,691.05,128.26Zm2.52,2.52a1,1,0,1,0,1,1A1,1,0,0,0,693.57,130.78Zm2.53,2.53a1,1,0,1,0,1,1A1,1,0,0,0,696.1,133.31Zm2.53,2.53a1,1,0,1,0,1,1A1,1,0,0,0,698.63,135.84Zm2.52,2.52a1,1,0,1,0,1,1A1,1,0,0,0,701.15,138.36Zm2.53,2.53a1,1,0,1,0,1,1A1,1,0,0,0,703.68,140.89Zm-25.26-20.21a1,1,0,1,0,1,1A1,1,0,0,0,678.42,120.68Zm2.52,2.53a1,1,0,1,0,1,1A1,1,0,0,0,680.94,123.21Zm2.53,2.52a1,1,0,1,0,1,1A1,1,0,0,0,683.47,125.73Zm2.53,2.53a1,1,0,1,0,1,1A1,1,0,0,0,686,128.26Zm2.52,2.52a1,1,0,1,0,1,1A1,1,0,0,0,688.52,130.78Zm2.53,2.53a1,1,0,1,0,1,1A1,1,0,0,0,691.05,133.31Zm2.52,2.53a1,1,0,1,0,1,1A1,1,0,0,0,693.57,135.84Zm2.53,2.52a1,1,0,1,0,1,1A1,1,0,0,0,696.1,138.36Zm2.53,2.53a1,1,0,1,0,1,1A1,1,0,0,0,698.63,140.89Zm2.52,2.52a1,1,0,1,0,1,1A1,1,0,0,0,701.15,143.41Zm2.53,2.53a1,1,0,1,0,1,1A1,1,0,0,0,703.68,145.94Zm-30.32-25.26a1,1,0,1,0,1,1A1,1,0,0,0,673.36,120.68Zm2.53,2.53a1,1,0,1,0,1,1A1,1,0,0,0,675.89,123.21Zm2.53,2.52a1,1,0,1,0,1,1A1,1,0,0,0,678.42,125.73Zm2.52,2.53a1,1,0,1,0,1,1A1,1,0,0,0,680.94,128.26Zm2.53,2.52a1,1,0,1,0,1,1A1,1,0,0,0,683.47,130.78Zm2.53,2.53a1,1,0,1,0,1,1A1,1,0,0,0,686,133.31Zm2.52,2.53a1,1,0,1,0,1,1A1,1,0,0,0,688.52,135.84Zm2.53,2.52a1,1,0,1,0,1,1A1,1,0,0,0,691.05,138.36Zm2.52,2.53a1,1,0,1,0,1,1A1,1,0,0,0,693.57,140.89Zm2.53,2.52a1,1,0,1,0,1,1A1,1,0,0,0,696.1,143.41Zm2.53,2.53a1,1,0,1,0,1,1A1,1,0,0,0,698.63,145.94Zm2.52,2.53a1,1,0,1,0,1,1A1,1,0,0,0,701.15,148.47Zm2.53,2.52a1,1,0,1,0,1,1A1,1,0,0,0,703.68,151Zm-35.37-30.31a1,1,0,1,0,1,1A1,1,0,0,0,668.31,120.68Zm2.53,2.53a1,1,0,1,0,1,1A1,1,0,0,0,670.84,123.21Zm2.52,2.52a1,1,0,1,0,1,1A1,1,0,0,0,673.36,125.73Zm2.53,2.53a1,1,0,1,0,1,1A1,1,0,0,0,675.89,128.26Zm2.53,2.52a1,1,0,1,0,1,1A1,1,0,0,0,678.42,130.78Zm2.52,2.53a1,1,0,1,0,1,1A1,1,0,0,0,680.94,133.31Zm2.53,2.53a1,1,0,1,0,1,1A1,1,0,0,0,683.47,135.84Zm2.53,2.52a1,1,0,1,0,1,1A1,1,0,0,0,686,138.36Zm2.52,2.53a1,1,0,1,0,1,1A1,1,0,0,0,688.52,140.89Zm2.53,2.52a1,1,0,1,0,1,1A1,1,0,0,0,691.05,143.41Zm2.52,2.53a1,1,0,1,0,1,1A1,1,0,0,0,693.57,145.94Zm2.53,2.53a1,1,0,1,0,1,1A1,1,0,0,0,696.1,148.47Zm2.53,2.52a1,1,0,1,0,1,1A1,1,0,0,0,698.63,151Zm2.52,2.53a1,1,0,1,0,1,1A1,1,0,0,0,701.15,153.52Zm2.53,2.53a1,1,0,1,0,1,1A1,1,0,0,0,703.68,156.05Zm-40.42-35.37a1,1,0,1,0,1,1A1,1,0,0,0,663.26,120.68Zm2.53,2.53a1,1,0,1,0,0,2,1,1,0,0,0,0-2Zm2.52,2.52a1,1,0,1,0,1,1A1,1,0,0,0,668.31,125.73Zm2.53,2.53a1,1,0,1,0,1,1A1,1,0,0,0,670.84,128.26Zm2.52,2.52a1,1,0,1,0,1,1A1,1,0,0,0,673.36,130.78Zm2.53,2.53a1,1,0,1,0,1,1A1,1,0,0,0,675.89,133.31Zm2.53,2.53a1,1,0,1,0,1,1A1,1,0,0,0,678.42,135.84Zm2.52,2.52a1,1,0,1,0,0,2,1,1,0,0,0,0-2Zm2.53,2.53a1,1,0,1,0,1,1A1,1,0,0,0,683.47,140.89Zm2.53,2.52a1,1,0,1,0,1,1A1,1,0,0,0,686,143.41Zm2.52,2.53a1,1,0,1,0,1,1A1,1,0,0,0,688.52,145.94Zm2.53,2.53a1,1,0,1,0,1,1A1,1,0,0,0,691.05,148.47Zm2.52,2.52a1,1,0,1,0,0,2,1,1,0,0,0,0-2Zm2.53,2.53a1,1,0,1,0,1,1A1,1,0,0,0,696.1,153.52Zm2.53,2.53a1,1,0,0,0,0,2,1,1,0,0,0,0-2Zm2.52,2.52a1,1,0,1,0,1,1A1,1,0,0,0,701.15,158.57Zm2.53,2.53a1,1,0,1,0,1,1A1,1,0,0,0,703.68,161.1Zm-45.47-40.42a1,1,0,1,0,1,1A1,1,0,0,0,658.21,120.68Zm2.52,2.53a1,1,0,1,0,1,1A1,1,0,0,0,660.73,123.21Zm2.53,2.52a1,1,0,1,0,1,1A1,1,0,0,0,663.26,125.73Zm2.53,2.53a1,1,0,1,0,1,1A1,1,0,0,0,665.79,128.26Zm2.52,2.52a1,1,0,1,0,1,1A1,1,0,0,0,668.31,130.78Zm2.53,2.53a1,1,0,1,0,1,1A1,1,0,0,0,670.84,133.31Zm2.52,2.53a1,1,0,1,0,1,1A1,1,0,0,0,673.36,135.84Zm2.53,2.52a1,1,0,1,0,1,1A1,1,0,0,0,675.89,138.36Zm2.53,2.53a1,1,0,1,0,1,1A1,1,0,0,0,678.42,140.89Zm2.52,2.52a1,1,0,1,0,1,1A1,1,0,0,0,680.94,143.41Zm2.53,2.53a1,1,0,1,0,1,1A1,1,0,0,0,683.47,145.94Zm2.53,2.53a1,1,0,1,0,1,1A1,1,0,0,0,686,148.47Zm2.52,2.52a1,1,0,1,0,1,1A1,1,0,0,0,688.52,151Zm2.53,2.53a1,1,0,1,0,1,1A1,1,0,0,0,691.05,153.52Zm2.52,2.53a1,1,0,1,0,1,1A1,1,0,0,0,693.57,156.05Zm2.53,2.52a1,1,0,1,0,1,1A1,1,0,0,0,696.1,158.57Zm2.53,2.53a1,1,0,1,0,1,1A1,1,0,0,0,698.63,161.1Zm2.52,2.52a1,1,0,1,0,1,1A1,1,0,0,0,701.15,163.62Zm2.53,2.53a1,1,0,1,0,1,1A1,1,0,0,0,703.68,166.15Zm-50.52-45.47a1,1,0,1,0,1,1A1,1,0,0,0,653.16,120.68Zm2.52,2.53a1,1,0,1,0,1,1A1,1,0,0,0,655.68,123.21Zm2.53,2.52a1,1,0,1,0,1,1A1,1,0,0,0,658.21,125.73Zm2.52,2.53a1,1,0,1,0,1,1A1,1,0,0,0,660.73,128.26Zm2.53,2.52a1,1,0,1,0,1,1A1,1,0,0,0,663.26,130.78Zm2.53,2.53a1,1,0,1,0,1,1A1,1,0,0,0,665.79,133.31Zm2.52,2.53a1,1,0,1,0,1,1A1,1,0,0,0,668.31,135.84Zm2.53,2.52a1,1,0,1,0,1,1A1,1,0,0,0,670.84,138.36Zm2.52,2.53a1,1,0,1,0,1,1A1,1,0,0,0,673.36,140.89Zm2.53,2.52a1,1,0,1,0,1,1A1,1,0,0,0,675.89,143.41Zm2.53,2.53a1,1,0,1,0,1,1A1,1,0,0,0,678.42,145.94Zm2.52,2.53a1,1,0,1,0,1,1A1,1,0,0,0,680.94,148.47Zm2.53,2.52a1,1,0,1,0,1,1A1,1,0,0,0,683.47,151Zm2.53,2.53a1,1,0,1,0,1,1A1,1,0,0,0,686,153.52Zm2.52,2.53a1,1,0,1,0,1,1A1,1,0,0,0,688.52,156.05Zm2.53,2.52a1,1,0,1,0,1,1A1,1,0,0,0,691.05,158.57Zm2.52,2.53a1,1,0,1,0,1,1A1,1,0,0,0,693.57,161.1Zm2.53,2.52a1,1,0,1,0,1,1A1,1,0,0,0,696.1,163.62Zm2.53,2.53a1,1,0,1,0,1,1A1,1,0,0,0,698.63,166.15Zm2.52,2.53a1,1,0,1,0,1,1A1,1,0,0,0,701.15,168.68Zm2.53,2.52a1,1,0,1,0,1,1A1,1,0,0,0,703.68,171.2ZM648.1,120.68a1,1,0,1,0,1,1A1,1,0,0,0,648.1,120.68Zm2.53,2.53a1,1,0,1,0,1,1A1,1,0,0,0,650.63,123.21Zm2.53,2.52a1,1,0,1,0,1,1A1,1,0,0,0,653.16,125.73Zm2.52,2.53a1,1,0,1,0,1,1A1,1,0,0,0,655.68,128.26Zm2.53,2.52a1,1,0,1,0,1,1A1,1,0,0,0,658.21,130.78Zm2.52,2.53a1,1,0,1,0,1,1A1,1,0,0,0,660.73,133.31Zm2.53,2.53a1,1,0,1,0,1,1A1,1,0,0,0,663.26,135.84Zm2.53,2.52a1,1,0,1,0,1,1A1,1,0,0,0,665.79,138.36Zm2.52,2.53a1,1,0,1,0,1,1A1,1,0,0,0,668.31,140.89Zm2.53,2.52a1,1,0,1,0,1,1A1,1,0,0,0,670.84,143.41Zm2.52,2.53a1,1,0,1,0,1,1A1,1,0,0,0,673.36,145.94Zm2.53,2.53a1,1,0,1,0,1,1A1,1,0,0,0,675.89,148.47Zm2.53,2.52a1,1,0,1,0,1,1A1,1,0,0,0,678.42,151Zm2.52,2.53a1,1,0,1,0,1,1A1,1,0,0,0,680.94,153.52Zm2.53,2.53a1,1,0,1,0,1,1A1,1,0,0,0,683.47,156.05Zm2.53,2.52a1,1,0,1,0,1,1A1,1,0,0,0,686,158.57Zm2.52,2.53a1,1,0,1,0,1,1A1,1,0,0,0,688.52,161.1Zm2.53,2.52a1,1,0,1,0,1,1A1,1,0,0,0,691.05,163.62Zm2.52,2.53a1,1,0,1,0,1,1A1,1,0,0,0,693.57,166.15Zm2.53,2.53a1,1,0,1,0,1,1A1,1,0,0,0,696.1,168.68Zm2.53,2.52a1,1,0,1,0,1,1A1,1,0,0,0,698.63,171.2Zm2.52,2.53a1,1,0,1,0,1,1A1,1,0,0,0,701.15,173.73Zm2.53,2.52a1,1,0,1,0,1,1A1,1,0,0,0,703.68,176.25Zm-60.63-55.57a1,1,0,1,0,1,1A1,1,0,0,0,643.05,120.68Zm2.53,2.53a1,1,0,1,0,1,1A1,1,0,0,0,645.58,123.21Zm2.52,2.52a1,1,0,1,0,1,1A1,1,0,0,0,648.1,125.73Zm2.53,2.53a1,1,0,1,0,1,1A1,1,0,0,0,650.63,128.26Zm2.53,2.52a1,1,0,1,0,1,1A1,1,0,0,0,653.16,130.78Zm2.52,2.53a1,1,0,1,0,1,1A1,1,0,0,0,655.68,133.31Zm2.53,2.53a1,1,0,1,0,1,1A1,1,0,0,0,658.21,135.84Zm2.52,2.52a1,1,0,0,0,0,2,1,1,0,0,0,0-2Zm2.53,2.53a1,1,0,1,0,1,1A1,1,0,0,0,663.26,140.89Zm2.53,2.52a1,1,0,1,0,1,1A1,1,0,0,0,665.79,143.41Zm2.52,2.53a1,1,0,1,0,1,1A1,1,0,0,0,668.31,145.94Zm2.53,2.53a1,1,0,1,0,1,1A1,1,0,0,0,670.84,148.47Zm2.52,2.52a1,1,0,1,0,1,1A1,1,0,0,0,673.36,151Zm2.53,2.53a1,1,0,1,0,1,1A1,1,0,0,0,675.89,153.52Zm2.53,2.53a1,1,0,0,0,0,2,1,1,0,0,0,0-2Zm2.52,2.52a1,1,0,1,0,1,1A1,1,0,0,0,680.94,158.57Zm2.53,2.53a1,1,0,1,0,1,1A1,1,0,0,0,683.47,161.1Zm2.53,2.52a1,1,0,1,0,1,1A1,1,0,0,0,686,163.62Zm2.52,2.53a1,1,0,1,0,1,1A1,1,0,0,0,688.52,166.15Zm2.53,2.53a1,1,0,1,0,1,1A1,1,0,0,0,691.05,168.68Zm2.52,2.52a1,1,0,1,0,1,1A1,1,0,0,0,693.57,171.2Zm2.53,2.53a1,1,0,1,0,1,1A1,1,0,0,0,696.1,173.73Zm2.53,2.52a1,1,0,1,0,1,1A1,1,0,0,0,698.63,176.25Zm2.52,2.53a1,1,0,1,0,1,1A1,1,0,0,0,701.15,178.78Zm2.53,2.53a1,1,0,1,0,1,1A1,1,0,0,0,703.68,181.31ZM638,120.68a1,1,0,1,0,1,1A1,1,0,0,0,638,120.68Zm2.53,2.53a1,1,0,1,0,1,1A1,1,0,0,0,640.53,123.21Zm2.52,2.52a1,1,0,1,0,1,1A1,1,0,0,0,643.05,125.73Zm2.53,2.53a1,1,0,1,0,1,1A1,1,0,0,0,645.58,128.26Zm2.52,2.52a1,1,0,1,0,1,1A1,1,0,0,0,648.1,130.78Zm2.53,2.53a1,1,0,1,0,1,1A1,1,0,0,0,650.63,133.31Zm2.53,2.53a1,1,0,1,0,1,1A1,1,0,0,0,653.16,135.84Zm2.52,2.52a1,1,0,1,0,1,1A1,1,0,0,0,655.68,138.36Zm2.53,2.53a1,1,0,1,0,1,1A1,1,0,0,0,658.21,140.89Zm2.52,2.52a1,1,0,1,0,1,1A1,1,0,0,0,660.73,143.41Zm2.53,2.53a1,1,0,1,0,1,1A1,1,0,0,0,663.26,145.94Zm2.53,2.53a1,1,0,1,0,1,1A1,1,0,0,0,665.79,148.47Zm2.52,2.52a1,1,0,1,0,1,1A1,1,0,0,0,668.31,151Zm2.53,2.53a1,1,0,1,0,1,1A1,1,0,0,0,670.84,153.52Zm2.52,2.53a1,1,0,1,0,1,1A1,1,0,0,0,673.36,156.05Zm2.53,2.52a1,1,0,1,0,1,1A1,1,0,0,0,675.89,158.57Zm2.53,2.53a1,1,0,1,0,1,1A1,1,0,0,0,678.42,161.1Zm2.52,2.52a1,1,0,1,0,0,2,1,1,0,0,0,0-2Zm2.53,2.53a1,1,0,1,0,1,1A1,1,0,0,0,683.47,166.15Zm2.53,2.53a1,1,0,1,0,1,1A1,1,0,0,0,686,168.68Zm2.52,2.52a1,1,0,1,0,1,1A1,1,0,0,0,688.52,171.2Zm2.53,2.53a1,1,0,1,0,1,1A1,1,0,0,0,691.05,173.73Zm2.52,2.52a1,1,0,1,0,1,1A1,1,0,0,0,693.57,176.25Zm2.53,2.53a1,1,0,1,0,1,1A1,1,0,0,0,696.1,178.78Zm2.53,2.53a1,1,0,1,0,0,2,1,1,0,0,0,0-2Zm2.52,2.52a1,1,0,1,0,1,1A1,1,0,0,0,701.15,183.83Zm2.53,2.53a1,1,0,1,0,1,1A1,1,0,0,0,703.68,186.36ZM633,120.68a1,1,0,1,0,1,1A1,1,0,0,0,633,120.68Zm2.52,2.53a1,1,0,1,0,1,1A1,1,0,0,0,635.47,123.21Zm2.53,2.52a1,1,0,1,0,1,1A1,1,0,0,0,638,125.73Zm2.53,2.53a1,1,0,1,0,1,1A1,1,0,0,0,640.53,128.26Zm2.52,2.52a1,1,0,1,0,1,1A1,1,0,0,0,643.05,130.78Zm2.53,2.53a1,1,0,1,0,1,1A1,1,0,0,0,645.58,133.31Zm2.52,2.53a1,1,0,1,0,1,1A1,1,0,0,0,648.1,135.84Zm2.53,2.52a1,1,0,1,0,1,1A1,1,0,0,0,650.63,138.36Zm2.53,2.53a1,1,0,1,0,1,1A1,1,0,0,0,653.16,140.89Zm2.52,2.52a1,1,0,1,0,1,1A1,1,0,0,0,655.68,143.41Zm2.53,2.53a1,1,0,1,0,1,1A1,1,0,0,0,658.21,145.94Zm2.52,2.53a1,1,0,1,0,1,1A1,1,0,0,0,660.73,148.47Zm2.53,2.52a1,1,0,1,0,1,1A1,1,0,0,0,663.26,151Zm2.53,2.53a1,1,0,1,0,1,1A1,1,0,0,0,665.79,153.52Zm2.52,2.53a1,1,0,1,0,1,1A1,1,0,0,0,668.31,156.05Zm2.53,2.52a1,1,0,1,0,1,1A1,1,0,0,0,670.84,158.57Zm2.52,2.53a1,1,0,1,0,1,1A1,1,0,0,0,673.36,161.1Zm2.53,2.52a1,1,0,1,0,1,1A1,1,0,0,0,675.89,163.62Zm2.53,2.53a1,1,0,1,0,1,1A1,1,0,0,0,678.42,166.15Zm2.52,2.53a1,1,0,1,0,1,1A1,1,0,0,0,680.94,168.68Zm2.53,2.52a1,1,0,1,0,1,1A1,1,0,0,0,683.47,171.2Zm2.53,2.53a1,1,0,1,0,1,1A1,1,0,0,0,686,173.73Zm2.52,2.52a1,1,0,1,0,1,1A1,1,0,0,0,688.52,176.25Zm2.53,2.53a1,1,0,1,0,1,1A1,1,0,0,0,691.05,178.78Zm2.52,2.53a1,1,0,1,0,1,1A1,1,0,0,0,693.57,181.31Zm2.53,2.52a1,1,0,1,0,1,1A1,1,0,0,0,696.1,183.83Zm2.53,2.53a1,1,0,1,0,1,1A1,1,0,0,0,698.63,186.36Zm2.52,2.52a1,1,0,1,0,1,1A1,1,0,0,0,701.15,188.88Zm2.53,2.53a1,1,0,1,0,1,1A1,1,0,0,0,703.68,191.41Zm-75.79-70.73a1,1,0,1,0,1,1A1,1,0,0,0,627.89,120.68Zm2.53,2.53a1,1,0,1,0,1,1A1,1,0,0,0,630.42,123.21Zm2.53,2.52a1,1,0,1,0,1,1A1,1,0,0,0,633,125.73Zm2.52,2.53a1,1,0,1,0,1,1A1,1,0,0,0,635.47,128.26Zm2.53,2.52a1,1,0,1,0,1,1A1,1,0,0,0,638,130.78Zm2.53,2.53a1,1,0,1,0,1,1A1,1,0,0,0,640.53,133.31Zm2.52,2.53a1,1,0,1,0,1,1A1,1,0,0,0,643.05,135.84Zm2.53,2.52a1,1,0,1,0,1,1A1,1,0,0,0,645.58,138.36Zm2.52,2.53a1,1,0,1,0,1,1A1,1,0,0,0,648.1,140.89Zm2.53,2.52a1,1,0,1,0,1,1A1,1,0,0,0,650.63,143.41Zm2.53,2.53a1,1,0,1,0,1,1A1,1,0,0,0,653.16,145.94Zm2.52,2.53a1,1,0,1,0,1,1A1,1,0,0,0,655.68,148.47Zm2.53,2.52a1,1,0,1,0,1,1A1,1,0,0,0,658.21,151Zm2.52,2.53a1,1,0,1,0,1,1A1,1,0,0,0,660.73,153.52Zm2.53,2.53a1,1,0,1,0,1,1A1,1,0,0,0,663.26,156.05Zm2.53,2.52a1,1,0,1,0,1,1A1,1,0,0,0,665.79,158.57Zm2.52,2.53a1,1,0,1,0,1,1A1,1,0,0,0,668.31,161.1Zm2.53,2.52a1,1,0,1,0,1,1A1,1,0,0,0,670.84,163.62Zm2.52,2.53a1,1,0,1,0,1,1A1,1,0,0,0,673.36,166.15Zm2.53,2.53a1,1,0,1,0,1,1A1,1,0,0,0,675.89,168.68Zm2.53,2.52a1,1,0,1,0,1,1A1,1,0,0,0,678.42,171.2Zm2.52,2.53a1,1,0,1,0,1,1A1,1,0,0,0,680.94,173.73Zm2.53,2.52a1,1,0,1,0,1,1A1,1,0,0,0,683.47,176.25Zm2.53,2.53a1,1,0,1,0,1,1A1,1,0,0,0,686,178.78Zm2.52,2.53a1,1,0,1,0,1,1A1,1,0,0,0,688.52,181.31Zm2.53,2.52a1,1,0,1,0,1,1A1,1,0,0,0,691.05,183.83Zm2.52,2.53a1,1,0,1,0,1,1A1,1,0,0,0,693.57,186.36Zm2.53,2.52a1,1,0,1,0,1,1A1,1,0,0,0,696.1,188.88Zm2.53,2.53a1,1,0,1,0,1,1A1,1,0,0,0,698.63,191.41Zm2.52,2.53a1,1,0,1,0,1,1A1,1,0,0,0,701.15,193.94Zm2.53,2.52a1,1,0,1,0,1,1A1,1,0,0,0,703.68,196.46Zm-80.84-75.78a1,1,0,1,0,1,1A1,1,0,0,0,622.84,120.68Zm2.53,2.53a1,1,0,1,0,1,1A1,1,0,0,0,625.37,123.21Zm2.52,2.52a1,1,0,1,0,1,1A1,1,0,0,0,627.89,125.73Zm2.53,2.53a1,1,0,1,0,1,1A1,1,0,0,0,630.42,128.26Zm2.53,2.52a1,1,0,1,0,1,1A1,1,0,0,0,633,130.78Zm2.52,2.53a1,1,0,1,0,1,1A1,1,0,0,0,635.47,133.31Zm2.53,2.53a1,1,0,1,0,1,1A1,1,0,0,0,638,135.84Zm2.53,2.52a1,1,0,1,0,1,1A1,1,0,0,0,640.53,138.36Zm2.52,2.53a1,1,0,1,0,1,1A1,1,0,0,0,643.05,140.89Zm2.53,2.52a1,1,0,1,0,1,1A1,1,0,0,0,645.58,143.41Zm2.52,2.53a1,1,0,1,0,1,1A1,1,0,0,0,648.1,145.94Zm2.53,2.53a1,1,0,1,0,1,1A1,1,0,0,0,650.63,148.47Zm2.53,2.52a1,1,0,1,0,1,1A1,1,0,0,0,653.16,151Zm2.52,2.53a1,1,0,1,0,1,1A1,1,0,0,0,655.68,153.52Zm2.53,2.53a1,1,0,1,0,1,1A1,1,0,0,0,658.21,156.05Zm2.52,2.52a1,1,0,1,0,1,1A1,1,0,0,0,660.73,158.57Zm2.53,2.53a1,1,0,1,0,1,1A1,1,0,0,0,663.26,161.1Zm2.53,2.52a1,1,0,1,0,1,1A1,1,0,0,0,665.79,163.62Zm2.52,2.53a1,1,0,1,0,1,1A1,1,0,0,0,668.31,166.15Zm2.53,2.53a1,1,0,1,0,1,1A1,1,0,0,0,670.84,168.68Zm2.52,2.52a1,1,0,1,0,1,1A1,1,0,0,0,673.36,171.2Zm2.53,2.53a1,1,0,1,0,1,1A1,1,0,0,0,675.89,173.73Zm2.53,2.52a1,1,0,1,0,1,1A1,1,0,0,0,678.42,176.25Zm2.52,2.53a1,1,0,1,0,1,1A1,1,0,0,0,680.94,178.78Zm2.53,2.53a1,1,0,1,0,1,1A1,1,0,0,0,683.47,181.31Zm2.53,2.52a1,1,0,1,0,1,1A1,1,0,0,0,686,183.83Zm2.52,2.53a1,1,0,1,0,1,1A1,1,0,0,0,688.52,186.36Zm2.53,2.52a1,1,0,1,0,1,1A1,1,0,0,0,691.05,188.88Zm2.52,2.53a1,1,0,1,0,1,1A1,1,0,0,0,693.57,191.41Zm2.53,2.53a1,1,0,1,0,1,1A1,1,0,0,0,696.1,193.94Zm2.53,2.52a1,1,0,1,0,1,1A1,1,0,0,0,698.63,196.46Zm2.52,2.53a1,1,0,1,0,1,1A1,1,0,0,0,701.15,199Zm2.53,2.53a1,1,0,1,0,1,1A1,1,0,0,0,703.68,201.52Zm-85.89-80.84a1,1,0,1,0,1,1A1,1,0,0,0,617.79,120.68Zm2.53,2.53a1,1,0,1,0,0,2,1,1,0,0,0,0-2Zm2.52,2.52a1,1,0,1,0,1,1A1,1,0,0,0,622.84,125.73Zm2.53,2.53a1,1,0,1,0,1,1A1,1,0,0,0,625.37,128.26Zm2.52,2.52a1,1,0,1,0,1,1A1,1,0,0,0,627.89,130.78Zm2.53,2.53a1,1,0,1,0,1,1A1,1,0,0,0,630.42,133.31Zm2.53,2.53a1,1,0,1,0,1,1A1,1,0,0,0,633,135.84Zm2.52,2.52a1,1,0,0,0,0,2,1,1,0,0,0,0-2Zm2.53,2.53a1,1,0,1,0,1,1A1,1,0,0,0,638,140.89Zm2.53,2.52a1,1,0,1,0,1,1A1,1,0,0,0,640.53,143.41Zm2.52,2.53a1,1,0,1,0,1,1A1,1,0,0,0,643.05,145.94Zm2.53,2.53a1,1,0,1,0,1,1A1,1,0,0,0,645.58,148.47ZM648.1,151a1,1,0,0,0,0,2,1,1,0,0,0,0-2Zm2.53,2.53a1,1,0,1,0,1,1A1,1,0,0,0,650.63,153.52Zm2.53,2.53a1,1,0,0,0,0,2,1,1,0,0,0,0-2Zm2.52,2.52a1,1,0,1,0,1,1A1,1,0,0,0,655.68,158.57Zm2.53,2.53a1,1,0,1,0,1,1A1,1,0,0,0,658.21,161.1Zm2.52,2.52a1,1,0,0,0,0,2,1,1,0,0,0,0-2Zm2.53,2.53a1,1,0,1,0,1,1A1,1,0,0,0,663.26,166.15Zm2.53,2.53a1,1,0,0,0,0,2,1,1,0,0,0,0-2Zm2.52,2.52a1,1,0,1,0,1,1A1,1,0,0,0,668.31,171.2Zm2.53,2.53a1,1,0,1,0,1,1A1,1,0,0,0,670.84,173.73Zm2.52,2.52a1,1,0,1,0,1,1A1,1,0,0,0,673.36,176.25Zm2.53,2.53a1,1,0,1,0,1,1A1,1,0,0,0,675.89,178.78Zm2.53,2.53a1,1,0,1,0,0,2,1,1,0,0,0,0-2Zm2.52,2.52a1,1,0,1,0,1,1A1,1,0,0,0,680.94,183.83Zm2.53,2.53a1,1,0,1,0,1,1A1,1,0,0,0,683.47,186.36Zm2.53,2.52a1,1,0,1,0,1,1A1,1,0,0,0,686,188.88Zm2.52,2.53a1,1,0,1,0,1,1A1,1,0,0,0,688.52,191.41Zm2.53,2.53a1,1,0,1,0,1,1A1,1,0,0,0,691.05,193.94Zm2.52,2.52a1,1,0,1,0,0,2,1,1,0,0,0,0-2ZM696.1,199a1,1,0,1,0,1,1A1,1,0,0,0,696.1,199Zm2.53,2.53a1,1,0,0,0,0,2,1,1,0,0,0,0-2Zm2.52,2.52a1,1,0,1,0,1,1A1,1,0,0,0,701.15,204Zm2.53,2.53a1,1,0,1,0,1,1A1,1,0,0,0,703.68,206.57Zm-90.94-85.89a1,1,0,1,0,1,1A1,1,0,0,0,612.74,120.68Zm2.52,2.53a1,1,0,1,0,1,1A1,1,0,0,0,615.26,123.21Zm2.53,2.52a1,1,0,1,0,1,1A1,1,0,0,0,617.79,125.73Zm2.53,2.53a1,1,0,1,0,1,1A1,1,0,0,0,620.32,128.26Zm2.52,2.52a1,1,0,1,0,1,1A1,1,0,0,0,622.84,130.78Zm2.53,2.53a1,1,0,1,0,1,1A1,1,0,0,0,625.37,133.31Zm2.52,2.53a1,1,0,1,0,1,1A1,1,0,0,0,627.89,135.84Zm2.53,2.52a1,1,0,1,0,1,1A1,1,0,0,0,630.42,138.36Zm2.53,2.53a1,1,0,1,0,1,1A1,1,0,0,0,633,140.89Zm2.52,2.52a1,1,0,1,0,1,1A1,1,0,0,0,635.47,143.41Zm2.53,2.53a1,1,0,1,0,1,1A1,1,0,0,0,638,145.94Zm2.53,2.53a1,1,0,1,0,1,1A1,1,0,0,0,640.53,148.47Zm2.52,2.52a1,1,0,1,0,1,1A1,1,0,0,0,643.05,151Zm2.53,2.53a1,1,0,1,0,1,1A1,1,0,0,0,645.58,153.52Zm2.52,2.53a1,1,0,1,0,1,1A1,1,0,0,0,648.1,156.05Zm2.53,2.52a1,1,0,1,0,1,1A1,1,0,0,0,650.63,158.57Zm2.53,2.53a1,1,0,1,0,1,1A1,1,0,0,0,653.16,161.1Zm2.52,2.52a1,1,0,1,0,1,1A1,1,0,0,0,655.68,163.62Zm2.53,2.53a1,1,0,1,0,1,1A1,1,0,0,0,658.21,166.15Zm2.52,2.53a1,1,0,1,0,1,1A1,1,0,0,0,660.73,168.68Zm2.53,2.52a1,1,0,1,0,1,1A1,1,0,0,0,663.26,171.2Zm2.53,2.53a1,1,0,1,0,1,1A1,1,0,0,0,665.79,173.73Zm2.52,2.52a1,1,0,1,0,1,1A1,1,0,0,0,668.31,176.25Zm2.53,2.53a1,1,0,1,0,1,1A1,1,0,0,0,670.84,178.78Zm2.52,2.53a1,1,0,1,0,1,1A1,1,0,0,0,673.36,181.31Zm2.53,2.52a1,1,0,1,0,1,1A1,1,0,0,0,675.89,183.83Zm2.53,2.53a1,1,0,1,0,1,1A1,1,0,0,0,678.42,186.36Zm2.52,2.52a1,1,0,1,0,1,1A1,1,0,0,0,680.94,188.88Zm2.53,2.53a1,1,0,1,0,1,1A1,1,0,0,0,683.47,191.41Zm2.53,2.53a1,1,0,1,0,1,1A1,1,0,0,0,686,193.94Zm2.52,2.52a1,1,0,1,0,1,1A1,1,0,0,0,688.52,196.46Zm2.53,2.53a1,1,0,1,0,1,1A1,1,0,0,0,691.05,199Zm2.52,2.53a1,1,0,1,0,1,1A1,1,0,0,0,693.57,201.52ZM696.1,204a1,1,0,1,0,1,1A1,1,0,0,0,696.1,204Zm2.53,2.53a1,1,0,1,0,1,1A1,1,0,0,0,698.63,206.57Zm2.52,2.52a1,1,0,1,0,1,1A1,1,0,0,0,701.15,209.09Zm2.53,2.53a1,1,0,1,0,1,1A1,1,0,0,0,703.68,211.62Zm-96-90.94a1,1,0,1,0,1,1A1,1,0,0,0,607.69,120.68Zm2.52,2.53a1,1,0,1,0,1,1A1,1,0,0,0,610.21,123.21Zm2.53,2.52a1,1,0,1,0,1,1A1,1,0,0,0,612.74,125.73Zm2.52,2.53a1,1,0,1,0,1,1A1,1,0,0,0,615.26,128.26Zm2.53,2.52a1,1,0,1,0,1,1A1,1,0,0,0,617.79,130.78Zm2.53,2.53a1,1,0,1,0,1,1A1,1,0,0,0,620.32,133.31Zm2.52,2.53a1,1,0,1,0,1,1A1,1,0,0,0,622.84,135.84Zm2.53,2.52a1,1,0,1,0,1,1A1,1,0,0,0,625.37,138.36Zm2.52,2.53a1,1,0,1,0,1,1A1,1,0,0,0,627.89,140.89Zm2.53,2.52a1,1,0,1,0,1,1A1,1,0,0,0,630.42,143.41Zm2.53,2.53a1,1,0,1,0,1,1A1,1,0,0,0,633,145.94Zm2.52,2.53a1,1,0,1,0,1,1A1,1,0,0,0,635.47,148.47ZM638,151a1,1,0,1,0,1,1A1,1,0,0,0,638,151Zm2.53,2.53a1,1,0,1,0,1,1A1,1,0,0,0,640.53,153.52Zm2.52,2.53a1,1,0,1,0,1,1A1,1,0,0,0,643.05,156.05Zm2.53,2.52a1,1,0,1,0,1,1A1,1,0,0,0,645.58,158.57Zm2.52,2.53a1,1,0,1,0,1,1A1,1,0,0,0,648.1,161.1Zm2.53,2.52a1,1,0,1,0,1,1A1,1,0,0,0,650.63,163.62Zm2.53,2.53a1,1,0,1,0,1,1A1,1,0,0,0,653.16,166.15Zm2.52,2.53a1,1,0,1,0,1,1A1,1,0,0,0,655.68,168.68Zm2.53,2.52a1,1,0,1,0,1,1A1,1,0,0,0,658.21,171.2Zm2.52,2.53a1,1,0,1,0,1,1A1,1,0,0,0,660.73,173.73Zm2.53,2.52a1,1,0,1,0,1,1A1,1,0,0,0,663.26,176.25Zm2.53,2.53a1,1,0,1,0,1,1A1,1,0,0,0,665.79,178.78Zm2.52,2.53a1,1,0,1,0,1,1A1,1,0,0,0,668.31,181.31Zm2.53,2.52a1,1,0,1,0,1,1A1,1,0,0,0,670.84,183.83Zm2.52,2.53a1,1,0,1,0,1,1A1,1,0,0,0,673.36,186.36Zm2.53,2.52a1,1,0,1,0,1,1A1,1,0,0,0,675.89,188.88Zm2.53,2.53a1,1,0,1,0,1,1A1,1,0,0,0,678.42,191.41Zm2.52,2.53a1,1,0,1,0,1,1A1,1,0,0,0,680.94,193.94Zm2.53,2.52a1,1,0,1,0,1,1A1,1,0,0,0,683.47,196.46ZM686,199a1,1,0,1,0,1,1A1,1,0,0,0,686,199Zm2.52,2.53a1,1,0,1,0,1,1A1,1,0,0,0,688.52,201.52Zm2.53,2.52a1,1,0,1,0,1,1A1,1,0,0,0,691.05,204Zm2.52,2.53a1,1,0,1,0,1,1A1,1,0,0,0,693.57,206.57Zm2.53,2.52a1,1,0,1,0,1,1A1,1,0,0,0,696.1,209.09Zm2.53,2.53a1,1,0,1,0,1,1A1,1,0,0,0,698.63,211.62Zm2.52,2.53a1,1,0,1,0,1,1A1,1,0,0,0,701.15,214.15Zm2.53,2.52a1,1,0,1,0,1,1A1,1,0,0,0,703.68,216.67Zm-101-96a1,1,0,1,0,1,1A1,1,0,0,0,602.63,120.68Zm2.53,2.53a1,1,0,1,0,1,1A1,1,0,0,0,605.16,123.21Zm2.53,2.52a1,1,0,1,0,1,1A1,1,0,0,0,607.69,125.73Zm2.52,2.53a1,1,0,1,0,1,1A1,1,0,0,0,610.21,128.26Zm2.53,2.52a1,1,0,1,0,1,1A1,1,0,0,0,612.74,130.78Zm2.52,2.53a1,1,0,1,0,1,1A1,1,0,0,0,615.26,133.31Zm2.53,2.53a1,1,0,1,0,1,1A1,1,0,0,0,617.79,135.84Zm2.53,2.52a1,1,0,1,0,1,1A1,1,0,0,0,620.32,138.36Zm2.52,2.53a1,1,0,1,0,1,1A1,1,0,0,0,622.84,140.89Zm2.53,2.52a1,1,0,1,0,1,1A1,1,0,0,0,625.37,143.41Zm2.52,2.53a1,1,0,1,0,1,1A1,1,0,0,0,627.89,145.94Zm2.53,2.53a1,1,0,1,0,1,1A1,1,0,0,0,630.42,148.47ZM633,151a1,1,0,1,0,1,1A1,1,0,0,0,633,151Zm2.52,2.53a1,1,0,1,0,1,1A1,1,0,0,0,635.47,153.52Zm2.53,2.53a1,1,0,1,0,1,1A1,1,0,0,0,638,156.05Zm2.53,2.52a1,1,0,1,0,1,1A1,1,0,0,0,640.53,158.57Zm2.52,2.53a1,1,0,1,0,1,1A1,1,0,0,0,643.05,161.1Zm2.53,2.52a1,1,0,1,0,1,1A1,1,0,0,0,645.58,163.62Zm2.52,2.53a1,1,0,1,0,1,1A1,1,0,0,0,648.1,166.15Zm2.53,2.53a1,1,0,1,0,1,1A1,1,0,0,0,650.63,168.68Zm2.53,2.52a1,1,0,1,0,1,1A1,1,0,0,0,653.16,171.2Zm2.52,2.53a1,1,0,1,0,1,1A1,1,0,0,0,655.68,173.73Zm2.53,2.52a1,1,0,1,0,1,1A1,1,0,0,0,658.21,176.25Zm2.52,2.53a1,1,0,1,0,1,1A1,1,0,0,0,660.73,178.78Zm2.53,2.53a1,1,0,1,0,1,1A1,1,0,0,0,663.26,181.31Zm2.53,2.52a1,1,0,1,0,1,1A1,1,0,0,0,665.79,183.83Zm2.52,2.53a1,1,0,1,0,1,1A1,1,0,0,0,668.31,186.36Zm2.53,2.52a1,1,0,1,0,1,1A1,1,0,0,0,670.84,188.88Zm2.52,2.53a1,1,0,1,0,1,1A1,1,0,0,0,673.36,191.41Zm2.53,2.53a1,1,0,1,0,1,1A1,1,0,0,0,675.89,193.94Zm2.53,2.52a1,1,0,1,0,1,1A1,1,0,0,0,678.42,196.46Zm2.52,2.53a1,1,0,1,0,1,1A1,1,0,0,0,680.94,199Zm2.53,2.53a1,1,0,1,0,1,1A1,1,0,0,0,683.47,201.52ZM686,204a1,1,0,1,0,1,1A1,1,0,0,0,686,204Zm2.52,2.53a1,1,0,1,0,1,1A1,1,0,0,0,688.52,206.57Zm2.53,2.52a1,1,0,1,0,1,1A1,1,0,0,0,691.05,209.09Zm2.52,2.53a1,1,0,1,0,1,1A1,1,0,0,0,693.57,211.62Zm2.53,2.53a1,1,0,1,0,1,1A1,1,0,0,0,696.1,214.15Zm2.53,2.52a1,1,0,1,0,1,1A1,1,0,0,0,698.63,216.67Zm2.52,2.53a1,1,0,1,0,1,1A1,1,0,0,0,701.15,219.2Zm2.53,2.52a1,1,0,1,0,1,1A1,1,0,0,0,703.68,221.72Zm-106.1-101a1,1,0,1,0,1,1A1,1,0,0,0,597.58,120.68Zm2.53,2.53a1,1,0,1,0,1,1A1,1,0,0,0,600.11,123.21Zm2.52,2.52a1,1,0,1,0,1,1A1,1,0,0,0,602.63,125.73Zm2.53,2.53a1,1,0,1,0,1,1A1,1,0,0,0,605.16,128.26Zm2.53,2.52a1,1,0,1,0,1,1A1,1,0,0,0,607.69,130.78Zm2.52,2.53a1,1,0,1,0,1,1A1,1,0,0,0,610.21,133.31Zm2.53,2.53a1,1,0,1,0,1,1A1,1,0,0,0,612.74,135.84Zm2.52,2.52a1,1,0,0,0,0,2,1,1,0,0,0,0-2Zm2.53,2.53a1,1,0,1,0,1,1A1,1,0,0,0,617.79,140.89Zm2.53,2.52a1,1,0,1,0,1,1A1,1,0,0,0,620.32,143.41Zm2.52,2.53a1,1,0,1,0,1,1A1,1,0,0,0,622.84,145.94Zm2.53,2.53a1,1,0,1,0,1,1A1,1,0,0,0,625.37,148.47Zm2.52,2.52a1,1,0,1,0,1,1A1,1,0,0,0,627.89,151Zm2.53,2.53a1,1,0,1,0,1,1A1,1,0,0,0,630.42,153.52Zm2.53,2.53a1,1,0,1,0,1,1A1,1,0,0,0,633,156.05Zm2.52,2.52a1,1,0,1,0,1,1A1,1,0,0,0,635.47,158.57ZM638,161.1a1,1,0,1,0,1,1A1,1,0,0,0,638,161.1Zm2.53,2.52a1,1,0,1,0,1,1A1,1,0,0,0,640.53,163.62Zm2.52,2.53a1,1,0,1,0,1,1A1,1,0,0,0,643.05,166.15Zm2.53,2.53a1,1,0,1,0,1,1A1,1,0,0,0,645.58,168.68Zm2.52,2.52a1,1,0,1,0,1,1A1,1,0,0,0,648.1,171.2Zm2.53,2.53a1,1,0,1,0,1,1A1,1,0,0,0,650.63,173.73Zm2.53,2.52a1,1,0,1,0,1,1A1,1,0,0,0,653.16,176.25Zm2.52,2.53a1,1,0,1,0,1,1A1,1,0,0,0,655.68,178.78Zm2.53,2.53a1,1,0,1,0,1,1A1,1,0,0,0,658.21,181.31Zm2.52,2.52a1,1,0,1,0,1,1A1,1,0,0,0,660.73,183.83Zm2.53,2.53a1,1,0,1,0,1,1A1,1,0,0,0,663.26,186.36Zm2.53,2.52a1,1,0,1,0,1,1A1,1,0,0,0,665.79,188.88Zm2.52,2.53a1,1,0,1,0,1,1A1,1,0,0,0,668.31,191.41Zm2.53,2.53a1,1,0,1,0,1,1A1,1,0,0,0,670.84,193.94Zm2.52,2.52a1,1,0,1,0,1,1A1,1,0,0,0,673.36,196.46Zm2.53,2.53a1,1,0,1,0,1,1A1,1,0,0,0,675.89,199Zm2.53,2.53a1,1,0,0,0,0,2,1,1,0,0,0,0-2Zm2.52,2.52a1,1,0,1,0,1,1A1,1,0,0,0,680.94,204Zm2.53,2.53a1,1,0,1,0,1,1A1,1,0,0,0,683.47,206.57Zm2.53,2.52a1,1,0,1,0,1,1A1,1,0,0,0,686,209.09Zm2.52,2.53a1,1,0,1,0,1,1A1,1,0,0,0,688.52,211.62Zm2.53,2.53a1,1,0,1,0,1,1A1,1,0,0,0,691.05,214.15Zm2.52,2.52a1,1,0,1,0,1,1A1,1,0,0,0,693.57,216.67Zm2.53,2.53a1,1,0,1,0,1,1A1,1,0,0,0,696.1,219.2Zm2.53,2.52a1,1,0,1,0,1,1A1,1,0,0,0,698.63,221.72Zm2.52,2.53a1,1,0,1,0,1,1A1,1,0,0,0,701.15,224.25Zm2.53,2.53a1,1,0,1,0,1,1A1,1,0,0,0,703.68,226.78ZM592.53,120.68a1,1,0,1,0,1,1A1,1,0,0,0,592.53,120.68Zm2.53,2.53a1,1,0,1,0,0,2,1,1,0,0,0,0-2Zm2.52,2.52a1,1,0,1,0,1,1A1,1,0,0,0,597.58,125.73Zm2.53,2.53a1,1,0,1,0,1,1A1,1,0,0,0,600.11,128.26Zm2.52,2.52a1,1,0,1,0,1,1A1,1,0,0,0,602.63,130.78Zm2.53,2.53a1,1,0,1,0,1,1A1,1,0,0,0,605.16,133.31Zm2.53,2.53a1,1,0,1,0,1,1A1,1,0,0,0,607.69,135.84Zm2.52,2.52a1,1,0,1,0,1,1A1,1,0,0,0,610.21,138.36Zm2.53,2.53a1,1,0,1,0,1,1A1,1,0,0,0,612.74,140.89Zm2.52,2.52a1,1,0,1,0,1,1A1,1,0,0,0,615.26,143.41Zm2.53,2.53a1,1,0,1,0,1,1A1,1,0,0,0,617.79,145.94Zm2.53,2.53a1,1,0,1,0,1,1A1,1,0,0,0,620.32,148.47Zm2.52,2.52a1,1,0,1,0,1,1A1,1,0,0,0,622.84,151Zm2.53,2.53a1,1,0,1,0,1,1A1,1,0,0,0,625.37,153.52Zm2.52,2.53a1,1,0,1,0,1,1A1,1,0,0,0,627.89,156.05Zm2.53,2.52a1,1,0,1,0,1,1A1,1,0,0,0,630.42,158.57ZM633,161.1a1,1,0,1,0,1,1A1,1,0,0,0,633,161.1Zm2.52,2.52a1,1,0,0,0,0,2,1,1,0,0,0,0-2Zm2.53,2.53a1,1,0,1,0,1,1A1,1,0,0,0,638,166.15Zm2.53,2.53a1,1,0,1,0,1,1A1,1,0,0,0,640.53,168.68Zm2.52,2.52a1,1,0,1,0,1,1A1,1,0,0,0,643.05,171.2Zm2.53,2.53a1,1,0,1,0,1,1A1,1,0,0,0,645.58,173.73Zm2.52,2.52a1,1,0,1,0,1,1A1,1,0,0,0,648.1,176.25Zm2.53,2.53a1,1,0,1,0,1,1A1,1,0,0,0,650.63,178.78Zm2.53,2.53a1,1,0,1,0,0,2,1,1,0,0,0,0-2Zm2.52,2.52a1,1,0,1,0,1,1A1,1,0,0,0,655.68,183.83Zm2.53,2.53a1,1,0,1,0,1,1A1,1,0,0,0,658.21,186.36Zm2.52,2.52a1,1,0,1,0,1,1A1,1,0,0,0,660.73,188.88Zm2.53,2.53a1,1,0,1,0,1,1A1,1,0,0,0,663.26,191.41Zm2.53,2.53a1,1,0,1,0,1,1A1,1,0,0,0,665.79,193.94Zm2.52,2.52a1,1,0,1,0,1,1A1,1,0,0,0,668.31,196.46Zm2.53,2.53a1,1,0,1,0,1,1A1,1,0,0,0,670.84,199Zm2.52,2.53a1,1,0,1,0,1,1A1,1,0,0,0,673.36,201.52Zm2.53,2.52a1,1,0,1,0,1,1A1,1,0,0,0,675.89,204Zm2.53,2.53a1,1,0,1,0,1,1A1,1,0,0,0,678.42,206.57Zm2.52,2.52a1,1,0,1,0,0,2,1,1,0,0,0,0-2Zm2.53,2.53a1,1,0,1,0,1,1A1,1,0,0,0,683.47,211.62Zm2.53,2.53a1,1,0,1,0,1,1A1,1,0,0,0,686,214.15Zm2.52,2.52a1,1,0,1,0,1,1A1,1,0,0,0,688.52,216.67Zm2.53,2.53a1,1,0,1,0,1,1A1,1,0,0,0,691.05,219.2Zm2.52,2.52a1,1,0,1,0,0,2,1,1,0,0,0,0-2Zm2.53,2.53a1,1,0,1,0,1,1A1,1,0,0,0,696.1,224.25Zm2.53,2.53a1,1,0,1,0,0,2,1,1,0,0,0,0-2Zm2.52,2.52a1,1,0,1,0,1,1A1,1,0,0,0,701.15,229.3Zm2.53,2.53a1,1,0,1,0,1,1A1,1,0,0,0,703.68,231.83ZM587.48,120.68a1,1,0,1,0,1,1A1,1,0,0,0,587.48,120.68Zm2.52,2.53a1,1,0,1,0,1,1A1,1,0,0,0,590,123.21Zm2.53,2.52a1,1,0,1,0,1,1A1,1,0,0,0,592.53,125.73Zm2.53,2.53a1,1,0,1,0,1,1A1,1,0,0,0,595.06,128.26Zm2.52,2.52a1,1,0,1,0,1,1A1,1,0,0,0,597.58,130.78Zm2.53,2.53a1,1,0,1,0,1,1A1,1,0,0,0,600.11,133.31Zm2.52,2.53a1,1,0,1,0,1,1A1,1,0,0,0,602.63,135.84Zm2.53,2.52a1,1,0,1,0,1,1A1,1,0,0,0,605.16,138.36Zm2.53,2.53a1,1,0,1,0,1,1A1,1,0,0,0,607.69,140.89Zm2.52,2.52a1,1,0,1,0,1,1A1,1,0,0,0,610.21,143.41Zm2.53,2.53a1,1,0,1,0,1,1A1,1,0,0,0,612.74,145.94Zm2.52,2.53a1,1,0,1,0,1,1A1,1,0,0,0,615.26,148.47Zm2.53,2.52a1,1,0,1,0,1,1A1,1,0,0,0,617.79,151Zm2.53,2.53a1,1,0,1,0,1,1A1,1,0,0,0,620.32,153.52Zm2.52,2.53a1,1,0,1,0,1,1A1,1,0,0,0,622.84,156.05Zm2.53,2.52a1,1,0,1,0,1,1A1,1,0,0,0,625.37,158.57Zm2.52,2.53a1,1,0,1,0,1,1A1,1,0,0,0,627.89,161.1Zm2.53,2.52a1,1,0,1,0,1,1A1,1,0,0,0,630.42,163.62Zm2.53,2.53a1,1,0,1,0,1,1A1,1,0,0,0,633,166.15Zm2.52,2.53a1,1,0,1,0,1,1A1,1,0,0,0,635.47,168.68ZM638,171.2a1,1,0,1,0,1,1A1,1,0,0,0,638,171.2Zm2.53,2.53a1,1,0,1,0,1,1A1,1,0,0,0,640.53,173.73Zm2.52,2.52a1,1,0,1,0,1,1A1,1,0,0,0,643.05,176.25Zm2.53,2.53a1,1,0,1,0,1,1A1,1,0,0,0,645.58,178.78Zm2.52,2.53a1,1,0,1,0,1,1A1,1,0,0,0,648.1,181.31Zm2.53,2.52a1,1,0,1,0,1,1A1,1,0,0,0,650.63,183.83Zm2.53,2.53a1,1,0,1,0,1,1A1,1,0,0,0,653.16,186.36Zm2.52,2.52a1,1,0,1,0,1,1A1,1,0,0,0,655.68,188.88Zm2.53,2.53a1,1,0,1,0,1,1A1,1,0,0,0,658.21,191.41Zm2.52,2.53a1,1,0,1,0,1,1A1,1,0,0,0,660.73,193.94Zm2.53,2.52a1,1,0,1,0,1,1A1,1,0,0,0,663.26,196.46Zm2.53,2.53a1,1,0,1,0,1,1A1,1,0,0,0,665.79,199Zm2.52,2.53a1,1,0,1,0,1,1A1,1,0,0,0,668.31,201.52Zm2.53,2.52a1,1,0,1,0,1,1A1,1,0,0,0,670.84,204Zm2.52,2.53a1,1,0,1,0,1,1A1,1,0,0,0,673.36,206.57Zm2.53,2.52a1,1,0,1,0,1,1A1,1,0,0,0,675.89,209.09Zm2.53,2.53a1,1,0,1,0,1,1A1,1,0,0,0,678.42,211.62Zm2.52,2.53a1,1,0,1,0,1,1A1,1,0,0,0,680.94,214.15Zm2.53,2.52a1,1,0,1,0,1,1A1,1,0,0,0,683.47,216.67ZM686,219.2a1,1,0,1,0,1,1A1,1,0,0,0,686,219.2Zm2.52,2.52a1,1,0,1,0,1,1A1,1,0,0,0,688.52,221.72Zm2.53,2.53a1,1,0,1,0,1,1A1,1,0,0,0,691.05,224.25Zm2.52,2.53a1,1,0,1,0,1,1A1,1,0,0,0,693.57,226.78Zm2.53,2.52a1,1,0,1,0,1,1A1,1,0,0,0,696.1,229.3Zm2.53,2.53a1,1,0,1,0,1,1A1,1,0,0,0,698.63,231.83Zm2.52,2.52a1,1,0,1,0,1,1A1,1,0,0,0,701.15,234.35Zm2.53,2.53a1,1,0,1,0,1,1A1,1,0,0,0,703.68,236.88ZM582.42,120.68a1,1,0,1,0,1,1A1,1,0,0,0,582.42,120.68Zm2.53,2.53a1,1,0,1,0,1,1A1,1,0,0,0,585,123.21Zm2.53,2.52a1,1,0,1,0,1,1A1,1,0,0,0,587.48,125.73Zm2.52,2.53a1,1,0,1,0,1,1A1,1,0,0,0,590,128.26Zm2.53,2.52a1,1,0,1,0,1,1A1,1,0,0,0,592.53,130.78Zm2.53,2.53a1,1,0,1,0,1,1A1,1,0,0,0,595.06,133.31Zm2.52,2.53a1,1,0,1,0,1,1A1,1,0,0,0,597.58,135.84Zm2.53,2.52a1,1,0,1,0,1,1A1,1,0,0,0,600.11,138.36Zm2.52,2.53a1,1,0,1,0,1,1A1,1,0,0,0,602.63,140.89Zm2.53,2.52a1,1,0,1,0,1,1A1,1,0,0,0,605.16,143.41Zm2.53,2.53a1,1,0,1,0,1,1A1,1,0,0,0,607.69,145.94Zm2.52,2.53a1,1,0,1,0,1,1A1,1,0,0,0,610.21,148.47Zm2.53,2.52a1,1,0,1,0,1,1A1,1,0,0,0,612.74,151Zm2.52,2.53a1,1,0,1,0,1,1A1,1,0,0,0,615.26,153.52Zm2.53,2.53a1,1,0,1,0,1,1A1,1,0,0,0,617.79,156.05Zm2.53,2.52a1,1,0,1,0,1,1A1,1,0,0,0,620.32,158.57Zm2.52,2.53a1,1,0,1,0,1,1A1,1,0,0,0,622.84,161.1Zm2.53,2.52a1,1,0,1,0,1,1A1,1,0,0,0,625.37,163.62Zm2.52,2.53a1,1,0,1,0,1,1A1,1,0,0,0,627.89,166.15Zm2.53,2.53a1,1,0,1,0,1,1A1,1,0,0,0,630.42,168.68ZM633,171.2a1,1,0,1,0,1,1A1,1,0,0,0,633,171.2Zm2.52,2.53a1,1,0,1,0,1,1A1,1,0,0,0,635.47,173.73Zm2.53,2.52a1,1,0,1,0,1,1A1,1,0,0,0,638,176.25Zm2.53,2.53a1,1,0,1,0,1,1A1,1,0,0,0,640.53,178.78Zm2.52,2.53a1,1,0,1,0,1,1A1,1,0,0,0,643.05,181.31Zm2.53,2.52a1,1,0,1,0,1,1A1,1,0,0,0,645.58,183.83Zm2.52,2.53a1,1,0,1,0,1,1A1,1,0,0,0,648.1,186.36Zm2.53,2.52a1,1,0,1,0,1,1A1,1,0,0,0,650.63,188.88Zm2.53,2.53a1,1,0,1,0,1,1A1,1,0,0,0,653.16,191.41Zm2.52,2.53a1,1,0,1,0,1,1A1,1,0,0,0,655.68,193.94Zm2.53,2.52a1,1,0,1,0,1,1A1,1,0,0,0,658.21,196.46Zm2.52,2.53a1,1,0,1,0,1,1A1,1,0,0,0,660.73,199Zm2.53,2.53a1,1,0,1,0,1,1A1,1,0,0,0,663.26,201.52Zm2.53,2.52a1,1,0,1,0,1,1A1,1,0,0,0,665.79,204Zm2.52,2.53a1,1,0,1,0,1,1A1,1,0,0,0,668.31,206.57Zm2.53,2.52a1,1,0,1,0,1,1A1,1,0,0,0,670.84,209.09Zm2.52,2.53a1,1,0,1,0,1,1A1,1,0,0,0,673.36,211.62Zm2.53,2.53a1,1,0,1,0,1,1A1,1,0,0,0,675.89,214.15Zm2.53,2.52a1,1,0,1,0,1,1A1,1,0,0,0,678.42,216.67Zm2.52,2.53a1,1,0,1,0,1,1A1,1,0,0,0,680.94,219.2Zm2.53,2.52a1,1,0,1,0,1,1A1,1,0,0,0,683.47,221.72Zm2.53,2.53a1,1,0,1,0,1,1A1,1,0,0,0,686,224.25Zm2.52,2.53a1,1,0,1,0,1,1A1,1,0,0,0,688.52,226.78Zm2.53,2.52a1,1,0,1,0,1,1A1,1,0,0,0,691.05,229.3Zm2.52,2.53a1,1,0,1,0,1,1A1,1,0,0,0,693.57,231.83Zm2.53,2.52a1,1,0,1,0,1,1A1,1,0,0,0,696.1,234.35Zm2.53,2.53a1,1,0,1,0,1,1A1,1,0,0,0,698.63,236.88Zm2.52,2.53a1,1,0,1,0,1,1A1,1,0,0,0,701.15,239.41Zm2.53,2.52a1,1,0,1,0,1,1A1,1,0,0,0,703.68,241.93ZM577.37,120.68a1,1,0,1,0,1,1A1,1,0,0,0,577.37,120.68Zm2.53,2.53a1,1,0,1,0,1,1A1,1,0,0,0,579.9,123.21Zm2.52,2.52a1,1,0,1,0,1,1A1,1,0,0,0,582.42,125.73Zm2.53,2.53a1,1,0,1,0,1,1A1,1,0,0,0,585,128.26Zm2.53,2.52a1,1,0,1,0,1,1A1,1,0,0,0,587.48,130.78Zm2.52,2.53a1,1,0,1,0,1,1A1,1,0,0,0,590,133.31Zm2.53,2.53a1,1,0,1,0,1,1A1,1,0,0,0,592.53,135.84Zm2.53,2.52a1,1,0,1,0,1,1A1,1,0,0,0,595.06,138.36Zm2.52,2.53a1,1,0,1,0,1,1A1,1,0,0,0,597.58,140.89Zm2.53,2.52a1,1,0,1,0,1,1A1,1,0,0,0,600.11,143.41Zm2.52,2.53a1,1,0,1,0,1,1A1,1,0,0,0,602.63,145.94Zm2.53,2.53a1,1,0,1,0,1,1A1,1,0,0,0,605.16,148.47Zm2.53,2.52a1,1,0,1,0,1,1A1,1,0,0,0,607.69,151Zm2.52,2.53a1,1,0,1,0,1,1A1,1,0,0,0,610.21,153.52Zm2.53,2.53a1,1,0,1,0,1,1A1,1,0,0,0,612.74,156.05Zm2.52,2.52a1,1,0,1,0,1,1A1,1,0,0,0,615.26,158.57Zm2.53,2.53a1,1,0,1,0,1,1A1,1,0,0,0,617.79,161.1Zm2.53,2.52a1,1,0,1,0,1,1A1,1,0,0,0,620.32,163.62Zm2.52,2.53a1,1,0,1,0,1,1A1,1,0,0,0,622.84,166.15Zm2.53,2.53a1,1,0,1,0,1,1A1,1,0,0,0,625.37,168.68Zm2.52,2.52a1,1,0,1,0,1,1A1,1,0,0,0,627.89,171.2Zm2.53,2.53a1,1,0,1,0,1,1A1,1,0,0,0,630.42,173.73Zm2.53,2.52a1,1,0,1,0,1,1A1,1,0,0,0,633,176.25Zm2.52,2.53a1,1,0,1,0,1,1A1,1,0,0,0,635.47,178.78Zm2.53,2.53a1,1,0,1,0,1,1A1,1,0,0,0,638,181.31Zm2.53,2.52a1,1,0,1,0,1,1A1,1,0,0,0,640.53,183.83Zm2.52,2.53a1,1,0,1,0,1,1A1,1,0,0,0,643.05,186.36Zm2.53,2.52a1,1,0,1,0,1,1A1,1,0,0,0,645.58,188.88Zm2.52,2.53a1,1,0,1,0,1,1A1,1,0,0,0,648.1,191.41Zm2.53,2.53a1,1,0,1,0,1,1A1,1,0,0,0,650.63,193.94Zm2.53,2.52a1,1,0,1,0,1,1A1,1,0,0,0,653.16,196.46Zm2.52,2.53a1,1,0,1,0,1,1A1,1,0,0,0,655.68,199Zm2.53,2.53a1,1,0,1,0,1,1A1,1,0,0,0,658.21,201.52Zm2.52,2.52a1,1,0,1,0,1,1A1,1,0,0,0,660.73,204Zm2.53,2.53a1,1,0,1,0,1,1A1,1,0,0,0,663.26,206.57Zm2.53,2.52a1,1,0,1,0,1,1A1,1,0,0,0,665.79,209.09Zm2.52,2.53a1,1,0,1,0,1,1A1,1,0,0,0,668.31,211.62Zm2.53,2.53a1,1,0,1,0,1,1A1,1,0,0,0,670.84,214.15Zm2.52,2.52a1,1,0,1,0,1,1A1,1,0,0,0,673.36,216.67Zm2.53,2.53a1,1,0,1,0,1,1A1,1,0,0,0,675.89,219.2Zm2.53,2.52a1,1,0,1,0,1,1A1,1,0,0,0,678.42,221.72Zm2.52,2.53a1,1,0,1,0,1,1A1,1,0,0,0,680.94,224.25Zm2.53,2.53a1,1,0,1,0,1,1A1,1,0,0,0,683.47,226.78ZM686,229.3a1,1,0,1,0,1,1A1,1,0,0,0,686,229.3Zm2.52,2.53a1,1,0,1,0,1,1A1,1,0,0,0,688.52,231.83Zm2.53,2.52a1,1,0,1,0,1,1A1,1,0,0,0,691.05,234.35Zm2.52,2.53a1,1,0,1,0,1,1A1,1,0,0,0,693.57,236.88Zm2.53,2.53a1,1,0,1,0,1,1A1,1,0,0,0,696.1,239.41Zm2.53,2.52a1,1,0,1,0,1,1A1,1,0,0,0,698.63,241.93Zm2.52,2.53a1,1,0,1,0,1,1A1,1,0,0,0,701.15,244.46Zm2.53,2.53a1,1,0,1,0,1,1A1,1,0,0,0,703.68,247ZM572.32,120.68a1,1,0,1,0,1,1A1,1,0,0,0,572.32,120.68Zm2.53,2.53a1,1,0,1,0,0,2,1,1,0,0,0,0-2Zm2.52,2.52a1,1,0,1,0,1,1A1,1,0,0,0,577.37,125.73Zm2.53,2.53a1,1,0,1,0,1,1A1,1,0,0,0,579.9,128.26Zm2.52,2.52a1,1,0,1,0,1,1A1,1,0,0,0,582.42,130.78Zm2.53,2.53a1,1,0,1,0,1,1A1,1,0,0,0,585,133.31Zm2.53,2.53a1,1,0,1,0,1,1A1,1,0,0,0,587.48,135.84Zm2.52,2.52a1,1,0,0,0,0,2,1,1,0,0,0,0-2Zm2.53,2.53a1,1,0,1,0,1,1A1,1,0,0,0,592.53,140.89Zm2.53,2.52a1,1,0,1,0,1,1A1,1,0,0,0,595.06,143.41Zm2.52,2.53a1,1,0,1,0,1,1A1,1,0,0,0,597.58,145.94Zm2.53,2.53a1,1,0,1,0,1,1A1,1,0,0,0,600.11,148.47Zm2.52,2.52a1,1,0,0,0,0,2,1,1,0,0,0,0-2Zm2.53,2.53a1,1,0,1,0,1,1A1,1,0,0,0,605.16,153.52Zm2.53,2.53a1,1,0,1,0,0,2,1,1,0,0,0,0-2Zm2.52,2.52a1,1,0,1,0,1,1A1,1,0,0,0,610.21,158.57Zm2.53,2.53a1,1,0,1,0,1,1A1,1,0,0,0,612.74,161.1Zm2.52,2.52a1,1,0,0,0,0,2,1,1,0,0,0,0-2Zm2.53,2.53a1,1,0,1,0,1,1A1,1,0,0,0,617.79,166.15Zm2.53,2.53a1,1,0,1,0,0,2,1,1,0,0,0,0-2Zm2.52,2.52a1,1,0,1,0,1,1A1,1,0,0,0,622.84,171.2Zm2.53,2.53a1,1,0,1,0,1,1A1,1,0,0,0,625.37,173.73Zm2.52,2.52a1,1,0,1,0,1,1A1,1,0,0,0,627.89,176.25Zm2.53,2.53a1,1,0,1,0,1,1A1,1,0,0,0,630.42,178.78Zm2.53,2.53a1,1,0,1,0,1,1A1,1,0,0,0,633,181.31Zm2.52,2.52a1,1,0,1,0,1,1A1,1,0,0,0,635.47,183.83Zm2.53,2.53a1,1,0,1,0,1,1A1,1,0,0,0,638,186.36Zm2.53,2.52a1,1,0,1,0,1,1A1,1,0,0,0,640.53,188.88Zm2.52,2.53a1,1,0,1,0,1,1A1,1,0,0,0,643.05,191.41Zm2.53,2.53a1,1,0,1,0,1,1A1,1,0,0,0,645.58,193.94Zm2.52,2.52a1,1,0,0,0,0,2,1,1,0,0,0,0-2Zm2.53,2.53a1,1,0,1,0,1,1A1,1,0,0,0,650.63,199Zm2.53,2.53a1,1,0,0,0,0,2,1,1,0,0,0,0-2Zm2.52,2.52a1,1,0,1,0,1,1A1,1,0,0,0,655.68,204Zm2.53,2.53a1,1,0,1,0,1,1A1,1,0,0,0,658.21,206.57Zm2.52,2.52a1,1,0,1,0,0,2,1,1,0,0,0,0-2Zm2.53,2.53a1,1,0,1,0,1,1A1,1,0,0,0,663.26,211.62Zm2.53,2.53a1,1,0,0,0,0,2,1,1,0,0,0,0-2Zm2.52,2.52a1,1,0,1,0,1,1A1,1,0,0,0,668.31,216.67Zm2.53,2.53a1,1,0,1,0,1,1A1,1,0,0,0,670.84,219.2Zm2.52,2.52a1,1,0,1,0,1,1A1,1,0,0,0,673.36,221.72Zm2.53,2.53a1,1,0,1,0,1,1A1,1,0,0,0,675.89,224.25Zm2.53,2.53a1,1,0,1,0,0,2,1,1,0,0,0,0-2Zm2.52,2.52a1,1,0,1,0,1,1A1,1,0,0,0,680.94,229.3Zm2.53,2.53a1,1,0,1,0,1,1A1,1,0,0,0,683.47,231.83Zm2.53,2.52a1,1,0,1,0,1,1A1,1,0,0,0,686,234.35Zm2.52,2.53a1,1,0,1,0,1,1A1,1,0,0,0,688.52,236.88Zm2.53,2.53a1,1,0,1,0,1,1A1,1,0,0,0,691.05,239.41Zm2.52,2.52a1,1,0,1,0,0,2,1,1,0,0,0,0-2Zm2.53,2.53a1,1,0,1,0,1,1A1,1,0,0,0,696.1,244.46Zm2.53,2.53a1,1,0,0,0,0,2,1,1,0,0,0,0-2Zm2.52,2.52a1,1,0,1,0,1,1A1,1,0,0,0,701.15,249.51Zm2.53,2.53a1,1,0,1,0,1,1A1,1,0,0,0,703.68,252ZM567.27,120.68a1,1,0,1,0,1,1A1,1,0,0,0,567.27,120.68Zm2.52,2.53a1,1,0,1,0,1,1A1,1,0,0,0,569.79,123.21Zm2.53,2.52a1,1,0,1,0,1,1A1,1,0,0,0,572.32,125.73Zm2.53,2.53a1,1,0,1,0,1,1A1,1,0,0,0,574.85,128.26Zm2.52,2.52a1,1,0,1,0,1,1A1,1,0,0,0,577.37,130.78Zm2.53,2.53a1,1,0,1,0,1,1A1,1,0,0,0,579.9,133.31Zm2.52,2.53a1,1,0,1,0,1,1A1,1,0,0,0,582.42,135.84Zm2.53,2.52a1,1,0,1,0,1,1A1,1,0,0,0,585,138.36Zm2.53,2.53a1,1,0,1,0,1,1A1,1,0,0,0,587.48,140.89Zm2.52,2.52a1,1,0,1,0,1,1A1,1,0,0,0,590,143.41Zm2.53,2.53a1,1,0,1,0,1,1A1,1,0,0,0,592.53,145.94Zm2.53,2.53a1,1,0,1,0,1,1A1,1,0,0,0,595.06,148.47Zm2.52,2.52a1,1,0,1,0,1,1A1,1,0,0,0,597.58,151Zm2.53,2.53a1,1,0,1,0,1,1A1,1,0,0,0,600.11,153.52Zm2.52,2.53a1,1,0,1,0,1,1A1,1,0,0,0,602.63,156.05Zm2.53,2.52a1,1,0,1,0,1,1A1,1,0,0,0,605.16,158.57Zm2.53,2.53a1,1,0,1,0,1,1A1,1,0,0,0,607.69,161.1Zm2.52,2.52a1,1,0,1,0,1,1A1,1,0,0,0,610.21,163.62Zm2.53,2.53a1,1,0,1,0,1,1A1,1,0,0,0,612.74,166.15Zm2.52,2.53a1,1,0,1,0,1,1A1,1,0,0,0,615.26,168.68Zm2.53,2.52a1,1,0,1,0,1,1A1,1,0,0,0,617.79,171.2Zm2.53,2.53a1,1,0,1,0,1,1A1,1,0,0,0,620.32,173.73Zm2.52,2.52a1,1,0,1,0,1,1A1,1,0,0,0,622.84,176.25Zm2.53,2.53a1,1,0,1,0,1,1A1,1,0,0,0,625.37,178.78Zm2.52,2.53a1,1,0,1,0,1,1A1,1,0,0,0,627.89,181.31Zm2.53,2.52a1,1,0,1,0,1,1A1,1,0,0,0,630.42,183.83Zm2.53,2.53a1,1,0,1,0,1,1A1,1,0,0,0,633,186.36Zm2.52,2.52a1,1,0,1,0,1,1A1,1,0,0,0,635.47,188.88Zm2.53,2.53a1,1,0,1,0,1,1A1,1,0,0,0,638,191.41Zm2.53,2.53a1,1,0,1,0,1,1A1,1,0,0,0,640.53,193.94Zm2.52,2.52a1,1,0,1,0,1,1A1,1,0,0,0,643.05,196.46Zm2.53,2.53a1,1,0,1,0,1,1A1,1,0,0,0,645.58,199Zm2.52,2.53a1,1,0,1,0,1,1A1,1,0,0,0,648.1,201.52Zm2.53,2.52a1,1,0,1,0,1,1A1,1,0,0,0,650.63,204Zm2.53,2.53a1,1,0,1,0,1,1A1,1,0,0,0,653.16,206.57Zm2.52,2.52a1,1,0,1,0,1,1A1,1,0,0,0,655.68,209.09Zm2.53,2.53a1,1,0,1,0,1,1A1,1,0,0,0,658.21,211.62Zm2.52,2.53a1,1,0,1,0,1,1A1,1,0,0,0,660.73,214.15Zm2.53,2.52a1,1,0,1,0,1,1A1,1,0,0,0,663.26,216.67Zm2.53,2.53a1,1,0,1,0,1,1A1,1,0,0,0,665.79,219.2Zm2.52,2.52a1,1,0,1,0,1,1A1,1,0,0,0,668.31,221.72Zm2.53,2.53a1,1,0,1,0,1,1A1,1,0,0,0,670.84,224.25Zm2.52,2.53a1,1,0,1,0,1,1A1,1,0,0,0,673.36,226.78Zm2.53,2.52a1,1,0,1,0,1,1A1,1,0,0,0,675.89,229.3Zm2.53,2.53a1,1,0,1,0,1,1A1,1,0,0,0,678.42,231.83Zm2.52,2.52a1,1,0,1,0,1,1A1,1,0,0,0,680.94,234.35Zm2.53,2.53a1,1,0,1,0,1,1A1,1,0,0,0,683.47,236.88Zm2.53,2.53a1,1,0,1,0,1,1A1,1,0,0,0,686,239.41Zm2.52,2.52a1,1,0,1,0,1,1A1,1,0,0,0,688.52,241.93Zm2.53,2.53a1,1,0,1,0,1,1A1,1,0,0,0,691.05,244.46Zm2.52,2.53a1,1,0,1,0,1,1A1,1,0,0,0,693.57,247Zm2.53,2.52a1,1,0,1,0,1,1A1,1,0,0,0,696.1,249.51Zm2.53,2.53a1,1,0,1,0,1,1A1,1,0,0,0,698.63,252Zm2.52,2.52a1,1,0,1,0,1,1A1,1,0,0,0,701.15,254.56Zm2.53,2.53a1,1,0,1,0,1,1A1,1,0,0,0,703.68,257.09ZM562.22,120.68a1,1,0,1,0,1,1A1,1,0,0,0,562.22,120.68Zm2.52,2.53a1,1,0,1,0,1,1A1,1,0,0,0,564.74,123.21Zm2.53,2.52a1,1,0,1,0,1,1A1,1,0,0,0,567.27,125.73Zm2.52,2.53a1,1,0,1,0,1,1A1,1,0,0,0,569.79,128.26Zm2.53,2.52a1,1,0,1,0,1,1A1,1,0,0,0,572.32,130.78Zm2.53,2.53a1,1,0,1,0,1,1A1,1,0,0,0,574.85,133.31Zm2.52,2.53a1,1,0,1,0,1,1A1,1,0,0,0,577.37,135.84Zm2.53,2.52a1,1,0,1,0,1,1A1,1,0,0,0,579.9,138.36Zm2.52,2.53a1,1,0,1,0,1,1A1,1,0,0,0,582.42,140.89Zm2.53,2.52a1,1,0,1,0,1,1A1,1,0,0,0,585,143.41Zm2.53,2.53a1,1,0,1,0,1,1A1,1,0,0,0,587.48,145.94Zm2.52,2.53a1,1,0,1,0,1,1A1,1,0,0,0,590,148.47Zm2.53,2.52a1,1,0,1,0,1,1A1,1,0,0,0,592.53,151Zm2.53,2.53a1,1,0,1,0,1,1A1,1,0,0,0,595.06,153.52Zm2.52,2.53a1,1,0,1,0,1,1A1,1,0,0,0,597.58,156.05Zm2.53,2.52a1,1,0,1,0,1,1A1,1,0,0,0,600.11,158.57Zm2.52,2.53a1,1,0,1,0,1,1A1,1,0,0,0,602.63,161.1Zm2.53,2.52a1,1,0,1,0,1,1A1,1,0,0,0,605.16,163.62Zm2.53,2.53a1,1,0,1,0,1,1A1,1,0,0,0,607.69,166.15Zm2.52,2.53a1,1,0,1,0,1,1A1,1,0,0,0,610.21,168.68Zm2.53,2.52a1,1,0,1,0,1,1A1,1,0,0,0,612.74,171.2Zm2.52,2.53a1,1,0,1,0,1,1A1,1,0,0,0,615.26,173.73Zm2.53,2.52a1,1,0,1,0,1,1A1,1,0,0,0,617.79,176.25Zm2.53,2.53a1,1,0,1,0,1,1A1,1,0,0,0,620.32,178.78Zm2.52,2.53a1,1,0,1,0,1,1A1,1,0,0,0,622.84,181.31Zm2.53,2.52a1,1,0,1,0,1,1A1,1,0,0,0,625.37,183.83Zm2.52,2.53a1,1,0,1,0,1,1A1,1,0,0,0,627.89,186.36Zm2.53,2.52a1,1,0,1,0,1,1A1,1,0,0,0,630.42,188.88Zm2.53,2.53a1,1,0,1,0,1,1A1,1,0,0,0,633,191.41Zm2.52,2.53a1,1,0,1,0,1,1A1,1,0,0,0,635.47,193.94Zm2.53,2.52a1,1,0,1,0,1,1A1,1,0,0,0,638,196.46Zm2.53,2.53a1,1,0,1,0,1,1A1,1,0,0,0,640.53,199Zm2.52,2.53a1,1,0,1,0,1,1A1,1,0,0,0,643.05,201.52Zm2.53,2.52a1,1,0,1,0,1,1A1,1,0,0,0,645.58,204Zm2.52,2.53a1,1,0,1,0,1,1A1,1,0,0,0,648.1,206.57Zm2.53,2.52a1,1,0,1,0,1,1A1,1,0,0,0,650.63,209.09Zm2.53,2.53a1,1,0,1,0,1,1A1,1,0,0,0,653.16,211.62Zm2.52,2.53a1,1,0,1,0,1,1A1,1,0,0,0,655.68,214.15Zm2.53,2.52a1,1,0,1,0,1,1A1,1,0,0,0,658.21,216.67Zm2.52,2.53a1,1,0,1,0,1,1A1,1,0,0,0,660.73,219.2Zm2.53,2.52a1,1,0,1,0,1,1A1,1,0,0,0,663.26,221.72Zm2.53,2.53a1,1,0,1,0,1,1A1,1,0,0,0,665.79,224.25Zm2.52,2.53a1,1,0,1,0,1,1A1,1,0,0,0,668.31,226.78Zm2.53,2.52a1,1,0,1,0,1,1A1,1,0,0,0,670.84,229.3Zm2.52,2.53a1,1,0,1,0,1,1A1,1,0,0,0,673.36,231.83Zm2.53,2.52a1,1,0,1,0,1,1A1,1,0,0,0,675.89,234.35Zm2.53,2.53a1,1,0,1,0,1,1A1,1,0,0,0,678.42,236.88Zm2.52,2.53a1,1,0,1,0,1,1A1,1,0,0,0,680.94,239.41Zm2.53,2.52a1,1,0,1,0,1,1A1,1,0,0,0,683.47,241.93Zm2.53,2.53a1,1,0,1,0,1,1A1,1,0,0,0,686,244.46Zm2.52,2.53a1,1,0,1,0,1,1A1,1,0,0,0,688.52,247Zm2.53,2.52a1,1,0,1,0,1,1A1,1,0,0,0,691.05,249.51Zm2.52,2.53a1,1,0,1,0,1,1A1,1,0,0,0,693.57,252Zm2.53,2.52a1,1,0,1,0,1,1A1,1,0,0,0,696.1,254.56Zm2.53,2.53a1,1,0,1,0,1,1A1,1,0,0,0,698.63,257.09Zm2.52,2.53a1,1,0,1,0,1,1A1,1,0,0,0,701.15,259.62Zm2.53,2.52a1,1,0,1,0,1,1A1,1,0,0,0,703.68,262.14ZM557.16,120.68a1,1,0,1,0,1,1A1,1,0,0,0,557.16,120.68Zm2.53,2.53a1,1,0,1,0,1,1A1,1,0,0,0,559.69,123.21Zm2.53,2.52a1,1,0,1,0,1,1A1,1,0,0,0,562.22,125.73Zm2.52,2.53a1,1,0,1,0,1,1A1,1,0,0,0,564.74,128.26Zm2.53,2.52a1,1,0,1,0,1,1A1,1,0,0,0,567.27,130.78Zm2.52,2.53a1,1,0,1,0,1,1A1,1,0,0,0,569.79,133.31Zm2.53,2.53a1,1,0,1,0,1,1A1,1,0,0,0,572.32,135.84Zm2.53,2.52a1,1,0,1,0,1,1A1,1,0,0,0,574.85,138.36Zm2.52,2.53a1,1,0,1,0,1,1A1,1,0,0,0,577.37,140.89Zm2.53,2.52a1,1,0,1,0,1,1A1,1,0,0,0,579.9,143.41Zm2.52,2.53a1,1,0,1,0,1,1A1,1,0,0,0,582.42,145.94Zm2.53,2.53a1,1,0,1,0,1,1A1,1,0,0,0,585,148.47Zm2.53,2.52a1,1,0,1,0,1,1A1,1,0,0,0,587.48,151Zm2.52,2.53a1,1,0,1,0,1,1A1,1,0,0,0,590,153.52Zm2.53,2.53a1,1,0,1,0,1,1A1,1,0,0,0,592.53,156.05Zm2.53,2.52a1,1,0,1,0,1,1A1,1,0,0,0,595.06,158.57Zm2.52,2.53a1,1,0,1,0,1,1A1,1,0,0,0,597.58,161.1Zm2.53,2.52a1,1,0,1,0,1,1A1,1,0,0,0,600.11,163.62Zm2.52,2.53a1,1,0,1,0,1,1A1,1,0,0,0,602.63,166.15Zm2.53,2.53a1,1,0,1,0,1,1A1,1,0,0,0,605.16,168.68Zm2.53,2.52a1,1,0,1,0,1,1A1,1,0,0,0,607.69,171.2Zm2.52,2.53a1,1,0,1,0,1,1A1,1,0,0,0,610.21,173.73Zm2.53,2.52a1,1,0,1,0,1,1A1,1,0,0,0,612.74,176.25Zm2.52,2.53a1,1,0,1,0,1,1A1,1,0,0,0,615.26,178.78Zm2.53,2.53a1,1,0,1,0,1,1A1,1,0,0,0,617.79,181.31Zm2.53,2.52a1,1,0,1,0,1,1A1,1,0,0,0,620.32,183.83Zm2.52,2.53a1,1,0,1,0,1,1A1,1,0,0,0,622.84,186.36Zm2.53,2.52a1,1,0,1,0,1,1A1,1,0,0,0,625.37,188.88Zm2.52,2.53a1,1,0,1,0,1,1A1,1,0,0,0,627.89,191.41Zm2.53,2.53a1,1,0,1,0,1,1A1,1,0,0,0,630.42,193.94Zm2.53,2.52a1,1,0,1,0,1,1A1,1,0,0,0,633,196.46Zm2.52,2.53a1,1,0,1,0,1,1A1,1,0,0,0,635.47,199Zm2.53,2.53a1,1,0,1,0,1,1A1,1,0,0,0,638,201.52Zm2.53,2.52a1,1,0,1,0,1,1A1,1,0,0,0,640.53,204Zm2.52,2.53a1,1,0,1,0,1,1A1,1,0,0,0,643.05,206.57Zm2.53,2.52a1,1,0,1,0,1,1A1,1,0,0,0,645.58,209.09Zm2.52,2.53a1,1,0,1,0,1,1A1,1,0,0,0,648.1,211.62Zm2.53,2.53a1,1,0,1,0,1,1A1,1,0,0,0,650.63,214.15Zm2.53,2.52a1,1,0,1,0,1,1A1,1,0,0,0,653.16,216.67Zm2.52,2.53a1,1,0,1,0,1,1A1,1,0,0,0,655.68,219.2Zm2.53,2.52a1,1,0,1,0,1,1A1,1,0,0,0,658.21,221.72Zm2.52,2.53a1,1,0,1,0,1,1A1,1,0,0,0,660.73,224.25Zm2.53,2.53a1,1,0,1,0,1,1A1,1,0,0,0,663.26,226.78Zm2.53,2.52a1,1,0,1,0,1,1A1,1,0,0,0,665.79,229.3Zm2.52,2.53a1,1,0,1,0,1,1A1,1,0,0,0,668.31,231.83Zm2.53,2.52a1,1,0,1,0,1,1A1,1,0,0,0,670.84,234.35Zm2.52,2.53a1,1,0,1,0,1,1A1,1,0,0,0,673.36,236.88Zm2.53,2.53a1,1,0,1,0,1,1A1,1,0,0,0,675.89,239.41Zm2.53,2.52a1,1,0,1,0,1,1A1,1,0,0,0,678.42,241.93Zm2.52,2.53a1,1,0,1,0,1,1A1,1,0,0,0,680.94,244.46Zm2.53,2.53a1,1,0,1,0,1,1A1,1,0,0,0,683.47,247Zm2.53,2.52a1,1,0,1,0,1,1A1,1,0,0,0,686,249.51Zm2.52,2.53a1,1,0,1,0,1,1A1,1,0,0,0,688.52,252Zm2.53,2.52a1,1,0,1,0,1,1A1,1,0,0,0,691.05,254.56Zm2.52,2.53a1,1,0,1,0,1,1A1,1,0,0,0,693.57,257.09Zm2.53,2.53a1,1,0,1,0,1,1A1,1,0,0,0,696.1,259.62Zm2.53,2.52a1,1,0,1,0,1,1A1,1,0,0,0,698.63,262.14Zm2.52,2.53a1,1,0,1,0,1,1A1,1,0,0,0,701.15,264.67Zm2.53,2.52a1,1,0,1,0,1,1A1,1,0,0,0,703.68,267.19ZM557.16,125.73a1,1,0,1,0,1,1A1,1,0,0,0,557.16,125.73Zm2.53,2.53a1,1,0,1,0,1,1A1,1,0,0,0,559.69,128.26Zm2.53,2.52a1,1,0,1,0,1,1A1,1,0,0,0,562.22,130.78Zm2.52,2.53a1,1,0,1,0,1,1A1,1,0,0,0,564.74,133.31Zm2.53,2.53a1,1,0,1,0,1,1A1,1,0,0,0,567.27,135.84Zm2.52,2.52a1,1,0,0,0,0,2,1,1,0,0,0,0-2Zm2.53,2.53a1,1,0,1,0,1,1A1,1,0,0,0,572.32,140.89Zm2.53,2.52a1,1,0,1,0,1,1A1,1,0,0,0,574.85,143.41Zm2.52,2.53a1,1,0,1,0,1,1A1,1,0,0,0,577.37,145.94Zm2.53,2.53a1,1,0,1,0,1,1A1,1,0,0,0,579.9,148.47Zm2.52,2.52a1,1,0,1,0,1,1A1,1,0,0,0,582.42,151Zm2.53,2.53a1,1,0,1,0,1,1A1,1,0,0,0,585,153.52Zm2.53,2.53a1,1,0,1,0,1,1A1,1,0,0,0,587.48,156.05Zm2.52,2.52a1,1,0,1,0,1,1A1,1,0,0,0,590,158.57Zm2.53,2.53a1,1,0,1,0,1,1A1,1,0,0,0,592.53,161.1Zm2.53,2.52a1,1,0,1,0,1,1A1,1,0,0,0,595.06,163.62Zm2.52,2.53a1,1,0,1,0,1,1A1,1,0,0,0,597.58,166.15Zm2.53,2.53a1,1,0,1,0,1,1A1,1,0,0,0,600.11,168.68Zm2.52,2.52a1,1,0,1,0,1,1A1,1,0,0,0,602.63,171.2Zm2.53,2.53a1,1,0,1,0,1,1A1,1,0,0,0,605.16,173.73Zm2.53,2.52a1,1,0,1,0,1,1A1,1,0,0,0,607.69,176.25Zm2.52,2.53a1,1,0,1,0,1,1A1,1,0,0,0,610.21,178.78Zm2.53,2.53a1,1,0,1,0,1,1A1,1,0,0,0,612.74,181.31Zm2.52,2.52a1,1,0,1,0,1,1A1,1,0,0,0,615.26,183.83Zm2.53,2.53a1,1,0,1,0,1,1A1,1,0,0,0,617.79,186.36Zm2.53,2.52a1,1,0,1,0,1,1A1,1,0,0,0,620.32,188.88Zm2.52,2.53a1,1,0,1,0,1,1A1,1,0,0,0,622.84,191.41Zm2.53,2.53a1,1,0,1,0,1,1A1,1,0,0,0,625.37,193.94Zm2.52,2.52a1,1,0,1,0,1,1A1,1,0,0,0,627.89,196.46Zm2.53,2.53a1,1,0,1,0,1,1A1,1,0,0,0,630.42,199Zm2.53,2.53a1,1,0,1,0,1,1A1,1,0,0,0,633,201.52Zm2.52,2.52a1,1,0,1,0,1,1A1,1,0,0,0,635.47,204Zm2.53,2.53a1,1,0,1,0,1,1A1,1,0,0,0,638,206.57Zm2.53,2.52a1,1,0,1,0,1,1A1,1,0,0,0,640.53,209.09Zm2.52,2.53a1,1,0,1,0,1,1A1,1,0,0,0,643.05,211.62Zm2.53,2.53a1,1,0,1,0,1,1A1,1,0,0,0,645.58,214.15Zm2.52,2.52a1,1,0,1,0,1,1A1,1,0,0,0,648.1,216.67Zm2.53,2.53a1,1,0,1,0,1,1A1,1,0,0,0,650.63,219.2Zm2.53,2.52a1,1,0,1,0,1,1A1,1,0,0,0,653.16,221.72Zm2.52,2.53a1,1,0,1,0,1,1A1,1,0,0,0,655.68,224.25Zm2.53,2.53a1,1,0,1,0,1,1A1,1,0,0,0,658.21,226.78Zm2.52,2.52a1,1,0,1,0,1,1A1,1,0,0,0,660.73,229.3Zm2.53,2.53a1,1,0,1,0,1,1A1,1,0,0,0,663.26,231.83Zm2.53,2.52a1,1,0,1,0,1,1A1,1,0,0,0,665.79,234.35Zm2.52,2.53a1,1,0,1,0,1,1A1,1,0,0,0,668.31,236.88Zm2.53,2.53a1,1,0,1,0,1,1A1,1,0,0,0,670.84,239.41Zm2.52,2.52a1,1,0,1,0,1,1A1,1,0,0,0,673.36,241.93Zm2.53,2.53a1,1,0,1,0,1,1A1,1,0,0,0,675.89,244.46Zm2.53,2.53a1,1,0,0,0,0,2,1,1,0,0,0,0-2Zm2.52,2.52a1,1,0,1,0,1,1A1,1,0,0,0,680.94,249.51Zm2.53,2.53a1,1,0,1,0,1,1A1,1,0,0,0,683.47,252Zm2.53,2.52a1,1,0,1,0,1,1A1,1,0,0,0,686,254.56Zm2.52,2.53a1,1,0,1,0,1,1A1,1,0,0,0,688.52,257.09Zm2.53,2.53a1,1,0,1,0,1,1A1,1,0,0,0,691.05,259.62Zm2.52,2.52a1,1,0,1,0,1,1A1,1,0,0,0,693.57,262.14Zm2.53,2.53a1,1,0,1,0,1,1A1,1,0,0,0,696.1,264.67Zm2.53,2.52a1,1,0,1,0,1,1A1,1,0,0,0,698.63,267.19Zm2.52,2.53a1,1,0,1,0,1,1A1,1,0,0,0,701.15,269.72Zm2.53,2.53a1,1,0,1,0,1,1A1,1,0,0,0,703.68,272.25ZM557.16,130.78a1,1,0,1,0,1,1A1,1,0,0,0,557.16,130.78Zm2.53,2.53a1,1,0,1,0,1,1A1,1,0,0,0,559.69,133.31Zm2.53,2.53a1,1,0,1,0,1,1A1,1,0,0,0,562.22,135.84Zm2.52,2.52a1,1,0,1,0,1,1A1,1,0,0,0,564.74,138.36Zm2.53,2.53a1,1,0,1,0,1,1A1,1,0,0,0,567.27,140.89Zm2.52,2.52a1,1,0,1,0,1,1A1,1,0,0,0,569.79,143.41Zm2.53,2.53a1,1,0,1,0,1,1A1,1,0,0,0,572.32,145.94Zm2.53,2.53a1,1,0,1,0,1,1A1,1,0,0,0,574.85,148.47Zm2.52,2.52a1,1,0,1,0,1,1A1,1,0,0,0,577.37,151Zm2.53,2.53a1,1,0,1,0,1,1A1,1,0,0,0,579.9,153.52Zm2.52,2.53a1,1,0,1,0,1,1A1,1,0,0,0,582.42,156.05Zm2.53,2.52a1,1,0,1,0,1,1A1,1,0,0,0,585,158.57Zm2.53,2.53a1,1,0,1,0,1,1A1,1,0,0,0,587.48,161.1Zm2.52,2.52a1,1,0,0,0,0,2,1,1,0,0,0,0-2Zm2.53,2.53a1,1,0,1,0,1,1A1,1,0,0,0,592.53,166.15Zm2.53,2.53a1,1,0,0,0,0,2,1,1,0,0,0,0-2Zm2.52,2.52a1,1,0,1,0,1,1A1,1,0,0,0,597.58,171.2Zm2.53,2.53a1,1,0,1,0,1,1A1,1,0,0,0,600.11,173.73Zm2.52,2.52a1,1,0,1,0,1,1A1,1,0,0,0,602.63,176.25Zm2.53,2.53a1,1,0,1,0,1,1A1,1,0,0,0,605.16,178.78Zm2.53,2.53a1,1,0,1,0,0,2,1,1,0,0,0,0-2Zm2.52,2.52a1,1,0,1,0,1,1A1,1,0,0,0,610.21,183.83Zm2.53,2.53a1,1,0,1,0,1,1A1,1,0,0,0,612.74,186.36Zm2.52,2.52a1,1,0,1,0,1,1A1,1,0,0,0,615.26,188.88Zm2.53,2.53a1,1,0,1,0,1,1A1,1,0,0,0,617.79,191.41Zm2.53,2.53a1,1,0,1,0,1,1A1,1,0,0,0,620.32,193.94Zm2.52,2.52a1,1,0,1,0,1,1A1,1,0,0,0,622.84,196.46Zm2.53,2.53a1,1,0,1,0,1,1A1,1,0,0,0,625.37,199Zm2.52,2.53a1,1,0,1,0,1,1A1,1,0,0,0,627.89,201.52Zm2.53,2.52a1,1,0,1,0,1,1A1,1,0,0,0,630.42,204Zm2.53,2.53a1,1,0,1,0,1,1A1,1,0,0,0,633,206.57Zm2.52,2.52a1,1,0,1,0,0,2,1,1,0,0,0,0-2Zm2.53,2.53a1,1,0,1,0,1,1A1,1,0,0,0,638,211.62Zm2.53,2.53a1,1,0,1,0,1,1A1,1,0,0,0,640.53,214.15Zm2.52,2.52a1,1,0,1,0,1,1A1,1,0,0,0,643.05,216.67Zm2.53,2.53a1,1,0,1,0,1,1A1,1,0,0,0,645.58,219.2Zm2.52,2.52a1,1,0,1,0,0,2,1,1,0,0,0,0-2Zm2.53,2.53a1,1,0,1,0,1,1A1,1,0,0,0,650.63,224.25Zm2.53,2.53a1,1,0,1,0,0,2,1,1,0,0,0,0-2Zm2.52,2.52a1,1,0,1,0,1,1A1,1,0,0,0,655.68,229.3Zm2.53,2.53a1,1,0,1,0,1,1A1,1,0,0,0,658.21,231.83Zm2.52,2.52a1,1,0,1,0,1,1A1,1,0,0,0,660.73,234.35Zm2.53,2.53a1,1,0,1,0,1,1A1,1,0,0,0,663.26,236.88Zm2.53,2.53a1,1,0,1,0,1,1A1,1,0,0,0,665.79,239.41Zm2.52,2.52a1,1,0,1,0,1,1A1,1,0,0,0,668.31,241.93Zm2.53,2.53a1,1,0,1,0,1,1A1,1,0,0,0,670.84,244.46Zm2.52,2.53a1,1,0,1,0,1,1A1,1,0,0,0,673.36,247Zm2.53,2.52a1,1,0,1,0,1,1A1,1,0,0,0,675.89,249.51Zm2.53,2.53a1,1,0,1,0,1,1A1,1,0,0,0,678.42,252Zm2.52,2.52a1,1,0,1,0,0,2,1,1,0,0,0,0-2Zm2.53,2.53a1,1,0,1,0,1,1A1,1,0,0,0,683.47,257.09Zm2.53,2.53a1,1,0,1,0,1,1A1,1,0,0,0,686,259.62Zm2.52,2.52a1,1,0,1,0,1,1A1,1,0,0,0,688.52,262.14Zm2.53,2.53a1,1,0,1,0,1,1A1,1,0,0,0,691.05,264.67Zm2.52,2.52a1,1,0,1,0,0,2,1,1,0,0,0,0-2Zm2.53,2.53a1,1,0,1,0,1,1A1,1,0,0,0,696.1,269.72Zm2.53,2.53a1,1,0,0,0,0,2,1,1,0,0,0,0-2ZM557.16,135.84a1,1,0,1,0,1,1A1,1,0,0,0,557.16,135.84Zm2.53,2.52a1,1,0,1,0,1,1A1,1,0,0,0,559.69,138.36Zm2.53,2.53a1,1,0,1,0,1,1A1,1,0,0,0,562.22,140.89Zm2.52,2.52a1,1,0,1,0,1,1A1,1,0,0,0,564.74,143.41Zm2.53,2.53a1,1,0,1,0,1,1A1,1,0,0,0,567.27,145.94Zm2.52,2.53a1,1,0,1,0,1,1A1,1,0,0,0,569.79,148.47Zm2.53,2.52a1,1,0,1,0,1,1A1,1,0,0,0,572.32,151Zm2.53,2.53a1,1,0,1,0,1,1A1,1,0,0,0,574.85,153.52Zm2.52,2.53a1,1,0,1,0,1,1A1,1,0,0,0,577.37,156.05Zm2.53,2.52a1,1,0,1,0,1,1A1,1,0,0,0,579.9,158.57Zm2.52,2.53a1,1,0,1,0,1,1A1,1,0,0,0,582.42,161.1Zm2.53,2.52a1,1,0,1,0,1,1A1,1,0,0,0,585,163.62Zm2.53,2.53a1,1,0,1,0,1,1A1,1,0,0,0,587.48,166.15Zm2.52,2.53a1,1,0,1,0,1,1A1,1,0,0,0,590,168.68Zm2.53,2.52a1,1,0,1,0,1,1A1,1,0,0,0,592.53,171.2Zm2.53,2.53a1,1,0,1,0,1,1A1,1,0,0,0,595.06,173.73Zm2.52,2.52a1,1,0,1,0,1,1A1,1,0,0,0,597.58,176.25Zm2.53,2.53a1,1,0,1,0,1,1A1,1,0,0,0,600.11,178.78Zm2.52,2.53a1,1,0,1,0,1,1A1,1,0,0,0,602.63,181.31Zm2.53,2.52a1,1,0,1,0,1,1A1,1,0,0,0,605.16,183.83Zm2.53,2.53a1,1,0,1,0,1,1A1,1,0,0,0,607.69,186.36Zm2.52,2.52a1,1,0,1,0,1,1A1,1,0,0,0,610.21,188.88Zm2.53,2.53a1,1,0,1,0,1,1A1,1,0,0,0,612.74,191.41Zm2.52,2.53a1,1,0,1,0,1,1A1,1,0,0,0,615.26,193.94Zm2.53,2.52a1,1,0,1,0,1,1A1,1,0,0,0,617.79,196.46Zm2.53,2.53a1,1,0,1,0,1,1A1,1,0,0,0,620.32,199Zm2.52,2.53a1,1,0,1,0,1,1A1,1,0,0,0,622.84,201.52Zm2.53,2.52a1,1,0,1,0,1,1A1,1,0,0,0,625.37,204Zm2.52,2.53a1,1,0,1,0,1,1A1,1,0,0,0,627.89,206.57Zm2.53,2.52a1,1,0,1,0,1,1A1,1,0,0,0,630.42,209.09Zm2.53,2.53a1,1,0,1,0,1,1A1,1,0,0,0,633,211.62Zm2.52,2.53a1,1,0,1,0,1,1A1,1,0,0,0,635.47,214.15Zm2.53,2.52a1,1,0,1,0,1,1A1,1,0,0,0,638,216.67Zm2.53,2.53a1,1,0,1,0,1,1A1,1,0,0,0,640.53,219.2Zm2.52,2.52a1,1,0,1,0,1,1A1,1,0,0,0,643.05,221.72Zm2.53,2.53a1,1,0,1,0,1,1A1,1,0,0,0,645.58,224.25Zm2.52,2.53a1,1,0,1,0,1,1A1,1,0,0,0,648.1,226.78Zm2.53,2.52a1,1,0,1,0,1,1A1,1,0,0,0,650.63,229.3Zm2.53,2.53a1,1,0,1,0,1,1A1,1,0,0,0,653.16,231.83Zm2.52,2.52a1,1,0,1,0,1,1A1,1,0,0,0,655.68,234.35Zm2.53,2.53a1,1,0,1,0,1,1A1,1,0,0,0,658.21,236.88Zm2.52,2.53a1,1,0,1,0,1,1A1,1,0,0,0,660.73,239.41Zm2.53,2.52a1,1,0,1,0,1,1A1,1,0,0,0,663.26,241.93Zm2.53,2.53a1,1,0,1,0,1,1A1,1,0,0,0,665.79,244.46Zm2.52,2.53a1,1,0,1,0,1,1A1,1,0,0,0,668.31,247Zm2.53,2.52a1,1,0,1,0,1,1A1,1,0,0,0,670.84,249.51Zm2.52,2.53a1,1,0,1,0,1,1A1,1,0,0,0,673.36,252Zm2.53,2.52a1,1,0,1,0,1,1A1,1,0,0,0,675.89,254.56Zm2.53,2.53a1,1,0,1,0,1,1A1,1,0,0,0,678.42,257.09Zm2.52,2.53a1,1,0,1,0,1,1A1,1,0,0,0,680.94,259.62Zm2.53,2.52a1,1,0,1,0,1,1A1,1,0,0,0,683.47,262.14Zm2.53,2.53a1,1,0,1,0,1,1A1,1,0,0,0,686,264.67Zm2.52,2.52a1,1,0,1,0,1,1A1,1,0,0,0,688.52,267.19Zm2.53,2.53a1,1,0,1,0,1,1A1,1,0,0,0,691.05,269.72Zm2.52,2.53a1,1,0,1,0,1,1A1,1,0,0,0,693.57,272.25ZM557.16,140.89a1,1,0,1,0,1,1A1,1,0,0,0,557.16,140.89Zm2.53,2.52a1,1,0,1,0,1,1A1,1,0,0,0,559.69,143.41Zm2.53,2.53a1,1,0,1,0,1,1A1,1,0,0,0,562.22,145.94Zm2.52,2.53a1,1,0,1,0,1,1A1,1,0,0,0,564.74,148.47Zm2.53,2.52a1,1,0,1,0,1,1A1,1,0,0,0,567.27,151Zm2.52,2.53a1,1,0,1,0,1,1A1,1,0,0,0,569.79,153.52Zm2.53,2.53a1,1,0,1,0,1,1A1,1,0,0,0,572.32,156.05Zm2.53,2.52a1,1,0,1,0,1,1A1,1,0,0,0,574.85,158.57Zm2.52,2.53a1,1,0,1,0,1,1A1,1,0,0,0,577.37,161.1Zm2.53,2.52a1,1,0,1,0,1,1A1,1,0,0,0,579.9,163.62Zm2.52,2.53a1,1,0,1,0,1,1A1,1,0,0,0,582.42,166.15Zm2.53,2.53a1,1,0,1,0,1,1A1,1,0,0,0,585,168.68Zm2.53,2.52a1,1,0,1,0,1,1A1,1,0,0,0,587.48,171.2Zm2.52,2.53a1,1,0,1,0,1,1A1,1,0,0,0,590,173.73Zm2.53,2.52a1,1,0,1,0,1,1A1,1,0,0,0,592.53,176.25Zm2.53,2.53a1,1,0,1,0,1,1A1,1,0,0,0,595.06,178.78Zm2.52,2.53a1,1,0,1,0,1,1A1,1,0,0,0,597.58,181.31Zm2.53,2.52a1,1,0,1,0,1,1A1,1,0,0,0,600.11,183.83Zm2.52,2.53a1,1,0,1,0,1,1A1,1,0,0,0,602.63,186.36Zm2.53,2.52a1,1,0,1,0,1,1A1,1,0,0,0,605.16,188.88Zm2.53,2.53a1,1,0,1,0,1,1A1,1,0,0,0,607.69,191.41Zm2.52,2.53a1,1,0,1,0,1,1A1,1,0,0,0,610.21,193.94Zm2.53,2.52a1,1,0,1,0,1,1A1,1,0,0,0,612.74,196.46Zm2.52,2.53a1,1,0,1,0,1,1A1,1,0,0,0,615.26,199Zm2.53,2.53a1,1,0,1,0,1,1A1,1,0,0,0,617.79,201.52Zm2.53,2.52a1,1,0,1,0,1,1A1,1,0,0,0,620.32,204Zm2.52,2.53a1,1,0,1,0,1,1A1,1,0,0,0,622.84,206.57Zm2.53,2.52a1,1,0,1,0,1,1A1,1,0,0,0,625.37,209.09Zm2.52,2.53a1,1,0,1,0,1,1A1,1,0,0,0,627.89,211.62Zm2.53,2.53a1,1,0,1,0,1,1A1,1,0,0,0,630.42,214.15Zm2.53,2.52a1,1,0,1,0,1,1A1,1,0,0,0,633,216.67Zm2.52,2.53a1,1,0,1,0,1,1A1,1,0,0,0,635.47,219.2Zm2.53,2.52a1,1,0,1,0,1,1A1,1,0,0,0,638,221.72Zm2.53,2.53a1,1,0,1,0,1,1A1,1,0,0,0,640.53,224.25Zm2.52,2.53a1,1,0,1,0,1,1A1,1,0,0,0,643.05,226.78Zm2.53,2.52a1,1,0,1,0,1,1A1,1,0,0,0,645.58,229.3Zm2.52,2.53a1,1,0,1,0,1,1A1,1,0,0,0,648.1,231.83Zm2.53,2.52a1,1,0,1,0,1,1A1,1,0,0,0,650.63,234.35Zm2.53,2.53a1,1,0,1,0,1,1A1,1,0,0,0,653.16,236.88Zm2.52,2.53a1,1,0,1,0,1,1A1,1,0,0,0,655.68,239.41Zm2.53,2.52a1,1,0,1,0,1,1A1,1,0,0,0,658.21,241.93Zm2.52,2.53a1,1,0,1,0,1,1A1,1,0,0,0,660.73,244.46Zm2.53,2.53a1,1,0,1,0,1,1A1,1,0,0,0,663.26,247Zm2.53,2.52a1,1,0,1,0,1,1A1,1,0,0,0,665.79,249.51Zm2.52,2.53a1,1,0,1,0,1,1A1,1,0,0,0,668.31,252Zm2.53,2.52a1,1,0,1,0,1,1A1,1,0,0,0,670.84,254.56Zm2.52,2.53a1,1,0,1,0,1,1A1,1,0,0,0,673.36,257.09Zm2.53,2.53a1,1,0,1,0,1,1A1,1,0,0,0,675.89,259.62Zm2.53,2.52a1,1,0,1,0,1,1A1,1,0,0,0,678.42,262.14Zm2.52,2.53a1,1,0,1,0,1,1A1,1,0,0,0,680.94,264.67Zm2.53,2.52a1,1,0,1,0,1,1A1,1,0,0,0,683.47,267.19Zm2.53,2.53a1,1,0,1,0,1,1A1,1,0,0,0,686,269.72Zm2.52,2.53a1,1,0,1,0,1,1A1,1,0,0,0,688.52,272.25ZM557.16,145.94a1,1,0,1,0,1,1A1,1,0,0,0,557.16,145.94Zm2.53,2.53a1,1,0,1,0,1,1A1,1,0,0,0,559.69,148.47Zm2.53,2.52a1,1,0,1,0,1,1A1,1,0,0,0,562.22,151Zm2.52,2.53a1,1,0,1,0,1,1A1,1,0,0,0,564.74,153.52Zm2.53,2.53a1,1,0,1,0,1,1A1,1,0,0,0,567.27,156.05Zm2.52,2.52a1,1,0,1,0,1,1A1,1,0,0,0,569.79,158.57Zm2.53,2.53a1,1,0,1,0,1,1A1,1,0,0,0,572.32,161.1Zm2.53,2.52a1,1,0,1,0,1,1A1,1,0,0,0,574.85,163.62Zm2.52,2.53a1,1,0,1,0,1,1A1,1,0,0,0,577.37,166.15Zm2.53,2.53a1,1,0,1,0,1,1A1,1,0,0,0,579.9,168.68Zm2.52,2.52a1,1,0,1,0,1,1A1,1,0,0,0,582.42,171.2Zm2.53,2.53a1,1,0,1,0,1,1A1,1,0,0,0,585,173.73Zm2.53,2.52a1,1,0,1,0,1,1A1,1,0,0,0,587.48,176.25Zm2.52,2.53a1,1,0,1,0,1,1A1,1,0,0,0,590,178.78Zm2.53,2.53a1,1,0,1,0,1,1A1,1,0,0,0,592.53,181.31Zm2.53,2.52a1,1,0,1,0,1,1A1,1,0,0,0,595.06,183.83Zm2.52,2.53a1,1,0,1,0,1,1A1,1,0,0,0,597.58,186.36Zm2.53,2.52a1,1,0,1,0,1,1A1,1,0,0,0,600.11,188.88Zm2.52,2.53a1,1,0,1,0,1,1A1,1,0,0,0,602.63,191.41Zm2.53,2.53a1,1,0,1,0,1,1A1,1,0,0,0,605.16,193.94Zm2.53,2.52a1,1,0,1,0,1,1A1,1,0,0,0,607.69,196.46Zm2.52,2.53a1,1,0,1,0,1,1A1,1,0,0,0,610.21,199Zm2.53,2.53a1,1,0,1,0,1,1A1,1,0,0,0,612.74,201.52Zm2.52,2.52a1,1,0,1,0,1,1A1,1,0,0,0,615.26,204Zm2.53,2.53a1,1,0,1,0,1,1A1,1,0,0,0,617.79,206.57Zm2.53,2.52a1,1,0,1,0,1,1A1,1,0,0,0,620.32,209.09Zm2.52,2.53a1,1,0,1,0,1,1A1,1,0,0,0,622.84,211.62Zm2.53,2.53a1,1,0,1,0,1,1A1,1,0,0,0,625.37,214.15Zm2.52,2.52a1,1,0,1,0,1,1A1,1,0,0,0,627.89,216.67Zm2.53,2.53a1,1,0,1,0,1,1A1,1,0,0,0,630.42,219.2Zm2.53,2.52a1,1,0,1,0,1,1A1,1,0,0,0,633,221.72Zm2.52,2.53a1,1,0,1,0,1,1A1,1,0,0,0,635.47,224.25Zm2.53,2.53a1,1,0,1,0,1,1A1,1,0,0,0,638,226.78Zm2.53,2.52a1,1,0,1,0,1,1A1,1,0,0,0,640.53,229.3Zm2.52,2.53a1,1,0,1,0,1,1A1,1,0,0,0,643.05,231.83Zm2.53,2.52a1,1,0,1,0,1,1A1,1,0,0,0,645.58,234.35Zm2.52,2.53a1,1,0,1,0,1,1A1,1,0,0,0,648.1,236.88Zm2.53,2.53a1,1,0,1,0,1,1A1,1,0,0,0,650.63,239.41Zm2.53,2.52a1,1,0,1,0,1,1A1,1,0,0,0,653.16,241.93Zm2.52,2.53a1,1,0,1,0,1,1A1,1,0,0,0,655.68,244.46Zm2.53,2.53a1,1,0,1,0,1,1A1,1,0,0,0,658.21,247Zm2.52,2.52a1,1,0,1,0,1,1A1,1,0,0,0,660.73,249.51Zm2.53,2.53a1,1,0,1,0,1,1A1,1,0,0,0,663.26,252Zm2.53,2.52a1,1,0,1,0,1,1A1,1,0,0,0,665.79,254.56Zm2.52,2.53a1,1,0,1,0,1,1A1,1,0,0,0,668.31,257.09Zm2.53,2.53a1,1,0,1,0,1,1A1,1,0,0,0,670.84,259.62Zm2.52,2.52a1,1,0,1,0,1,1A1,1,0,0,0,673.36,262.14Zm2.53,2.53a1,1,0,1,0,1,1A1,1,0,0,0,675.89,264.67Zm2.53,2.52a1,1,0,1,0,1,1A1,1,0,0,0,678.42,267.19Zm2.52,2.53a1,1,0,1,0,1,1A1,1,0,0,0,680.94,269.72Zm2.53,2.53a1,1,0,1,0,1,1A1,1,0,0,0,683.47,272.25ZM557.16,151a1,1,0,0,0,0,2,1,1,0,0,0,0-2Zm2.53,2.53a1,1,0,1,0,1,1A1,1,0,0,0,559.69,153.52Zm2.53,2.53a1,1,0,0,0,0,2,1,1,0,0,0,0-2Zm2.52,2.52a1,1,0,1,0,1,1A1,1,0,0,0,564.74,158.57Zm2.53,2.53a1,1,0,1,0,1,1A1,1,0,0,0,567.27,161.1Zm2.52,2.52a1,1,0,0,0,0,2,1,1,0,0,0,0-2Zm2.53,2.53a1,1,0,1,0,1,1A1,1,0,0,0,572.32,166.15Zm2.53,2.53a1,1,0,0,0,0,2,1,1,0,0,0,0-2Zm2.52,2.52a1,1,0,1,0,1,1A1,1,0,0,0,577.37,171.2Zm2.53,2.53a1,1,0,1,0,1,1A1,1,0,0,0,579.9,173.73Zm2.52,2.52a1,1,0,1,0,1,1A1,1,0,0,0,582.42,176.25Zm2.53,2.53a1,1,0,1,0,1,1A1,1,0,0,0,585,178.78Zm2.53,2.53a1,1,0,1,0,1,1A1,1,0,0,0,587.48,181.31Zm2.52,2.52a1,1,0,1,0,1,1A1,1,0,0,0,590,183.83Zm2.53,2.53a1,1,0,1,0,1,1A1,1,0,0,0,592.53,186.36Zm2.53,2.52a1,1,0,1,0,1,1A1,1,0,0,0,595.06,188.88Zm2.52,2.53a1,1,0,1,0,1,1A1,1,0,0,0,597.58,191.41Zm2.53,2.53a1,1,0,1,0,1,1A1,1,0,0,0,600.11,193.94Zm2.52,2.52a1,1,0,0,0,0,2,1,1,0,0,0,0-2Zm2.53,2.53a1,1,0,1,0,1,1A1,1,0,0,0,605.16,199Zm2.53,2.53a1,1,0,1,0,0,2,1,1,0,0,0,0-2Zm2.52,2.52a1,1,0,1,0,1,1A1,1,0,0,0,610.21,204Zm2.53,2.53a1,1,0,1,0,1,1A1,1,0,0,0,612.74,206.57Zm2.52,2.52a1,1,0,1,0,0,2,1,1,0,0,0,0-2Zm2.53,2.53a1,1,0,1,0,1,1A1,1,0,0,0,617.79,211.62Zm2.53,2.53a1,1,0,1,0,0,2,1,1,0,0,0,0-2Zm2.52,2.52a1,1,0,1,0,1,1A1,1,0,0,0,622.84,216.67Zm2.53,2.53a1,1,0,1,0,1,1A1,1,0,0,0,625.37,219.2Zm2.52,2.52a1,1,0,1,0,1,1A1,1,0,0,0,627.89,221.72Zm2.53,2.53a1,1,0,1,0,1,1A1,1,0,0,0,630.42,224.25Zm2.53,2.53a1,1,0,1,0,1,1A1,1,0,0,0,633,226.78Zm2.52,2.52a1,1,0,1,0,1,1A1,1,0,0,0,635.47,229.3Zm2.53,2.53a1,1,0,1,0,1,1A1,1,0,0,0,638,231.83Zm2.53,2.52a1,1,0,1,0,1,1A1,1,0,0,0,640.53,234.35Zm2.52,2.53a1,1,0,1,0,1,1A1,1,0,0,0,643.05,236.88Zm2.53,2.53a1,1,0,1,0,1,1A1,1,0,0,0,645.58,239.41Zm2.52,2.52a1,1,0,0,0,0,2,1,1,0,0,0,0-2Zm2.53,2.53a1,1,0,1,0,1,1A1,1,0,0,0,650.63,244.46Zm2.53,2.53a1,1,0,0,0,0,2,1,1,0,0,0,0-2Zm2.52,2.52a1,1,0,1,0,1,1A1,1,0,0,0,655.68,249.51Zm2.53,2.53a1,1,0,1,0,1,1A1,1,0,0,0,658.21,252Zm2.52,2.52a1,1,0,0,0,0,2,1,1,0,0,0,0-2Zm2.53,2.53a1,1,0,1,0,1,1A1,1,0,0,0,663.26,257.09Zm2.53,2.53a1,1,0,0,0,0,2,1,1,0,0,0,0-2Zm2.52,2.52a1,1,0,1,0,1,1A1,1,0,0,0,668.31,262.14Zm2.53,2.53a1,1,0,1,0,1,1A1,1,0,0,0,670.84,264.67Zm2.52,2.52a1,1,0,1,0,1,1A1,1,0,0,0,673.36,267.19Zm2.53,2.53a1,1,0,1,0,1,1A1,1,0,0,0,675.89,269.72Zm2.53,2.53a1,1,0,0,0,0,2,1,1,0,0,0,0-2ZM557.16,156.05a1,1,0,1,0,1,1A1,1,0,0,0,557.16,156.05Zm2.53,2.52a1,1,0,1,0,1,1A1,1,0,0,0,559.69,158.57Zm2.53,2.53a1,1,0,1,0,1,1A1,1,0,0,0,562.22,161.1Zm2.52,2.52a1,1,0,1,0,1,1A1,1,0,0,0,564.74,163.62Zm2.53,2.53a1,1,0,1,0,1,1A1,1,0,0,0,567.27,166.15Zm2.52,2.53a1,1,0,1,0,1,1A1,1,0,0,0,569.79,168.68Zm2.53,2.52a1,1,0,1,0,1,1A1,1,0,0,0,572.32,171.2Zm2.53,2.53a1,1,0,1,0,1,1A1,1,0,0,0,574.85,173.73Zm2.52,2.52a1,1,0,1,0,1,1A1,1,0,0,0,577.37,176.25Zm2.53,2.53a1,1,0,1,0,1,1A1,1,0,0,0,579.9,178.78Zm2.52,2.53a1,1,0,1,0,1,1A1,1,0,0,0,582.42,181.31Zm2.53,2.52a1,1,0,1,0,1,1A1,1,0,0,0,585,183.83Zm2.53,2.53a1,1,0,1,0,1,1A1,1,0,0,0,587.48,186.36Zm2.52,2.52a1,1,0,1,0,1,1A1,1,0,0,0,590,188.88Zm2.53,2.53a1,1,0,1,0,1,1A1,1,0,0,0,592.53,191.41Zm2.53,2.53a1,1,0,1,0,1,1A1,1,0,0,0,595.06,193.94Zm2.52,2.52a1,1,0,1,0,1,1A1,1,0,0,0,597.58,196.46Zm2.53,2.53a1,1,0,1,0,1,1A1,1,0,0,0,600.11,199Zm2.52,2.53a1,1,0,1,0,1,1A1,1,0,0,0,602.63,201.52Zm2.53,2.52a1,1,0,1,0,1,1A1,1,0,0,0,605.16,204Zm2.53,2.53a1,1,0,1,0,1,1A1,1,0,0,0,607.69,206.57Zm2.52,2.52a1,1,0,1,0,1,1A1,1,0,0,0,610.21,209.09Zm2.53,2.53a1,1,0,1,0,1,1A1,1,0,0,0,612.74,211.62Zm2.52,2.53a1,1,0,1,0,1,1A1,1,0,0,0,615.26,214.15Zm2.53,2.52a1,1,0,1,0,1,1A1,1,0,0,0,617.79,216.67Zm2.53,2.53a1,1,0,1,0,1,1A1,1,0,0,0,620.32,219.2Zm2.52,2.52a1,1,0,1,0,1,1A1,1,0,0,0,622.84,221.72Zm2.53,2.53a1,1,0,1,0,1,1A1,1,0,0,0,625.37,224.25Zm2.52,2.53a1,1,0,1,0,1,1A1,1,0,0,0,627.89,226.78Zm2.53,2.52a1,1,0,1,0,1,1A1,1,0,0,0,630.42,229.3Zm2.53,2.53a1,1,0,1,0,1,1A1,1,0,0,0,633,231.83Zm2.52,2.52a1,1,0,1,0,1,1A1,1,0,0,0,635.47,234.35Zm2.53,2.53a1,1,0,1,0,1,1A1,1,0,0,0,638,236.88Zm2.53,2.53a1,1,0,1,0,1,1A1,1,0,0,0,640.53,239.41Zm2.52,2.52a1,1,0,1,0,1,1A1,1,0,0,0,643.05,241.93Zm2.53,2.53a1,1,0,1,0,1,1A1,1,0,0,0,645.58,244.46ZM648.1,247a1,1,0,1,0,1,1A1,1,0,0,0,648.1,247Zm2.53,2.52a1,1,0,1,0,1,1A1,1,0,0,0,650.63,249.51Zm2.53,2.53a1,1,0,1,0,1,1A1,1,0,0,0,653.16,252Zm2.52,2.52a1,1,0,1,0,1,1A1,1,0,0,0,655.68,254.56Zm2.53,2.53a1,1,0,1,0,1,1A1,1,0,0,0,658.21,257.09Zm2.52,2.53a1,1,0,1,0,1,1A1,1,0,0,0,660.73,259.62Zm2.53,2.52a1,1,0,1,0,1,1A1,1,0,0,0,663.26,262.14Zm2.53,2.53a1,1,0,1,0,1,1A1,1,0,0,0,665.79,264.67Zm2.52,2.52a1,1,0,1,0,1,1A1,1,0,0,0,668.31,267.19Zm2.53,2.53a1,1,0,1,0,1,1A1,1,0,0,0,670.84,269.72Zm2.52,2.53a1,1,0,1,0,1,1A1,1,0,0,0,673.36,272.25ZM557.16,161.1a1,1,0,1,0,1,1A1,1,0,0,0,557.16,161.1Zm2.53,2.52a1,1,0,1,0,1,1A1,1,0,0,0,559.69,163.62Zm2.53,2.53a1,1,0,1,0,1,1A1,1,0,0,0,562.22,166.15Zm2.52,2.53a1,1,0,1,0,1,1A1,1,0,0,0,564.74,168.68Zm2.53,2.52a1,1,0,1,0,1,1A1,1,0,0,0,567.27,171.2Zm2.52,2.53a1,1,0,1,0,1,1A1,1,0,0,0,569.79,173.73Zm2.53,2.52a1,1,0,1,0,1,1A1,1,0,0,0,572.32,176.25Zm2.53,2.53a1,1,0,1,0,1,1A1,1,0,0,0,574.85,178.78Zm2.52,2.53a1,1,0,1,0,1,1A1,1,0,0,0,577.37,181.31Zm2.53,2.52a1,1,0,1,0,1,1A1,1,0,0,0,579.9,183.83Zm2.52,2.53a1,1,0,1,0,1,1A1,1,0,0,0,582.42,186.36Zm2.53,2.52a1,1,0,1,0,1,1A1,1,0,0,0,585,188.88Zm2.53,2.53a1,1,0,1,0,1,1A1,1,0,0,0,587.48,191.41Zm2.52,2.53a1,1,0,1,0,1,1A1,1,0,0,0,590,193.94Zm2.53,2.52a1,1,0,1,0,1,1A1,1,0,0,0,592.53,196.46Zm2.53,2.53a1,1,0,1,0,1,1A1,1,0,0,0,595.06,199Zm2.52,2.53a1,1,0,1,0,1,1A1,1,0,0,0,597.58,201.52Zm2.53,2.52a1,1,0,1,0,1,1A1,1,0,0,0,600.11,204Zm2.52,2.53a1,1,0,1,0,1,1A1,1,0,0,0,602.63,206.57Zm2.53,2.52a1,1,0,1,0,1,1A1,1,0,0,0,605.16,209.09Zm2.53,2.53a1,1,0,1,0,1,1A1,1,0,0,0,607.69,211.62Zm2.52,2.53a1,1,0,1,0,1,1A1,1,0,0,0,610.21,214.15Zm2.53,2.52a1,1,0,1,0,1,1A1,1,0,0,0,612.74,216.67Zm2.52,2.53a1,1,0,1,0,1,1A1,1,0,0,0,615.26,219.2Zm2.53,2.52a1,1,0,1,0,1,1A1,1,0,0,0,617.79,221.72Zm2.53,2.53a1,1,0,1,0,1,1A1,1,0,0,0,620.32,224.25Zm2.52,2.53a1,1,0,1,0,1,1A1,1,0,0,0,622.84,226.78Zm2.53,2.52a1,1,0,1,0,1,1A1,1,0,0,0,625.37,229.3Zm2.52,2.53a1,1,0,1,0,1,1A1,1,0,0,0,627.89,231.83Zm2.53,2.52a1,1,0,1,0,1,1A1,1,0,0,0,630.42,234.35Zm2.53,2.53a1,1,0,1,0,1,1A1,1,0,0,0,633,236.88Zm2.52,2.53a1,1,0,1,0,1,1A1,1,0,0,0,635.47,239.41Zm2.53,2.52a1,1,0,1,0,1,1A1,1,0,0,0,638,241.93Zm2.53,2.53a1,1,0,1,0,1,1A1,1,0,0,0,640.53,244.46Zm2.52,2.53a1,1,0,1,0,1,1A1,1,0,0,0,643.05,247Zm2.53,2.52a1,1,0,1,0,1,1A1,1,0,0,0,645.58,249.51ZM648.1,252a1,1,0,1,0,1,1A1,1,0,0,0,648.1,252Zm2.53,2.52a1,1,0,1,0,1,1A1,1,0,0,0,650.63,254.56Zm2.53,2.53a1,1,0,1,0,1,1A1,1,0,0,0,653.16,257.09Zm2.52,2.53a1,1,0,1,0,1,1A1,1,0,0,0,655.68,259.62Zm2.53,2.52a1,1,0,1,0,1,1A1,1,0,0,0,658.21,262.14Zm2.52,2.53a1,1,0,1,0,1,1A1,1,0,0,0,660.73,264.67Zm2.53,2.52a1,1,0,1,0,1,1A1,1,0,0,0,663.26,267.19Zm2.53,2.53a1,1,0,1,0,1,1A1,1,0,0,0,665.79,269.72Zm2.52,2.53a1,1,0,1,0,1,1A1,1,0,0,0,668.31,272.25ZM557.16,166.15a1,1,0,1,0,1,1A1,1,0,0,0,557.16,166.15Zm2.53,2.53a1,1,0,1,0,1,1A1,1,0,0,0,559.69,168.68Zm2.53,2.52a1,1,0,1,0,1,1A1,1,0,0,0,562.22,171.2Zm2.52,2.53a1,1,0,1,0,1,1A1,1,0,0,0,564.74,173.73Zm2.53,2.52a1,1,0,1,0,1,1A1,1,0,0,0,567.27,176.25Zm2.52,2.53a1,1,0,1,0,1,1A1,1,0,0,0,569.79,178.78Zm2.53,2.53a1,1,0,1,0,1,1A1,1,0,0,0,572.32,181.31Zm2.53,2.52a1,1,0,1,0,1,1A1,1,0,0,0,574.85,183.83Zm2.52,2.53a1,1,0,1,0,1,1A1,1,0,0,0,577.37,186.36Zm2.53,2.52a1,1,0,1,0,1,1A1,1,0,0,0,579.9,188.88Zm2.52,2.53a1,1,0,1,0,1,1A1,1,0,0,0,582.42,191.41Zm2.53,2.53a1,1,0,1,0,1,1A1,1,0,0,0,585,193.94Zm2.53,2.52a1,1,0,1,0,1,1A1,1,0,0,0,587.48,196.46ZM590,199a1,1,0,1,0,1,1A1,1,0,0,0,590,199Zm2.53,2.53a1,1,0,1,0,1,1A1,1,0,0,0,592.53,201.52Zm2.53,2.52a1,1,0,1,0,1,1A1,1,0,0,0,595.06,204Zm2.52,2.53a1,1,0,1,0,1,1A1,1,0,0,0,597.58,206.57Zm2.53,2.52a1,1,0,1,0,1,1A1,1,0,0,0,600.11,209.09Zm2.52,2.53a1,1,0,1,0,1,1A1,1,0,0,0,602.63,211.62Zm2.53,2.53a1,1,0,1,0,1,1A1,1,0,0,0,605.16,214.15Zm2.53,2.52a1,1,0,1,0,1,1A1,1,0,0,0,607.69,216.67Zm2.52,2.53a1,1,0,1,0,1,1A1,1,0,0,0,610.21,219.2Zm2.53,2.52a1,1,0,1,0,1,1A1,1,0,0,0,612.74,221.72Zm2.52,2.53a1,1,0,1,0,1,1A1,1,0,0,0,615.26,224.25Zm2.53,2.53a1,1,0,1,0,1,1A1,1,0,0,0,617.79,226.78Zm2.53,2.52a1,1,0,1,0,1,1A1,1,0,0,0,620.32,229.3Zm2.52,2.53a1,1,0,1,0,1,1A1,1,0,0,0,622.84,231.83Zm2.53,2.52a1,1,0,1,0,1,1A1,1,0,0,0,625.37,234.35Zm2.52,2.53a1,1,0,1,0,1,1A1,1,0,0,0,627.89,236.88Zm2.53,2.53a1,1,0,1,0,1,1A1,1,0,0,0,630.42,239.41Zm2.53,2.52a1,1,0,1,0,1,1A1,1,0,0,0,633,241.93Zm2.52,2.53a1,1,0,1,0,1,1A1,1,0,0,0,635.47,244.46ZM638,247a1,1,0,1,0,1,1A1,1,0,0,0,638,247Zm2.53,2.52a1,1,0,1,0,1,1A1,1,0,0,0,640.53,249.51Zm2.52,2.53a1,1,0,1,0,1,1A1,1,0,0,0,643.05,252Zm2.53,2.52a1,1,0,1,0,1,1A1,1,0,0,0,645.58,254.56Zm2.52,2.53a1,1,0,1,0,1,1A1,1,0,0,0,648.1,257.09Zm2.53,2.53a1,1,0,1,0,1,1A1,1,0,0,0,650.63,259.62Zm2.53,2.52a1,1,0,1,0,1,1A1,1,0,0,0,653.16,262.14Zm2.52,2.53a1,1,0,1,0,1,1A1,1,0,0,0,655.68,264.67Zm2.53,2.52a1,1,0,1,0,1,1A1,1,0,0,0,658.21,267.19Zm2.52,2.53a1,1,0,1,0,1,1A1,1,0,0,0,660.73,269.72Zm2.53,2.53a1,1,0,1,0,1,1A1,1,0,0,0,663.26,272.25ZM557.16,171.2a1,1,0,1,0,1,1A1,1,0,0,0,557.16,171.2Zm2.53,2.53a1,1,0,1,0,1,1A1,1,0,0,0,559.69,173.73Zm2.53,2.52a1,1,0,1,0,1,1A1,1,0,0,0,562.22,176.25Zm2.52,2.53a1,1,0,1,0,1,1A1,1,0,0,0,564.74,178.78Zm2.53,2.53a1,1,0,1,0,1,1A1,1,0,0,0,567.27,181.31Zm2.52,2.52a1,1,0,1,0,1,1A1,1,0,0,0,569.79,183.83Zm2.53,2.53a1,1,0,1,0,1,1A1,1,0,0,0,572.32,186.36Zm2.53,2.52a1,1,0,1,0,1,1A1,1,0,0,0,574.85,188.88Zm2.52,2.53a1,1,0,1,0,1,1A1,1,0,0,0,577.37,191.41Zm2.53,2.53a1,1,0,1,0,1,1A1,1,0,0,0,579.9,193.94Zm2.52,2.52a1,1,0,1,0,1,1A1,1,0,0,0,582.42,196.46ZM585,199a1,1,0,1,0,1,1A1,1,0,0,0,585,199Zm2.53,2.53a1,1,0,1,0,1,1A1,1,0,0,0,587.48,201.52ZM590,204a1,1,0,1,0,1,1A1,1,0,0,0,590,204Zm2.53,2.53a1,1,0,1,0,1,1A1,1,0,0,0,592.53,206.57Zm2.53,2.52a1,1,0,1,0,1,1A1,1,0,0,0,595.06,209.09Zm2.52,2.53a1,1,0,1,0,1,1A1,1,0,0,0,597.58,211.62Zm2.53,2.53a1,1,0,1,0,1,1A1,1,0,0,0,600.11,214.15Zm2.52,2.52a1,1,0,1,0,1,1A1,1,0,0,0,602.63,216.67Zm2.53,2.53a1,1,0,1,0,1,1A1,1,0,0,0,605.16,219.2Zm2.53,2.52a1,1,0,1,0,1,1A1,1,0,0,0,607.69,221.72Zm2.52,2.53a1,1,0,1,0,1,1A1,1,0,0,0,610.21,224.25Zm2.53,2.53a1,1,0,1,0,1,1A1,1,0,0,0,612.74,226.78Zm2.52,2.52a1,1,0,1,0,1,1A1,1,0,0,0,615.26,229.3Zm2.53,2.53a1,1,0,1,0,1,1A1,1,0,0,0,617.79,231.83Zm2.53,2.52a1,1,0,1,0,1,1A1,1,0,0,0,620.32,234.35Zm2.52,2.53a1,1,0,1,0,1,1A1,1,0,0,0,622.84,236.88Zm2.53,2.53a1,1,0,1,0,1,1A1,1,0,0,0,625.37,239.41Zm2.52,2.52a1,1,0,1,0,1,1A1,1,0,0,0,627.89,241.93Zm2.53,2.53a1,1,0,1,0,1,1A1,1,0,0,0,630.42,244.46ZM633,247a1,1,0,1,0,1,1A1,1,0,0,0,633,247Zm2.52,2.52a1,1,0,1,0,1,1A1,1,0,0,0,635.47,249.51ZM638,252a1,1,0,1,0,1,1A1,1,0,0,0,638,252Zm2.53,2.52a1,1,0,1,0,1,1A1,1,0,0,0,640.53,254.56Zm2.52,2.53a1,1,0,1,0,1,1A1,1,0,0,0,643.05,257.09Zm2.53,2.53a1,1,0,1,0,1,1A1,1,0,0,0,645.58,259.62Zm2.52,2.52a1,1,0,1,0,1,1A1,1,0,0,0,648.1,262.14Zm2.53,2.53a1,1,0,1,0,1,1A1,1,0,0,0,650.63,264.67Zm2.53,2.52a1,1,0,1,0,1,1A1,1,0,0,0,653.16,267.19Zm2.52,2.53a1,1,0,1,0,1,1A1,1,0,0,0,655.68,269.72Zm2.53,2.53a1,1,0,1,0,1,1A1,1,0,0,0,658.21,272.25Zm-101.05-96a1,1,0,1,0,1,1A1,1,0,0,0,557.16,176.25Zm2.53,2.53a1,1,0,1,0,1,1A1,1,0,0,0,559.69,178.78Zm2.53,2.53a1,1,0,1,0,0,2,1,1,0,0,0,0-2Zm2.52,2.52a1,1,0,1,0,1,1A1,1,0,0,0,564.74,183.83Zm2.53,2.53a1,1,0,1,0,1,1A1,1,0,0,0,567.27,186.36Zm2.52,2.52a1,1,0,1,0,1,1A1,1,0,0,0,569.79,188.88Zm2.53,2.53a1,1,0,1,0,1,1A1,1,0,0,0,572.32,191.41Zm2.53,2.53a1,1,0,1,0,1,1A1,1,0,0,0,574.85,193.94Zm2.52,2.52a1,1,0,1,0,1,1A1,1,0,0,0,577.37,196.46ZM579.9,199a1,1,0,1,0,1,1A1,1,0,0,0,579.9,199Zm2.52,2.53a1,1,0,1,0,1,1A1,1,0,0,0,582.42,201.52ZM585,204a1,1,0,1,0,1,1A1,1,0,0,0,585,204Zm2.53,2.53a1,1,0,1,0,1,1A1,1,0,0,0,587.48,206.57Zm2.52,2.52a1,1,0,1,0,0,2,1,1,0,0,0,0-2Zm2.53,2.53a1,1,0,1,0,1,1A1,1,0,0,0,592.53,211.62Zm2.53,2.53a1,1,0,0,0,0,2,1,1,0,0,0,0-2Zm2.52,2.52a1,1,0,1,0,1,1A1,1,0,0,0,597.58,216.67Zm2.53,2.53a1,1,0,1,0,1,1A1,1,0,0,0,600.11,219.2Zm2.52,2.52a1,1,0,1,0,0,2,1,1,0,0,0,0-2Zm2.53,2.53a1,1,0,1,0,1,1A1,1,0,0,0,605.16,224.25Zm2.53,2.53a1,1,0,1,0,0,2,1,1,0,0,0,0-2Zm2.52,2.52a1,1,0,1,0,1,1A1,1,0,0,0,610.21,229.3Zm2.53,2.53a1,1,0,1,0,1,1A1,1,0,0,0,612.74,231.83Zm2.52,2.52a1,1,0,1,0,1,1A1,1,0,0,0,615.26,234.35Zm2.53,2.53a1,1,0,1,0,1,1A1,1,0,0,0,617.79,236.88Zm2.53,2.53a1,1,0,1,0,1,1A1,1,0,0,0,620.32,239.41Zm2.52,2.52a1,1,0,1,0,1,1A1,1,0,0,0,622.84,241.93Zm2.53,2.53a1,1,0,1,0,1,1A1,1,0,0,0,625.37,244.46Zm2.52,2.53a1,1,0,1,0,1,1A1,1,0,0,0,627.89,247Zm2.53,2.52a1,1,0,1,0,1,1A1,1,0,0,0,630.42,249.51ZM633,252a1,1,0,1,0,1,1A1,1,0,0,0,633,252Zm2.52,2.52a1,1,0,0,0,0,2,1,1,0,0,0,0-2Zm2.53,2.53a1,1,0,1,0,1,1A1,1,0,0,0,638,257.09Zm2.53,2.53a1,1,0,1,0,1,1A1,1,0,0,0,640.53,259.62Zm2.52,2.52a1,1,0,1,0,1,1A1,1,0,0,0,643.05,262.14Zm2.53,2.53a1,1,0,1,0,1,1A1,1,0,0,0,645.58,264.67Zm2.52,2.52a1,1,0,0,0,0,2,1,1,0,0,0,0-2Zm2.53,2.53a1,1,0,1,0,1,1A1,1,0,0,0,650.63,269.72Zm2.53,2.53a1,1,0,0,0,0,2,1,1,0,0,0,0-2Zm-96-90.94a1,1,0,1,0,1,1A1,1,0,0,0,557.16,181.31Zm2.53,2.52a1,1,0,1,0,1,1A1,1,0,0,0,559.69,183.83Zm2.53,2.53a1,1,0,1,0,1,1A1,1,0,0,0,562.22,186.36Zm2.52,2.52a1,1,0,1,0,1,1A1,1,0,0,0,564.74,188.88Zm2.53,2.53a1,1,0,1,0,1,1A1,1,0,0,0,567.27,191.41Zm2.52,2.53a1,1,0,1,0,1,1A1,1,0,0,0,569.79,193.94Zm2.53,2.52a1,1,0,1,0,1,1A1,1,0,0,0,572.32,196.46Zm2.53,2.53a1,1,0,1,0,1,1A1,1,0,0,0,574.85,199Zm2.52,2.53a1,1,0,1,0,1,1A1,1,0,0,0,577.37,201.52ZM579.9,204a1,1,0,1,0,1,1A1,1,0,0,0,579.9,204Zm2.52,2.53a1,1,0,1,0,1,1A1,1,0,0,0,582.42,206.57Zm2.53,2.52a1,1,0,1,0,1,1A1,1,0,0,0,585,209.09Zm2.53,2.53a1,1,0,1,0,1,1A1,1,0,0,0,587.48,211.62Zm2.52,2.53a1,1,0,1,0,1,1A1,1,0,0,0,590,214.15Zm2.53,2.52a1,1,0,1,0,1,1A1,1,0,0,0,592.53,216.67Zm2.53,2.53a1,1,0,1,0,1,1A1,1,0,0,0,595.06,219.2Zm2.52,2.52a1,1,0,1,0,1,1A1,1,0,0,0,597.58,221.72Zm2.53,2.53a1,1,0,1,0,1,1A1,1,0,0,0,600.11,224.25Zm2.52,2.53a1,1,0,1,0,1,1A1,1,0,0,0,602.63,226.78Zm2.53,2.52a1,1,0,1,0,1,1A1,1,0,0,0,605.16,229.3Zm2.53,2.53a1,1,0,1,0,1,1A1,1,0,0,0,607.69,231.83Zm2.52,2.52a1,1,0,1,0,1,1A1,1,0,0,0,610.21,234.35Zm2.53,2.53a1,1,0,1,0,1,1A1,1,0,0,0,612.74,236.88Zm2.52,2.53a1,1,0,1,0,1,1A1,1,0,0,0,615.26,239.41Zm2.53,2.52a1,1,0,1,0,1,1A1,1,0,0,0,617.79,241.93Zm2.53,2.53a1,1,0,1,0,1,1A1,1,0,0,0,620.32,244.46Zm2.52,2.53a1,1,0,1,0,1,1A1,1,0,0,0,622.84,247Zm2.53,2.52a1,1,0,1,0,1,1A1,1,0,0,0,625.37,249.51Zm2.52,2.53a1,1,0,1,0,1,1A1,1,0,0,0,627.89,252Zm2.53,2.52a1,1,0,1,0,1,1A1,1,0,0,0,630.42,254.56Zm2.53,2.53a1,1,0,1,0,1,1A1,1,0,0,0,633,257.09Zm2.52,2.53a1,1,0,1,0,1,1A1,1,0,0,0,635.47,259.62Zm2.53,2.52a1,1,0,1,0,1,1A1,1,0,0,0,638,262.14Zm2.53,2.53a1,1,0,1,0,1,1A1,1,0,0,0,640.53,264.67Zm2.52,2.52a1,1,0,1,0,1,1A1,1,0,0,0,643.05,267.19Zm2.53,2.53a1,1,0,1,0,1,1A1,1,0,0,0,645.58,269.72Zm2.52,2.53a1,1,0,1,0,1,1A1,1,0,0,0,648.1,272.25Zm-90.94-85.89a1,1,0,1,0,1,1A1,1,0,0,0,557.16,186.36Zm2.53,2.52a1,1,0,1,0,1,1A1,1,0,0,0,559.69,188.88Zm2.53,2.53a1,1,0,1,0,1,1A1,1,0,0,0,562.22,191.41Zm2.52,2.53a1,1,0,1,0,1,1A1,1,0,0,0,564.74,193.94Zm2.53,2.52a1,1,0,1,0,1,1A1,1,0,0,0,567.27,196.46Zm2.52,2.53a1,1,0,1,0,1,1A1,1,0,0,0,569.79,199Zm2.53,2.53a1,1,0,1,0,1,1A1,1,0,0,0,572.32,201.52Zm2.53,2.52a1,1,0,1,0,1,1A1,1,0,0,0,574.85,204Zm2.52,2.53a1,1,0,1,0,1,1A1,1,0,0,0,577.37,206.57Zm2.53,2.52a1,1,0,1,0,1,1A1,1,0,0,0,579.9,209.09Zm2.52,2.53a1,1,0,1,0,1,1A1,1,0,0,0,582.42,211.62Zm2.53,2.53a1,1,0,1,0,1,1A1,1,0,0,0,585,214.15Zm2.53,2.52a1,1,0,1,0,1,1A1,1,0,0,0,587.48,216.67ZM590,219.2a1,1,0,1,0,1,1A1,1,0,0,0,590,219.2Zm2.53,2.52a1,1,0,1,0,1,1A1,1,0,0,0,592.53,221.72Zm2.53,2.53a1,1,0,1,0,1,1A1,1,0,0,0,595.06,224.25Zm2.52,2.53a1,1,0,1,0,1,1A1,1,0,0,0,597.58,226.78Zm2.53,2.52a1,1,0,1,0,1,1A1,1,0,0,0,600.11,229.3Zm2.52,2.53a1,1,0,1,0,1,1A1,1,0,0,0,602.63,231.83Zm2.53,2.52a1,1,0,1,0,1,1A1,1,0,0,0,605.16,234.35Zm2.53,2.53a1,1,0,1,0,1,1A1,1,0,0,0,607.69,236.88Zm2.52,2.53a1,1,0,1,0,1,1A1,1,0,0,0,610.21,239.41Zm2.53,2.52a1,1,0,1,0,1,1A1,1,0,0,0,612.74,241.93Zm2.52,2.53a1,1,0,1,0,1,1A1,1,0,0,0,615.26,244.46Zm2.53,2.53a1,1,0,1,0,1,1A1,1,0,0,0,617.79,247Zm2.53,2.52a1,1,0,1,0,1,1A1,1,0,0,0,620.32,249.51Zm2.52,2.53a1,1,0,1,0,1,1A1,1,0,0,0,622.84,252Zm2.53,2.52a1,1,0,1,0,1,1A1,1,0,0,0,625.37,254.56Zm2.52,2.53a1,1,0,1,0,1,1A1,1,0,0,0,627.89,257.09Zm2.53,2.53a1,1,0,1,0,1,1A1,1,0,0,0,630.42,259.62Zm2.53,2.52a1,1,0,1,0,1,1A1,1,0,0,0,633,262.14Zm2.52,2.53a1,1,0,1,0,1,1A1,1,0,0,0,635.47,264.67Zm2.53,2.52a1,1,0,1,0,1,1A1,1,0,0,0,638,267.19Zm2.53,2.53a1,1,0,1,0,1,1A1,1,0,0,0,640.53,269.72Zm2.52,2.53a1,1,0,1,0,1,1A1,1,0,0,0,643.05,272.25Zm-85.89-80.84a1,1,0,1,0,1,1A1,1,0,0,0,557.16,191.41Zm2.53,2.53a1,1,0,1,0,1,1A1,1,0,0,0,559.69,193.94Zm2.53,2.52a1,1,0,1,0,1,1A1,1,0,0,0,562.22,196.46Zm2.52,2.53a1,1,0,1,0,1,1A1,1,0,0,0,564.74,199Zm2.53,2.53a1,1,0,1,0,1,1A1,1,0,0,0,567.27,201.52Zm2.52,2.52a1,1,0,1,0,1,1A1,1,0,0,0,569.79,204Zm2.53,2.53a1,1,0,1,0,1,1A1,1,0,0,0,572.32,206.57Zm2.53,2.52a1,1,0,1,0,1,1A1,1,0,0,0,574.85,209.09Zm2.52,2.53a1,1,0,1,0,1,1A1,1,0,0,0,577.37,211.62Zm2.53,2.53a1,1,0,1,0,1,1A1,1,0,0,0,579.9,214.15Zm2.52,2.52a1,1,0,1,0,1,1A1,1,0,0,0,582.42,216.67ZM585,219.2a1,1,0,1,0,1,1A1,1,0,0,0,585,219.2Zm2.53,2.52a1,1,0,1,0,1,1A1,1,0,0,0,587.48,221.72Zm2.52,2.53a1,1,0,1,0,1,1A1,1,0,0,0,590,224.25Zm2.53,2.53a1,1,0,1,0,1,1A1,1,0,0,0,592.53,226.78Zm2.53,2.52a1,1,0,1,0,1,1A1,1,0,0,0,595.06,229.3Zm2.52,2.53a1,1,0,1,0,1,1A1,1,0,0,0,597.58,231.83Zm2.53,2.52a1,1,0,1,0,1,1A1,1,0,0,0,600.11,234.35Zm2.52,2.53a1,1,0,1,0,1,1A1,1,0,0,0,602.63,236.88Zm2.53,2.53a1,1,0,1,0,1,1A1,1,0,0,0,605.16,239.41Zm2.53,2.52a1,1,0,1,0,1,1A1,1,0,0,0,607.69,241.93Zm2.52,2.53a1,1,0,1,0,1,1A1,1,0,0,0,610.21,244.46Zm2.53,2.53a1,1,0,1,0,1,1A1,1,0,0,0,612.74,247Zm2.52,2.52a1,1,0,1,0,1,1A1,1,0,0,0,615.26,249.51Zm2.53,2.53a1,1,0,1,0,1,1A1,1,0,0,0,617.79,252Zm2.53,2.52a1,1,0,1,0,1,1A1,1,0,0,0,620.32,254.56Zm2.52,2.53a1,1,0,1,0,1,1A1,1,0,0,0,622.84,257.09Zm2.53,2.53a1,1,0,1,0,1,1A1,1,0,0,0,625.37,259.62Zm2.52,2.52a1,1,0,1,0,1,1A1,1,0,0,0,627.89,262.14Zm2.53,2.53a1,1,0,1,0,1,1A1,1,0,0,0,630.42,264.67Zm2.53,2.52a1,1,0,1,0,1,1A1,1,0,0,0,633,267.19Zm2.52,2.53a1,1,0,1,0,1,1A1,1,0,0,0,635.47,269.72Zm2.53,2.53a1,1,0,1,0,1,1A1,1,0,0,0,638,272.25Zm-80.84-75.79a1,1,0,0,0,0,2,1,1,0,0,0,0-2Zm2.53,2.53a1,1,0,1,0,1,1A1,1,0,0,0,559.69,199Zm2.53,2.53a1,1,0,0,0,0,2,1,1,0,0,0,0-2Zm2.52,2.52a1,1,0,1,0,1,1A1,1,0,0,0,564.74,204Zm2.53,2.53a1,1,0,1,0,1,1A1,1,0,0,0,567.27,206.57Zm2.52,2.52a1,1,0,1,0,0,2,1,1,0,0,0,0-2Zm2.53,2.53a1,1,0,1,0,1,1A1,1,0,0,0,572.32,211.62Zm2.53,2.53a1,1,0,0,0,0,2,1,1,0,0,0,0-2Zm2.52,2.52a1,1,0,1,0,1,1A1,1,0,0,0,577.37,216.67Zm2.53,2.53a1,1,0,1,0,1,1A1,1,0,0,0,579.9,219.2Zm2.52,2.52a1,1,0,1,0,1,1A1,1,0,0,0,582.42,221.72Zm2.53,2.53a1,1,0,1,0,1,1A1,1,0,0,0,585,224.25Zm2.53,2.53a1,1,0,1,0,1,1A1,1,0,0,0,587.48,226.78ZM590,229.3a1,1,0,1,0,1,1A1,1,0,0,0,590,229.3Zm2.53,2.53a1,1,0,1,0,1,1A1,1,0,0,0,592.53,231.83Zm2.53,2.52a1,1,0,1,0,1,1A1,1,0,0,0,595.06,234.35Zm2.52,2.53a1,1,0,1,0,1,1A1,1,0,0,0,597.58,236.88Zm2.53,2.53a1,1,0,1,0,1,1A1,1,0,0,0,600.11,239.41Zm2.52,2.52a1,1,0,0,0,0,2,1,1,0,0,0,0-2Zm2.53,2.53a1,1,0,1,0,1,1A1,1,0,0,0,605.16,244.46Zm2.53,2.53a1,1,0,1,0,0,2,1,1,0,0,0,0-2Zm2.52,2.52a1,1,0,1,0,1,1A1,1,0,0,0,610.21,249.51Zm2.53,2.53a1,1,0,1,0,1,1A1,1,0,0,0,612.74,252Zm2.52,2.52a1,1,0,0,0,0,2,1,1,0,0,0,0-2Zm2.53,2.53a1,1,0,1,0,1,1A1,1,0,0,0,617.79,257.09Zm2.53,2.53a1,1,0,1,0,0,2,1,1,0,0,0,0-2Zm2.52,2.52a1,1,0,1,0,1,1A1,1,0,0,0,622.84,262.14Zm2.53,2.53a1,1,0,1,0,1,1A1,1,0,0,0,625.37,264.67Zm2.52,2.52a1,1,0,1,0,1,1A1,1,0,0,0,627.89,267.19Zm2.53,2.53a1,1,0,1,0,1,1A1,1,0,0,0,630.42,269.72Zm2.53,2.53a1,1,0,1,0,1,1A1,1,0,0,0,633,272.25Zm-75.79-70.73a1,1,0,1,0,1,1A1,1,0,0,0,557.16,201.52Zm2.53,2.52a1,1,0,1,0,1,1A1,1,0,0,0,559.69,204Zm2.53,2.53a1,1,0,1,0,1,1A1,1,0,0,0,562.22,206.57Zm2.52,2.52a1,1,0,1,0,1,1A1,1,0,0,0,564.74,209.09Zm2.53,2.53a1,1,0,1,0,1,1A1,1,0,0,0,567.27,211.62Zm2.52,2.53a1,1,0,1,0,1,1A1,1,0,0,0,569.79,214.15Zm2.53,2.52a1,1,0,1,0,1,1A1,1,0,0,0,572.32,216.67Zm2.53,2.53a1,1,0,1,0,1,1A1,1,0,0,0,574.85,219.2Zm2.52,2.52a1,1,0,1,0,1,1A1,1,0,0,0,577.37,221.72Zm2.53,2.53a1,1,0,1,0,1,1A1,1,0,0,0,579.9,224.25Zm2.52,2.53a1,1,0,1,0,1,1A1,1,0,0,0,582.42,226.78ZM585,229.3a1,1,0,1,0,1,1A1,1,0,0,0,585,229.3Zm2.53,2.53a1,1,0,1,0,1,1A1,1,0,0,0,587.48,231.83Zm2.52,2.52a1,1,0,1,0,1,1A1,1,0,0,0,590,234.35Zm2.53,2.53a1,1,0,1,0,1,1A1,1,0,0,0,592.53,236.88Zm2.53,2.53a1,1,0,1,0,1,1A1,1,0,0,0,595.06,239.41Zm2.52,2.52a1,1,0,1,0,1,1A1,1,0,0,0,597.58,241.93Zm2.53,2.53a1,1,0,1,0,1,1A1,1,0,0,0,600.11,244.46Zm2.52,2.53a1,1,0,1,0,1,1A1,1,0,0,0,602.63,247Zm2.53,2.52a1,1,0,1,0,1,1A1,1,0,0,0,605.16,249.51Zm2.53,2.53a1,1,0,1,0,1,1A1,1,0,0,0,607.69,252Zm2.52,2.52a1,1,0,1,0,1,1A1,1,0,0,0,610.21,254.56Zm2.53,2.53a1,1,0,1,0,1,1A1,1,0,0,0,612.74,257.09Zm2.52,2.53a1,1,0,1,0,1,1A1,1,0,0,0,615.26,259.62Zm2.53,2.52a1,1,0,1,0,1,1A1,1,0,0,0,617.79,262.14Zm2.53,2.53a1,1,0,1,0,1,1A1,1,0,0,0,620.32,264.67Zm2.52,2.52a1,1,0,1,0,1,1A1,1,0,0,0,622.84,267.19Zm2.53,2.53a1,1,0,1,0,1,1A1,1,0,0,0,625.37,269.72Zm2.52,2.53a1,1,0,1,0,1,1A1,1,0,0,0,627.89,272.25Zm-70.73-65.68a1,1,0,1,0,1,1A1,1,0,0,0,557.16,206.57Zm2.53,2.52a1,1,0,1,0,1,1A1,1,0,0,0,559.69,209.09Zm2.53,2.53a1,1,0,1,0,1,1A1,1,0,0,0,562.22,211.62Zm2.52,2.53a1,1,0,1,0,1,1A1,1,0,0,0,564.74,214.15Zm2.53,2.52a1,1,0,1,0,1,1A1,1,0,0,0,567.27,216.67Zm2.52,2.53a1,1,0,1,0,1,1A1,1,0,0,0,569.79,219.2Zm2.53,2.52a1,1,0,1,0,1,1A1,1,0,0,0,572.32,221.72Zm2.53,2.53a1,1,0,1,0,1,1A1,1,0,0,0,574.85,224.25Zm2.52,2.53a1,1,0,1,0,1,1A1,1,0,0,0,577.37,226.78Zm2.53,2.52a1,1,0,1,0,1,1A1,1,0,0,0,579.9,229.3Zm2.52,2.53a1,1,0,1,0,1,1A1,1,0,0,0,582.42,231.83Zm2.53,2.52a1,1,0,1,0,1,1A1,1,0,0,0,585,234.35Zm2.53,2.53a1,1,0,1,0,1,1A1,1,0,0,0,587.48,236.88Zm2.52,2.53a1,1,0,1,0,1,1A1,1,0,0,0,590,239.41Zm2.53,2.52a1,1,0,1,0,1,1A1,1,0,0,0,592.53,241.93Zm2.53,2.53a1,1,0,1,0,1,1A1,1,0,0,0,595.06,244.46Zm2.52,2.53a1,1,0,1,0,1,1A1,1,0,0,0,597.58,247Zm2.53,2.52a1,1,0,1,0,1,1A1,1,0,0,0,600.11,249.51Zm2.52,2.53a1,1,0,1,0,1,1A1,1,0,0,0,602.63,252Zm2.53,2.52a1,1,0,1,0,1,1A1,1,0,0,0,605.16,254.56Zm2.53,2.53a1,1,0,1,0,1,1A1,1,0,0,0,607.69,257.09Zm2.52,2.53a1,1,0,1,0,1,1A1,1,0,0,0,610.21,259.62Zm2.53,2.52a1,1,0,1,0,1,1A1,1,0,0,0,612.74,262.14Zm2.52,2.53a1,1,0,1,0,1,1A1,1,0,0,0,615.26,264.67Zm2.53,2.52a1,1,0,1,0,1,1A1,1,0,0,0,617.79,267.19Zm2.53,2.53a1,1,0,1,0,1,1A1,1,0,0,0,620.32,269.72Zm2.52,2.53a1,1,0,1,0,1,1A1,1,0,0,0,622.84,272.25Zm-65.68-60.63a1,1,0,1,0,1,1A1,1,0,0,0,557.16,211.62Zm2.53,2.53a1,1,0,1,0,1,1A1,1,0,0,0,559.69,214.15Zm2.53,2.52a1,1,0,1,0,1,1A1,1,0,0,0,562.22,216.67Zm2.52,2.53a1,1,0,1,0,1,1A1,1,0,0,0,564.74,219.2Zm2.53,2.52a1,1,0,1,0,1,1A1,1,0,0,0,567.27,221.72Zm2.52,2.53a1,1,0,1,0,1,1A1,1,0,0,0,569.79,224.25Zm2.53,2.53a1,1,0,1,0,1,1A1,1,0,0,0,572.32,226.78Zm2.53,2.52a1,1,0,1,0,1,1A1,1,0,0,0,574.85,229.3Zm2.52,2.53a1,1,0,1,0,1,1A1,1,0,0,0,577.37,231.83Zm2.53,2.52a1,1,0,1,0,1,1A1,1,0,0,0,579.9,234.35Zm2.52,2.53a1,1,0,1,0,1,1A1,1,0,0,0,582.42,236.88Zm2.53,2.53a1,1,0,1,0,1,1A1,1,0,0,0,585,239.41Zm2.53,2.52a1,1,0,1,0,1,1A1,1,0,0,0,587.48,241.93Zm2.52,2.53a1,1,0,1,0,1,1A1,1,0,0,0,590,244.46Zm2.53,2.53a1,1,0,1,0,1,1A1,1,0,0,0,592.53,247Zm2.53,2.52a1,1,0,1,0,1,1A1,1,0,0,0,595.06,249.51Zm2.52,2.53a1,1,0,1,0,1,1A1,1,0,0,0,597.58,252Zm2.53,2.52a1,1,0,1,0,1,1A1,1,0,0,0,600.11,254.56Zm2.52,2.53a1,1,0,1,0,1,1A1,1,0,0,0,602.63,257.09Zm2.53,2.53a1,1,0,1,0,1,1A1,1,0,0,0,605.16,259.62Zm2.53,2.52a1,1,0,1,0,1,1A1,1,0,0,0,607.69,262.14Zm2.52,2.53a1,1,0,1,0,1,1A1,1,0,0,0,610.21,264.67Zm2.53,2.52a1,1,0,1,0,1,1A1,1,0,0,0,612.74,267.19Zm2.52,2.53a1,1,0,1,0,1,1A1,1,0,0,0,615.26,269.72Zm2.53,2.53a1,1,0,1,0,1,1A1,1,0,0,0,617.79,272.25Zm-60.63-55.58a1,1,0,1,0,1,1A1,1,0,0,0,557.16,216.67Zm2.53,2.53a1,1,0,1,0,1,1A1,1,0,0,0,559.69,219.2Zm2.53,2.52a1,1,0,1,0,1,1A1,1,0,0,0,562.22,221.72Zm2.52,2.53a1,1,0,1,0,1,1A1,1,0,0,0,564.74,224.25Zm2.53,2.53a1,1,0,1,0,1,1A1,1,0,0,0,567.27,226.78Zm2.52,2.52a1,1,0,1,0,1,1A1,1,0,0,0,569.79,229.3Zm2.53,2.53a1,1,0,1,0,1,1A1,1,0,0,0,572.32,231.83Zm2.53,2.52a1,1,0,1,0,1,1A1,1,0,0,0,574.85,234.35Zm2.52,2.53a1,1,0,1,0,1,1A1,1,0,0,0,577.37,236.88Zm2.53,2.53a1,1,0,1,0,1,1A1,1,0,0,0,579.9,239.41Zm2.52,2.52a1,1,0,1,0,1,1A1,1,0,0,0,582.42,241.93Zm2.53,2.53a1,1,0,1,0,1,1A1,1,0,0,0,585,244.46Zm2.53,2.53a1,1,0,1,0,1,1A1,1,0,0,0,587.48,247Zm2.52,2.52a1,1,0,1,0,1,1A1,1,0,0,0,590,249.51Zm2.53,2.53a1,1,0,1,0,1,1A1,1,0,0,0,592.53,252Zm2.53,2.52a1,1,0,1,0,1,1A1,1,0,0,0,595.06,254.56Zm2.52,2.53a1,1,0,1,0,1,1A1,1,0,0,0,597.58,257.09Zm2.53,2.53a1,1,0,1,0,1,1A1,1,0,0,0,600.11,259.62Zm2.52,2.52a1,1,0,1,0,1,1A1,1,0,0,0,602.63,262.14Zm2.53,2.53a1,1,0,1,0,1,1A1,1,0,0,0,605.16,264.67Zm2.53,2.52a1,1,0,1,0,1,1A1,1,0,0,0,607.69,267.19Zm2.52,2.53a1,1,0,1,0,1,1A1,1,0,0,0,610.21,269.72Zm2.53,2.53a1,1,0,1,0,1,1A1,1,0,0,0,612.74,272.25Zm-55.58-50.53a1,1,0,1,0,0,2,1,1,0,0,0,0-2Zm2.53,2.53a1,1,0,1,0,1,1A1,1,0,0,0,559.69,224.25Zm2.53,2.53a1,1,0,1,0,0,2,1,1,0,0,0,0-2Zm2.52,2.52a1,1,0,1,0,1,1A1,1,0,0,0,564.74,229.3Zm2.53,2.53a1,1,0,1,0,1,1A1,1,0,0,0,567.27,231.83Zm2.52,2.52a1,1,0,1,0,1,1A1,1,0,0,0,569.79,234.35Zm2.53,2.53a1,1,0,1,0,1,1A1,1,0,0,0,572.32,236.88Zm2.53,2.53a1,1,0,1,0,1,1A1,1,0,0,0,574.85,239.41Zm2.52,2.52a1,1,0,1,0,1,1A1,1,0,0,0,577.37,241.93Zm2.53,2.53a1,1,0,1,0,1,1A1,1,0,0,0,579.9,244.46Zm2.52,2.53a1,1,0,1,0,1,1A1,1,0,0,0,582.42,247Zm2.53,2.52a1,1,0,1,0,1,1A1,1,0,0,0,585,249.51Zm2.53,2.53a1,1,0,1,0,1,1A1,1,0,0,0,587.48,252Zm2.52,2.52a1,1,0,0,0,0,2,1,1,0,0,0,0-2Zm2.53,2.53a1,1,0,1,0,1,1A1,1,0,0,0,592.53,257.09Zm2.53,2.53a1,1,0,0,0,0,2,1,1,0,0,0,0-2Zm2.52,2.52a1,1,0,1,0,1,1A1,1,0,0,0,597.58,262.14Zm2.53,2.53a1,1,0,1,0,1,1A1,1,0,0,0,600.11,264.67Zm2.52,2.52a1,1,0,0,0,0,2,1,1,0,0,0,0-2Zm2.53,2.53a1,1,0,1,0,1,1A1,1,0,0,0,605.16,269.72Zm2.53,2.53a1,1,0,1,0,0,2,1,1,0,0,0,0-2Zm-50.53-45.47a1,1,0,1,0,1,1A1,1,0,0,0,557.16,226.78Zm2.53,2.52a1,1,0,1,0,1,1A1,1,0,0,0,559.69,229.3Zm2.53,2.53a1,1,0,1,0,1,1A1,1,0,0,0,562.22,231.83Zm2.52,2.52a1,1,0,1,0,1,1A1,1,0,0,0,564.74,234.35Zm2.53,2.53a1,1,0,1,0,1,1A1,1,0,0,0,567.27,236.88Zm2.52,2.53a1,1,0,1,0,1,1A1,1,0,0,0,569.79,239.41Zm2.53,2.52a1,1,0,1,0,1,1A1,1,0,0,0,572.32,241.93Zm2.53,2.53a1,1,0,1,0,1,1A1,1,0,0,0,574.85,244.46Zm2.52,2.53a1,1,0,1,0,1,1A1,1,0,0,0,577.37,247Zm2.53,2.52a1,1,0,1,0,1,1A1,1,0,0,0,579.9,249.51Zm2.52,2.53a1,1,0,1,0,1,1A1,1,0,0,0,582.42,252Zm2.53,2.52a1,1,0,1,0,1,1A1,1,0,0,0,585,254.56Zm2.53,2.53a1,1,0,1,0,1,1A1,1,0,0,0,587.48,257.09Zm2.52,2.53a1,1,0,1,0,1,1A1,1,0,0,0,590,259.62Zm2.53,2.52a1,1,0,1,0,1,1A1,1,0,0,0,592.53,262.14Zm2.53,2.53a1,1,0,1,0,1,1A1,1,0,0,0,595.06,264.67Zm2.52,2.52a1,1,0,1,0,1,1A1,1,0,0,0,597.58,267.19Zm2.53,2.53a1,1,0,1,0,1,1A1,1,0,0,0,600.11,269.72Zm2.52,2.53a1,1,0,1,0,1,1A1,1,0,0,0,602.63,272.25Zm-45.47-40.42a1,1,0,1,0,1,1A1,1,0,0,0,557.16,231.83Zm2.53,2.52a1,1,0,1,0,1,1A1,1,0,0,0,559.69,234.35Zm2.53,2.53a1,1,0,1,0,1,1A1,1,0,0,0,562.22,236.88Zm2.52,2.53a1,1,0,1,0,1,1A1,1,0,0,0,564.74,239.41Zm2.53,2.52a1,1,0,1,0,1,1A1,1,0,0,0,567.27,241.93Zm2.52,2.53a1,1,0,1,0,1,1A1,1,0,0,0,569.79,244.46Zm2.53,2.53a1,1,0,1,0,1,1A1,1,0,0,0,572.32,247Zm2.53,2.52a1,1,0,1,0,1,1A1,1,0,0,0,574.85,249.51Zm2.52,2.53a1,1,0,1,0,1,1A1,1,0,0,0,577.37,252Zm2.53,2.52a1,1,0,1,0,1,1A1,1,0,0,0,579.9,254.56Zm2.52,2.53a1,1,0,1,0,1,1A1,1,0,0,0,582.42,257.09Zm2.53,2.53a1,1,0,1,0,1,1A1,1,0,0,0,585,259.62Zm2.53,2.52a1,1,0,1,0,1,1A1,1,0,0,0,587.48,262.14Zm2.52,2.53a1,1,0,1,0,1,1A1,1,0,0,0,590,264.67Zm2.53,2.52a1,1,0,1,0,1,1A1,1,0,0,0,592.53,267.19Zm2.53,2.53a1,1,0,1,0,1,1A1,1,0,0,0,595.06,269.72Zm2.52,2.53a1,1,0,1,0,1,1A1,1,0,0,0,597.58,272.25Zm-40.42-35.37a1,1,0,1,0,1,1A1,1,0,0,0,557.16,236.88Zm2.53,2.53a1,1,0,1,0,1,1A1,1,0,0,0,559.69,239.41Zm2.53,2.52a1,1,0,1,0,1,1A1,1,0,0,0,562.22,241.93Zm2.52,2.53a1,1,0,1,0,1,1A1,1,0,0,0,564.74,244.46Zm2.53,2.53a1,1,0,1,0,1,1A1,1,0,0,0,567.27,247Zm2.52,2.52a1,1,0,1,0,1,1A1,1,0,0,0,569.79,249.51Zm2.53,2.53a1,1,0,1,0,1,1A1,1,0,0,0,572.32,252Zm2.53,2.52a1,1,0,1,0,1,1A1,1,0,0,0,574.85,254.56Zm2.52,2.53a1,1,0,1,0,1,1A1,1,0,0,0,577.37,257.09Zm2.53,2.53a1,1,0,1,0,1,1A1,1,0,0,0,579.9,259.62Zm2.52,2.52a1,1,0,1,0,1,1A1,1,0,0,0,582.42,262.14Zm2.53,2.53a1,1,0,1,0,1,1A1,1,0,0,0,585,264.67Zm2.53,2.52a1,1,0,1,0,1,1A1,1,0,0,0,587.48,267.19Zm2.52,2.53a1,1,0,1,0,1,1A1,1,0,0,0,590,269.72Zm2.53,2.53a1,1,0,1,0,1,1A1,1,0,0,0,592.53,272.25Zm-35.37-30.32a1,1,0,0,0,0,2,1,1,0,0,0,0-2Zm2.53,2.53a1,1,0,1,0,1,1A1,1,0,0,0,559.69,244.46Zm2.53,2.53a1,1,0,0,0,0,2,1,1,0,0,0,0-2Zm2.52,2.52a1,1,0,1,0,1,1A1,1,0,0,0,564.74,249.51Zm2.53,2.53a1,1,0,1,0,1,1A1,1,0,0,0,567.27,252Zm2.52,2.52a1,1,0,0,0,0,2,1,1,0,0,0,0-2Zm2.53,2.53a1,1,0,1,0,1,1A1,1,0,0,0,572.32,257.09Zm2.53,2.53a1,1,0,0,0,0,2,1,1,0,0,0,0-2Zm2.52,2.52a1,1,0,1,0,1,1A1,1,0,0,0,577.37,262.14Zm2.53,2.53a1,1,0,1,0,1,1A1,1,0,0,0,579.9,264.67Zm2.52,2.52a1,1,0,1,0,1,1A1,1,0,0,0,582.42,267.19Zm2.53,2.53a1,1,0,1,0,1,1A1,1,0,0,0,585,269.72Zm2.53,2.53a1,1,0,1,0,1,1A1,1,0,0,0,587.48,272.25ZM557.16,247a1,1,0,1,0,1,1A1,1,0,0,0,557.16,247Zm2.53,2.52a1,1,0,1,0,1,1A1,1,0,0,0,559.69,249.51Zm2.53,2.53a1,1,0,1,0,1,1A1,1,0,0,0,562.22,252Zm2.52,2.52a1,1,0,1,0,1,1A1,1,0,0,0,564.74,254.56Zm2.53,2.53a1,1,0,1,0,1,1A1,1,0,0,0,567.27,257.09Zm2.52,2.53a1,1,0,1,0,1,1A1,1,0,0,0,569.79,259.62Zm2.53,2.52a1,1,0,1,0,1,1A1,1,0,0,0,572.32,262.14Zm2.53,2.53a1,1,0,1,0,1,1A1,1,0,0,0,574.85,264.67Zm2.52,2.52a1,1,0,1,0,1,1A1,1,0,0,0,577.37,267.19Zm2.53,2.53a1,1,0,1,0,1,1A1,1,0,0,0,579.9,269.72Zm2.52,2.53a1,1,0,1,0,1,1A1,1,0,0,0,582.42,272.25ZM557.16,252a1,1,0,1,0,1,1A1,1,0,0,0,557.16,252Zm2.53,2.52a1,1,0,1,0,1,1A1,1,0,0,0,559.69,254.56Zm2.53,2.53a1,1,0,1,0,1,1A1,1,0,0,0,562.22,257.09Zm2.52,2.53a1,1,0,1,0,1,1A1,1,0,0,0,564.74,259.62Zm2.53,2.52a1,1,0,1,0,1,1A1,1,0,0,0,567.27,262.14Zm2.52,2.53a1,1,0,1,0,1,1A1,1,0,0,0,569.79,264.67Zm2.53,2.52a1,1,0,1,0,1,1A1,1,0,0,0,572.32,267.19Zm2.53,2.53a1,1,0,1,0,1,1A1,1,0,0,0,574.85,269.72Zm2.52,2.53a1,1,0,1,0,1,1A1,1,0,0,0,577.37,272.25Zm-20.21-15.16a1,1,0,1,0,1,1A1,1,0,0,0,557.16,257.09Zm2.53,2.53a1,1,0,1,0,1,1A1,1,0,0,0,559.69,259.62Zm2.53,2.52a1,1,0,1,0,1,1A1,1,0,0,0,562.22,262.14Zm2.52,2.53a1,1,0,1,0,1,1A1,1,0,0,0,564.74,264.67Zm2.53,2.52a1,1,0,1,0,1,1A1,1,0,0,0,567.27,267.19Zm2.52,2.53a1,1,0,1,0,1,1A1,1,0,0,0,569.79,269.72Zm2.53,2.53a1,1,0,1,0,1,1A1,1,0,0,0,572.32,272.25Zm-15.16-10.11a1,1,0,1,0,1,1A1,1,0,0,0,557.16,262.14Zm2.53,2.53a1,1,0,1,0,1,1A1,1,0,0,0,559.69,264.67Zm2.53,2.52a1,1,0,1,0,1,1A1,1,0,0,0,562.22,267.19Zm2.52,2.53a1,1,0,1,0,1,1A1,1,0,0,0,564.74,269.72Zm2.53,2.53a1,1,0,1,0,1,1A1,1,0,0,0,567.27,272.25Zm-10.11-5.06a1,1,0,0,0,0,2,1,1,0,0,0,0-2Zm2.53,2.53a1,1,0,1,0,1,1A1,1,0,0,0,559.69,269.72Zm2.53,2.53a1,1,0,0,0,0,2,1,1,0,0,0,0-2Zm-5.06,0a1,1,0,1,0,1,1A1,1,0,0,0,557.16,272.25Z"/></g><path class="cls-7" d="M272,271a73.25,73.25,0,1,1,73.24-73.25A73.33,73.33,0,0,1,272,271Zm0-112.32a39.08,39.08,0,1,0,39.08,39.07A39.11,39.11,0,0,0,272,158.67Z"/><polygon points="232.99 193.97 183.59 193.97 230.57 178.7 228.23 171.52 181.26 186.78 221.22 157.75 216.78 151.64 176.82 180.67 205.85 140.71 199.74 136.27 170.71 176.23 185.97 129.25 178.78 126.92 163.52 173.89 163.52 124.5 155.97 124.5 155.97 173.89 140.7 126.92 133.52 129.25 148.78 176.23 119.75 136.27 113.64 140.71 142.67 180.67 102.71 151.64 98.27 157.75 138.23 186.78 91.25 171.52 88.92 178.7 135.89 193.97 86.5 193.97 86.5 201.52 135.89 201.52 88.92 216.78 91.25 223.97 138.23 208.71 98.27 237.74 102.71 243.85 142.67 214.82 113.64 254.78 119.75 259.22 148.78 219.26 133.52 266.23 140.7 268.57 155.97 221.59 155.97 270.99 163.52 270.99 163.52 221.59 178.78 268.57 185.97 266.23 170.71 219.26 199.74 259.22 205.85 254.78 176.82 214.82 216.78 243.85 221.22 237.74 181.26 208.71 228.23 223.97 230.57 216.78 183.59 201.52 232.99 201.52 232.99 193.97"/></g><g id="CORES_REF_" data-name="CORES REF #"><path class="cls-4" d="M776.77,226.17H761.68l5.88-14.71H755.13l-5.89,14.71H734.15L740,211.46h-9.69V197.69h15.19l4-10H738V174H755l5.7-14.24h15.09L770.12,174h12.44l5.69-14.24h15.09L797.65,174h9.59v13.76h-15.1l-4,10h11.48v13.77h-17Zm-12.15-38.44-4,10h12.44l4-10Z"/><path class="cls-4" d="M872.25,211.46v14.71h-52.2V159.73h14.71v51.73Z"/><path class="cls-4" d="M898.83,226.17H884.12V159.73h14.71Z"/><path class="cls-4" d="M915,226.17V159.73h39.58c6.36,0,11.49,1.8,15.38,5.31s5.88,8.16,5.88,14c0,6-2.08,10.63-6.17,13.85,4.09,3.33,6.17,8,6.17,14a18.24,18.24,0,0,1-5.88,14c-3.89,3.52-9,5.32-15.38,5.32Zm14.71-40.53H953.4c5.13,0,7.69-1.8,7.69-5.51s-2.56-5.69-7.69-5.69H929.67Zm0,25.82h23.64c5.22,0,7.78-1.9,7.78-5.6s-2.56-5.6-7.78-5.6H929.67Z"/><path class="cls-4" d="M1130.56,211.46v14.71H988.49V159.73h141.6v14.71H1003.21v11.2h126.41v14.62H1003.21v11.2Z"/><path class="cls-4" d="M1205.7,226.17h-16.61l-11.77-23h-19.56v23h-14.71V159.73h36.16c7.69,0,13.58,2.09,17.75,6.26a20.35,20.35,0,0,1,6.36,15.38c0,8.26-4.08,15.47-11.58,19.17Zm-47.94-37.68H1180c5.6,0,8.64-2.66,8.64-6.93s-3-7.12-8.64-7.12h-22.21Z"/><path class="cls-4" d="M1270.14,159.73v14.71h-22.3v51.73h-14.71V174.44h-22.21V159.73Z"/><path class="cls-4" d="M1339.43,211.46v14.71h-58.85V159.73H1339v14.71H1295.3v11.2h43.18v14.62H1295.3v11.2Z"/><path class="cls-4" d="M1360.88,167.7c6.74-6.55,15.19-9.87,25.25-9.87s18.41,3.32,25.15,9.87,10.16,14.9,10.16,25.25-3.42,18.79-10.16,25.34-15.09,9.78-25.15,9.78-18.6-3.23-25.34-9.78-10-15-10-25.34S1354.14,174.25,1360.88,167.7Zm40,10.54a21.7,21.7,0,0,0-29.52.19,19.67,19.67,0,0,0-5.79,14.52c0,6,1.9,10.91,5.79,14.71a20.33,20.33,0,0,0,14.81,5.7,20.67,20.67,0,0,0,14.71-35.12Z"/><path class="cls-4" d="M1449,200.26v25.91h-14.71V159.73h55v14.71H1449v11.2h39.39v14.62Z"/><path class="cls-4" d="M1560.87,159.73v38.44c0,9-2.85,16.23-8.54,21.73s-12.63,8.17-21.08,8.17-15.47-2.75-21.16-8.17-8.45-12.71-8.45-21.73V159.73h14.71v38c0,9.87,6.27,15.67,14.9,15.67s14.91-5.8,14.91-15.67v-38Z"/><path class="cls-4" d="M1629.11,159.73v14.71h-22.3v51.73H1592.1V174.44h-22.22V159.73Z"/><path class="cls-4" d="M1697.36,159.73v38.44c0,9-2.85,16.23-8.55,21.73s-12.62,8.17-21.07,8.17-15.47-2.75-21.16-8.17-8.45-12.71-8.45-21.73V159.73h14.71v38c0,9.87,6.26,15.67,14.9,15.67s14.9-5.8,14.9-15.67v-38Z"/><path class="cls-4" d="M1773.29,226.17h-16.61l-11.77-23h-19.55v23h-14.72V159.73h36.17c7.68,0,13.57,2.09,17.75,6.26a20.35,20.35,0,0,1,6.36,15.38c0,8.26-4.09,15.47-11.58,19.17Zm-47.93-37.68h22.21c5.6,0,8.63-2.66,8.63-6.93s-3-7.12-8.63-7.12h-22.21Z"/><path class="cls-4" d="M1790.94,167.7c6.74-6.55,15.19-9.87,25.25-9.87s18.41,3.32,25.15,9.87,10.16,14.9,10.16,25.25-3.42,18.79-10.16,25.34-15.09,9.78-25.15,9.78-18.6-3.23-25.34-9.78-10-15-10-25.34S1784.2,174.25,1790.94,167.7Zm40,10.54a21.7,21.7,0,0,0-29.52.19,19.67,19.67,0,0,0-5.79,14.52c0,6,1.9,10.91,5.79,14.71a20.33,20.33,0,0,0,14.81,5.7,20.67,20.67,0,0,0,14.71-35.12Z"/></g></svg>