<svg id="Layer_1" data-name="Layer 1" xmlns="http://www.w3.org/2000/svg" viewBox="0 0 1200 1200"><polygon points="1189.33 565.12 792.13 565.12 1169.89 442.38 1151.11 384.6 773.35 507.34 1094.69 273.87 1058.98 224.72 737.64 458.18 971.11 136.84 921.96 101.13 688.49 422.47 811.23 44.72 753.45 25.94 630.71 403.7 630.71 6.5 569.95 6.5 569.95 403.7 447.21 25.94 389.42 44.72 512.16 422.47 278.7 101.13 229.54 136.84 463.01 458.19 141.67 224.72 105.96 273.87 427.3 507.34 49.54 384.6 30.77 442.38 408.52 565.12 11.33 565.12 11.33 625.88 408.52 625.88 30.77 748.62 49.54 806.4 427.3 683.66 105.96 917.13 141.67 966.28 463.01 732.82 229.54 1054.15 278.7 1089.87 512.16 768.53 389.42 1146.29 447.21 1165.06 569.95 787.3 569.95 1184.5 630.71 1184.5 630.71 787.3 753.45 1165.06 811.23 1146.29 688.49 768.53 921.96 1089.87 971.11 1054.15 737.64 732.82 1058.98 966.28 1094.69 917.13 773.35 683.66 1151.11 806.4 1169.89 748.62 792.13 625.88 1189.33 625.88 1189.33 565.12"/></svg>