<svg id="Layer_1" data-name="Layer 1" xmlns="http://www.w3.org/2000/svg" xmlns:xlink="http://www.w3.org/1999/xlink" viewBox="0 0 1200 1200"><defs><style>.cls-1{fill:none;}.cls-2{clip-path:url(#clip-path);}.cls-3{fill:#e05e05;}.cls-4{fill:#968d6e;}</style><clipPath id="clip-path"><circle class="cls-1" cx="-628.49" cy="600.67" r="577.83"/></clipPath></defs><g class="cls-2"><rect class="cls-3" x="-1352.38" y="548.36" width="1630.25" height="32.42" transform="translate(-556.57 -214.54) rotate(-45)"/><rect class="cls-3" x="-1299.37" y="601.37" width="1630.25" height="32.42" transform="translate(-578.53 -161.53) rotate(-45)"/><rect class="cls-3" x="-1246.35" y="654.39" width="1630.25" height="32.42" transform="translate(-600.48 -108.51) rotate(-45)"/><rect class="cls-3" x="-1193.34" y="707.4" width="1630.25" height="32.42" transform="translate(-622.44 -55.5) rotate(-45)"/><rect class="cls-3" x="-1140.33" y="760.41" width="1630.25" height="32.42" transform="translate(-644.4 -2.49) rotate(-45)"/><rect class="cls-3" x="-1087.31" y="813.43" width="1630.25" height="32.42" transform="translate(-666.36 50.53) rotate(-45)"/><rect class="cls-3" x="-1034.3" y="866.44" width="1630.25" height="32.42" transform="translate(-688.32 103.54) rotate(-45)"/><rect class="cls-3" x="-981.28" y="919.45" width="1630.25" height="32.42" transform="translate(-710.28 156.56) rotate(-45)"/><rect class="cls-3" x="-928.27" y="972.47" width="1630.25" height="32.42" transform="translate(-732.24 209.57) rotate(-45)"/><rect class="cls-3" x="-875.26" y="1025.48" width="1630.25" height="32.42" transform="translate(-754.2 262.58) rotate(-45)"/><rect class="cls-3" x="-822.24" y="1078.5" width="1630.25" height="32.42" transform="translate(-776.16 315.6) rotate(-45)"/></g><path class="cls-4" d="M590.5,1178.5c-318.62,0-577.83-259.21-577.83-577.83S271.88,22.84,590.5,22.84s577.83,259.21,577.83,577.83S909.11,1178.5,590.5,1178.5Zm0-886.11c-170,0-308.29,138.29-308.29,308.28S420.51,909,590.5,909,898.78,770.66,898.78,600.67,760.48,292.39,590.5,292.39Z"/></svg>