<svg id="Layer_1" data-name="Layer 1" xmlns="http://www.w3.org/2000/svg" xmlns:xlink="http://www.w3.org/1999/xlink" viewBox="0 0 1200 1200"><defs><style>.cls-1{fill:none;}.cls-2{clip-path:url(#clip-path);}.cls-3{fill:#e05e05;}</style><clipPath id="clip-path"><circle class="cls-1" cx="591.51" cy="600.67" r="577.83"/></clipPath></defs><g class="cls-2"><rect class="cls-3" x="-556.49" y="124.25" width="1630.25" height="32.42" transform="translate(-23.56 224.02) rotate(-45)"/><rect class="cls-3" x="-503.48" y="177.26" width="1630.25" height="32.42" transform="translate(-45.52 277.03) rotate(-45)"/><rect class="cls-3" x="-450.46" y="230.27" width="1630.25" height="32.42" transform="translate(-67.48 330.05) rotate(-45)"/><rect class="cls-3" x="-397.45" y="283.29" width="1630.25" height="32.42" transform="translate(-89.44 383.06) rotate(-45)"/><rect class="cls-3" x="-344.44" y="336.3" width="1630.25" height="32.42" transform="translate(-111.4 436.07) rotate(-45)"/><rect class="cls-3" x="-291.42" y="389.32" width="1630.25" height="32.42" transform="translate(-133.36 489.09) rotate(-45)"/><rect class="cls-3" x="-238.41" y="442.33" width="1630.25" height="32.42" transform="translate(-155.32 542.1) rotate(-45)"/><rect class="cls-3" x="-185.4" y="495.34" width="1630.25" height="32.42" transform="translate(-177.28 595.12) rotate(-45)"/><rect class="cls-3" x="-132.38" y="548.36" width="1630.25" height="32.42" transform="translate(-199.24 648.13) rotate(-45)"/><rect class="cls-3" x="-79.37" y="601.37" width="1630.25" height="32.42" transform="translate(-221.2 701.14) rotate(-45)"/><rect class="cls-3" x="-26.35" y="654.39" width="1630.25" height="32.42" transform="translate(-243.16 754.16) rotate(-45)"/><rect class="cls-3" x="26.66" y="707.4" width="1630.25" height="32.42" transform="translate(-265.11 807.17) rotate(-45)"/><rect class="cls-3" x="79.67" y="760.41" width="1630.25" height="32.42" transform="translate(-287.07 860.18) rotate(-45)"/><rect class="cls-3" x="132.69" y="813.43" width="1630.25" height="32.42" transform="translate(-309.03 913.2) rotate(-45)"/><rect class="cls-3" x="185.7" y="866.44" width="1630.25" height="32.42" transform="translate(-330.99 966.21) rotate(-45)"/><rect class="cls-3" x="238.72" y="919.45" width="1630.25" height="32.42" transform="translate(-352.95 1019.23) rotate(-45)"/><rect class="cls-3" x="291.73" y="972.47" width="1630.25" height="32.42" transform="translate(-374.91 1072.24) rotate(-45)"/><rect class="cls-3" x="344.74" y="1025.48" width="1630.25" height="32.42" transform="translate(-396.87 1125.25) rotate(-45)"/><rect class="cls-3" x="397.76" y="1078.5" width="1630.25" height="32.42" transform="translate(-418.83 1178.27) rotate(-45)"/></g></svg>