<svg id="Layer_1" data-name="Layer 1" xmlns="http://www.w3.org/2000/svg" xmlns:xlink="http://www.w3.org/1999/xlink" viewBox="0 0 1200 1200"><defs><style>.cls-1{fill:none;}.cls-2{clip-path:url(#clip-path);}.cls-3{fill:#e05e05;}.cls-4{fill:#cc1522;}</style><clipPath id="clip-path"><circle class="cls-1" cx="1811.51" cy="600.67" r="577.83"/></clipPath></defs><g class="cls-2"><rect class="cls-3" x="663.51" y="124.25" width="1630.25" height="32.42" transform="translate(333.77 1086.69) rotate(-45)"/><rect class="cls-3" x="716.52" y="177.26" width="1630.25" height="32.42" transform="translate(311.81 1139.7) rotate(-45)"/><rect class="cls-3" x="769.54" y="230.27" width="1630.25" height="32.42" transform="translate(289.85 1192.72) rotate(-45)"/><rect class="cls-3" x="822.55" y="283.29" width="1630.25" height="32.42" transform="translate(267.89 1245.73) rotate(-45)"/><rect class="cls-3" x="875.56" y="336.3" width="1630.25" height="32.42" transform="translate(245.93 1298.74) rotate(-45)"/><rect class="cls-3" x="928.58" y="389.32" width="1630.25" height="32.42" transform="translate(223.97 1351.76) rotate(-45)"/></g><path class="cls-4" d="M595.06,1178.5c-318.62,0-577.83-259.21-577.83-577.83S276.44,22.84,595.06,22.84s577.83,259.21,577.83,577.83S913.67,1178.5,595.06,1178.5Zm0-886.11c-170,0-308.29,138.29-308.29,308.28S425.07,909,595.06,909,903.34,770.66,903.34,600.67,765,292.39,595.06,292.39Z"/></svg>